G04 #@! TF.GenerationSoftware,KiCad,Pcbnew,5.1.5-52549c5~86~ubuntu18.04.1*
G04 #@! TF.CreationDate,2020-11-21T17:19:21-05:00*
G04 #@! TF.ProjectId,RAK4631_LORA_ADAPTABLE_NODE,52414b34-3633-4315-9f4c-4f52415f4144,rev?*
G04 #@! TF.SameCoordinates,Original*
G04 #@! TF.FileFunction,Copper,L2,Bot*
G04 #@! TF.FilePolarity,Positive*
%FSLAX46Y46*%
G04 Gerber Fmt 4.6, Leading zero omitted, Abs format (unit mm)*
G04 Created by KiCad (PCBNEW 5.1.5-52549c5~86~ubuntu18.04.1) date 2020-11-21 17:19:21*
%MOMM*%
%LPD*%
G04 APERTURE LIST*
%ADD10R,0.450000X0.530000*%
%ADD11R,0.230000X0.650000*%
%ADD12O,1.700000X1.700000*%
%ADD13C,1.700000*%
%ADD14C,2.400000*%
%ADD15R,2.400000X2.400000*%
%ADD16C,2.000000*%
%ADD17R,1.000000X1.500000*%
%ADD18C,0.100000*%
%ADD19C,0.800000*%
%ADD20C,0.500000*%
%ADD21C,0.166000*%
%ADD22C,0.250000*%
%ADD23C,0.160000*%
%ADD24C,0.152400*%
%ADD25C,0.254000*%
G04 APERTURE END LIST*
D10*
X129090400Y-112172600D03*
X129090400Y-111042600D03*
X119880400Y-112172600D03*
X119880400Y-111042600D03*
D11*
X120685400Y-110732600D03*
X120685400Y-112482600D03*
X121085400Y-110732600D03*
X121085400Y-112482600D03*
X121485400Y-110732600D03*
X121485400Y-112482600D03*
X121885400Y-110732600D03*
X121885400Y-112482600D03*
X122285400Y-110732600D03*
X122285400Y-112482600D03*
X122685400Y-110732600D03*
X122685400Y-112482600D03*
X123085400Y-110732600D03*
X123085400Y-112482600D03*
X123485400Y-110732600D03*
X123485400Y-112482600D03*
X123885400Y-110732600D03*
X123885400Y-112482600D03*
X124285400Y-110732600D03*
X124285400Y-112482600D03*
X124685400Y-110732600D03*
X124685400Y-112482600D03*
X125085400Y-110732600D03*
X125085400Y-112482600D03*
X125485400Y-110732600D03*
X125485400Y-112482600D03*
X125885400Y-110732600D03*
X125885400Y-112482600D03*
X126285400Y-110732600D03*
X126285400Y-112482600D03*
X126685400Y-110732600D03*
X126685400Y-112482600D03*
X127085400Y-110732600D03*
X127085400Y-112482600D03*
X127485400Y-110732600D03*
X127485400Y-112482600D03*
X127885400Y-110732600D03*
X127885400Y-112482600D03*
X128285400Y-110732600D03*
X128285400Y-112482600D03*
D12*
X159955000Y-121885000D03*
X157415000Y-121885000D03*
X154875000Y-121885000D03*
X152335000Y-121885000D03*
X149795000Y-121885000D03*
X147255000Y-121885000D03*
X144715000Y-121885000D03*
X142175000Y-121885000D03*
D13*
X139635000Y-121885000D03*
D12*
X159955000Y-124425000D03*
X157415000Y-124425000D03*
X154875000Y-124425000D03*
X152335000Y-124425000D03*
X149795000Y-124425000D03*
X147255000Y-124425000D03*
X144715000Y-124425000D03*
X142175000Y-124425000D03*
D13*
X139635000Y-124425000D03*
D12*
X159955000Y-126965000D03*
X157415000Y-126965000D03*
X154875000Y-126965000D03*
X152335000Y-126965000D03*
X149795000Y-126965000D03*
X147255000Y-126965000D03*
X144715000Y-126965000D03*
X142175000Y-126965000D03*
D13*
X139635000Y-126965000D03*
D14*
X169910000Y-108400000D03*
X169910000Y-111900000D03*
D15*
X169910000Y-115400000D03*
D12*
X137095000Y-119345000D03*
X139635000Y-119345000D03*
X142175000Y-119345000D03*
X144715000Y-119345000D03*
X147255000Y-119345000D03*
X149795000Y-119345000D03*
X152335000Y-119345000D03*
X154875000Y-119345000D03*
X157415000Y-119345000D03*
X159955000Y-119345000D03*
D13*
X162495000Y-119345000D03*
D12*
X162495000Y-129505000D03*
X159955000Y-129505000D03*
X157415000Y-129505000D03*
X154875000Y-129505000D03*
X152335000Y-129505000D03*
X149795000Y-129505000D03*
X147255000Y-129505000D03*
X144715000Y-129505000D03*
X142175000Y-129505000D03*
X139635000Y-129505000D03*
D13*
X137095000Y-129505000D03*
D12*
X137095000Y-121885000D03*
X137095000Y-124425000D03*
D13*
X137095000Y-126965000D03*
D12*
X162495000Y-121885000D03*
X162495000Y-124425000D03*
D13*
X162495000Y-126965000D03*
D16*
X110220000Y-109085000D03*
X162210000Y-109085000D03*
D14*
X169910000Y-133335000D03*
X169910000Y-136835000D03*
D15*
X169910000Y-140335000D03*
D17*
X132080000Y-102870000D03*
G04 #@! TA.AperFunction,SMDPad,CuDef*
D18*
G36*
X133380000Y-102120602D02*
G01*
X133404534Y-102120602D01*
X133453365Y-102125412D01*
X133501490Y-102134984D01*
X133548445Y-102149228D01*
X133593778Y-102168005D01*
X133637051Y-102191136D01*
X133677850Y-102218396D01*
X133715779Y-102249524D01*
X133750476Y-102284221D01*
X133781604Y-102322150D01*
X133808864Y-102362949D01*
X133831995Y-102406222D01*
X133850772Y-102451555D01*
X133865016Y-102498510D01*
X133874588Y-102546635D01*
X133879398Y-102595466D01*
X133879398Y-102620000D01*
X133880000Y-102620000D01*
X133880000Y-103120000D01*
X133879398Y-103120000D01*
X133879398Y-103144534D01*
X133874588Y-103193365D01*
X133865016Y-103241490D01*
X133850772Y-103288445D01*
X133831995Y-103333778D01*
X133808864Y-103377051D01*
X133781604Y-103417850D01*
X133750476Y-103455779D01*
X133715779Y-103490476D01*
X133677850Y-103521604D01*
X133637051Y-103548864D01*
X133593778Y-103571995D01*
X133548445Y-103590772D01*
X133501490Y-103605016D01*
X133453365Y-103614588D01*
X133404534Y-103619398D01*
X133380000Y-103619398D01*
X133380000Y-103620000D01*
X132830000Y-103620000D01*
X132830000Y-102120000D01*
X133380000Y-102120000D01*
X133380000Y-102120602D01*
G37*
G04 #@! TD.AperFunction*
G04 #@! TA.AperFunction,SMDPad,CuDef*
G36*
X131330000Y-103620000D02*
G01*
X130780000Y-103620000D01*
X130780000Y-103619398D01*
X130755466Y-103619398D01*
X130706635Y-103614588D01*
X130658510Y-103605016D01*
X130611555Y-103590772D01*
X130566222Y-103571995D01*
X130522949Y-103548864D01*
X130482150Y-103521604D01*
X130444221Y-103490476D01*
X130409524Y-103455779D01*
X130378396Y-103417850D01*
X130351136Y-103377051D01*
X130328005Y-103333778D01*
X130309228Y-103288445D01*
X130294984Y-103241490D01*
X130285412Y-103193365D01*
X130280602Y-103144534D01*
X130280602Y-103120000D01*
X130280000Y-103120000D01*
X130280000Y-102620000D01*
X130280602Y-102620000D01*
X130280602Y-102595466D01*
X130285412Y-102546635D01*
X130294984Y-102498510D01*
X130309228Y-102451555D01*
X130328005Y-102406222D01*
X130351136Y-102362949D01*
X130378396Y-102322150D01*
X130409524Y-102284221D01*
X130444221Y-102249524D01*
X130482150Y-102218396D01*
X130522949Y-102191136D01*
X130566222Y-102168005D01*
X130611555Y-102149228D01*
X130658510Y-102134984D01*
X130706635Y-102125412D01*
X130755466Y-102120602D01*
X130780000Y-102120602D01*
X130780000Y-102120000D01*
X131330000Y-102120000D01*
X131330000Y-103620000D01*
G37*
G04 #@! TD.AperFunction*
D16*
X162290000Y-139915000D03*
X110300000Y-139915000D03*
D19*
X162560000Y-136525000D03*
X165735000Y-109855000D03*
X126873000Y-116611400D03*
X118948200Y-115620800D03*
D20*
X116435000Y-102870000D02*
X110220000Y-109085000D01*
X116435000Y-102870000D02*
X130780000Y-102870000D01*
X161290000Y-137795000D02*
X162560000Y-136525000D01*
X164465000Y-108585000D02*
X165735000Y-109855000D01*
X163965001Y-108085001D02*
X164465000Y-108585000D01*
X162210000Y-109085000D02*
X163209999Y-108085001D01*
X163209999Y-108085001D02*
X163965001Y-108085001D01*
X134664830Y-102870000D02*
X133380000Y-102870000D01*
X135514832Y-102019998D02*
X134664830Y-102870000D01*
X162210000Y-109085000D02*
X155144998Y-102019998D01*
X155144998Y-102019998D02*
X135514832Y-102019998D01*
X161290000Y-138915000D02*
X161290000Y-137795000D01*
X162290000Y-139915000D02*
X161290000Y-138915000D01*
D21*
X127885400Y-110892800D02*
X127885400Y-112482600D01*
X127885400Y-110732600D02*
X127885400Y-110892800D01*
X120685400Y-111223600D02*
X120685400Y-112482600D01*
X120685400Y-110732600D02*
X120685400Y-111223600D01*
D20*
X169910000Y-111900000D02*
X171607056Y-111900000D01*
D21*
X169910000Y-111900000D02*
X171793200Y-111900000D01*
X127885400Y-112482600D02*
X127885400Y-115370400D01*
X127885400Y-115370400D02*
X127885400Y-115446600D01*
X127885400Y-115370400D02*
X127885400Y-115802200D01*
X127885400Y-115802200D02*
X127279400Y-116408200D01*
X127279400Y-116408200D02*
X127076200Y-116611400D01*
X127076200Y-116611400D02*
X126873000Y-116611400D01*
X120685400Y-113197800D02*
X120685400Y-112482600D01*
X118948200Y-115620800D02*
X118948200Y-114935000D01*
X118948200Y-114935000D02*
X120685400Y-113197800D01*
X132730800Y-126965000D02*
X137095000Y-126965000D01*
X127885400Y-110732600D02*
X127885400Y-109477600D01*
X128270000Y-109093000D02*
X130454400Y-109093000D01*
X130454400Y-109093000D02*
X131495800Y-110134400D01*
X127885400Y-109477600D02*
X128270000Y-109093000D01*
X131495800Y-110134400D02*
X131495800Y-125730000D01*
X131495800Y-125730000D02*
X132730800Y-126965000D01*
D20*
X121615200Y-145643600D02*
X115886600Y-139915000D01*
X154178000Y-145643600D02*
X121615200Y-145643600D01*
X169341800Y-144551400D02*
X163347400Y-144551400D01*
X115886600Y-139915000D02*
X110300000Y-139915000D01*
X171793200Y-111900000D02*
X172770800Y-112877600D01*
X172770800Y-112877600D02*
X172770800Y-141122400D01*
X172770800Y-141122400D02*
X169341800Y-144551400D01*
X163347400Y-144551400D02*
X161569400Y-142773400D01*
X157048200Y-142773400D02*
X154178000Y-145643600D01*
X161569400Y-142773400D02*
X157048200Y-142773400D01*
X115886600Y-118682400D02*
X118948200Y-115620800D01*
X115886600Y-139915000D02*
X115886600Y-118682400D01*
X168910000Y-128905000D02*
X165735000Y-125730000D01*
X165735000Y-125730000D02*
X165735000Y-122555000D01*
X165065000Y-121885000D02*
X162495000Y-121885000D01*
X165735000Y-122555000D02*
X165065000Y-121885000D01*
X168910000Y-130637944D02*
X168910000Y-128905000D01*
X169910000Y-133335000D02*
X169910000Y-131637944D01*
X169910000Y-131637944D02*
X168910000Y-130637944D01*
X162495000Y-124425000D02*
X163160000Y-124425000D01*
X164465000Y-125095000D02*
X164465000Y-126365000D01*
X164465000Y-126365000D02*
X166370000Y-128270000D01*
X166370000Y-135992056D02*
X166370000Y-128270000D01*
X163795000Y-124425000D02*
X162495000Y-124425000D01*
X164465000Y-125095000D02*
X163795000Y-124425000D01*
X167212944Y-136835000D02*
X166370000Y-135992056D01*
X169910000Y-136835000D02*
X167212944Y-136835000D01*
X163494489Y-127964489D02*
X162495000Y-126965000D01*
X164159489Y-127964489D02*
X163494489Y-127964489D01*
X165100000Y-128905000D02*
X164159489Y-127964489D01*
X165100000Y-138430000D02*
X165100000Y-128905000D01*
X169910000Y-140335000D02*
X167005000Y-140335000D01*
X167005000Y-140335000D02*
X165100000Y-138430000D01*
X169910000Y-108400000D02*
X166346800Y-111963200D01*
X166346800Y-111963200D02*
X158216600Y-111963200D01*
X158216600Y-111963200D02*
X156387800Y-113792000D01*
X156387800Y-113792000D02*
X156387800Y-116230400D01*
X157415000Y-117257600D02*
X157415000Y-119345000D01*
X156387800Y-116230400D02*
X157415000Y-117257600D01*
X132080000Y-101600000D02*
X132080000Y-102870000D01*
X132715000Y-100965000D02*
X132080000Y-101600000D01*
X169910000Y-106410000D02*
X167005000Y-103505000D01*
X169910000Y-108400000D02*
X169910000Y-106410000D01*
X167005000Y-103505000D02*
X167005000Y-102235000D01*
X167005000Y-102235000D02*
X165735000Y-100965000D01*
X165735000Y-100965000D02*
X132715000Y-100965000D01*
X163697081Y-119345000D02*
X162495000Y-119345000D01*
X167665000Y-119345000D02*
X163697081Y-119345000D01*
X169910000Y-115400000D02*
X169910000Y-117100000D01*
X169910000Y-117100000D02*
X167665000Y-119345000D01*
D21*
X121085400Y-110241600D02*
X121085400Y-110732600D01*
X154875000Y-115149400D02*
X150342600Y-110617000D01*
X154875000Y-119345000D02*
X154875000Y-115149400D01*
X141579600Y-110617000D02*
X135407400Y-104444800D01*
X150342600Y-110617000D02*
X141579600Y-110617000D01*
X135407400Y-104444800D02*
X123317000Y-104444800D01*
X121085400Y-106676400D02*
X121085400Y-110241600D01*
X123317000Y-104444800D02*
X121085400Y-106676400D01*
X121085400Y-112482600D02*
X121085400Y-138967000D01*
X125984000Y-143865600D02*
X132892800Y-143865600D01*
X121085400Y-138967000D02*
X125984000Y-143865600D01*
X150215600Y-143865600D02*
X132892800Y-143865600D01*
X132892800Y-143865600D02*
X132537200Y-143865600D01*
X159955000Y-134075400D02*
X159867600Y-134162800D01*
X159955000Y-129505000D02*
X159955000Y-134075400D01*
X159867600Y-134162800D02*
X150215600Y-143865600D01*
X121885400Y-110241600D02*
X121885400Y-110732600D01*
X121779390Y-110135590D02*
X121885400Y-110241600D01*
X152335000Y-116165400D02*
X147878800Y-111709200D01*
X152335000Y-119345000D02*
X152335000Y-116165400D01*
X123723400Y-105003600D02*
X121779390Y-106947610D01*
X147878800Y-111709200D02*
X141554200Y-111709200D01*
X121779390Y-106947610D02*
X121779390Y-110135590D01*
X141554200Y-111709200D02*
X134848600Y-105003600D01*
X134848600Y-105003600D02*
X123723400Y-105003600D01*
X121885400Y-136363400D02*
X122351800Y-136829800D01*
X121885400Y-112482600D02*
X121885400Y-136363400D01*
X122351800Y-136829800D02*
X121885400Y-136338000D01*
X148971000Y-142468600D02*
X127990600Y-142468600D01*
X127990600Y-142468600D02*
X122351800Y-136829800D01*
X157415000Y-134075400D02*
X157276800Y-134213600D01*
X157415000Y-129505000D02*
X157415000Y-134075400D01*
X157276800Y-134213600D02*
X148971000Y-142468600D01*
X122285400Y-107203600D02*
X122285400Y-110732600D01*
X149795000Y-116063800D02*
X146481800Y-112750600D01*
X124079000Y-105410000D02*
X122285400Y-107203600D01*
X141478000Y-112750600D02*
X134137400Y-105410000D01*
X149795000Y-119345000D02*
X149795000Y-116063800D01*
X146481800Y-112750600D02*
X141478000Y-112750600D01*
X134137400Y-105410000D02*
X124079000Y-105410000D01*
X122261201Y-112888601D02*
X122261201Y-112776000D01*
X154875000Y-133465800D02*
X147574000Y-140766800D01*
X147574000Y-140766800D02*
X129032000Y-140766800D01*
X129032000Y-140766800D02*
X122285400Y-134020200D01*
X122285400Y-134020200D02*
X122285400Y-112912800D01*
X154875000Y-129505000D02*
X154875000Y-133465800D01*
X122285400Y-112912800D02*
X122261201Y-112888601D01*
X147255000Y-116981200D02*
X147255000Y-119345000D01*
X140106400Y-113868200D02*
X144170400Y-113868200D01*
X122685400Y-107718000D02*
X124434600Y-105968800D01*
X147269200Y-116967000D02*
X147255000Y-116981200D01*
X124434600Y-105968800D02*
X133654800Y-105968800D01*
X122685400Y-110732600D02*
X122685400Y-107718000D01*
X144170400Y-113868200D02*
X147269200Y-116967000D01*
X133654800Y-105968800D02*
X136753600Y-109067600D01*
X136753600Y-109067600D02*
X136753600Y-110515400D01*
X136753600Y-110515400D02*
X140106400Y-113868200D01*
X122685400Y-112482600D02*
X122685400Y-132540600D01*
X122685400Y-132540600D02*
X122961400Y-132816600D01*
X122961400Y-132816600D02*
X122709599Y-132463199D01*
X129235200Y-139090400D02*
X122961400Y-132816600D01*
X146050000Y-139090400D02*
X129235200Y-139090400D01*
X152335000Y-129505000D02*
X152335000Y-132805400D01*
X152335000Y-132805400D02*
X146050000Y-139090400D01*
X123085400Y-108156200D02*
X123085400Y-110241600D01*
X124841000Y-106400600D02*
X123085400Y-108156200D01*
X133146800Y-106400600D02*
X124841000Y-106400600D01*
X135966200Y-109220000D02*
X133146800Y-106400600D01*
X135966200Y-111912400D02*
X135966200Y-109220000D01*
X144715000Y-119343400D02*
X144627600Y-119256000D01*
X144715000Y-119345000D02*
X144715000Y-119343400D01*
X144627600Y-119256000D02*
X144627600Y-116713000D01*
X144627600Y-116713000D02*
X142900400Y-114985800D01*
X142900400Y-114985800D02*
X139039600Y-114985800D01*
X123085400Y-110241600D02*
X123085400Y-110732600D01*
X139039600Y-114985800D02*
X135966200Y-111912400D01*
X123085400Y-112482600D02*
X123085400Y-131416600D01*
X123085400Y-131416600D02*
X123418600Y-131749800D01*
X123418600Y-131749800D02*
X123141590Y-131498190D01*
X145059400Y-137591800D02*
X129260600Y-137591800D01*
X129260600Y-137591800D02*
X123418600Y-131749800D01*
X149795000Y-129505000D02*
X149795000Y-132805400D01*
X149555200Y-133045200D02*
X145059400Y-137591800D01*
X149795000Y-132805400D02*
X149555200Y-133045200D01*
X141071600Y-115900200D02*
X142175000Y-117003600D01*
X123485400Y-108518200D02*
X125145800Y-106857800D01*
X125145800Y-106857800D02*
X132715000Y-106857800D01*
X135458200Y-112877600D02*
X138480800Y-115900200D01*
X123485400Y-110732600D02*
X123485400Y-108518200D01*
X142175000Y-117003600D02*
X142175000Y-119345000D01*
X132715000Y-106857800D02*
X135458200Y-109601000D01*
X138480800Y-115900200D02*
X141071600Y-115900200D01*
X135458200Y-109601000D02*
X135458200Y-112877600D01*
X123485400Y-112973600D02*
X123485400Y-112482600D01*
X123485400Y-129429000D02*
X123485400Y-112973600D01*
X143738600Y-136118600D02*
X130175000Y-136118600D01*
X130175000Y-136118600D02*
X123485400Y-129429000D01*
X147255000Y-132602200D02*
X147255000Y-129505000D01*
X147129500Y-132727700D02*
X147255000Y-132602200D01*
X147129500Y-132727700D02*
X143738600Y-136118600D01*
X147193000Y-132664200D02*
X147129500Y-132727700D01*
X124285400Y-108480200D02*
X124285400Y-110732600D01*
X125476000Y-107289600D02*
X124285400Y-108480200D01*
X132384800Y-107289600D02*
X125476000Y-107289600D01*
X139635000Y-119345000D02*
X139635000Y-118142919D01*
X134747000Y-114452400D02*
X134747000Y-109651800D01*
X139635000Y-118142919D02*
X137951081Y-116459000D01*
X137951081Y-116459000D02*
X136753600Y-116459000D01*
X136753600Y-116459000D02*
X134747000Y-114452400D01*
X134747000Y-109651800D02*
X132384800Y-107289600D01*
X144715000Y-130707081D02*
X140954481Y-134467600D01*
X144715000Y-129505000D02*
X144715000Y-130707081D01*
X140954481Y-134467600D02*
X130810000Y-134467600D01*
X124285400Y-112973600D02*
X124285400Y-112482600D01*
X130810000Y-134467600D02*
X124285400Y-127943000D01*
X124285400Y-127943000D02*
X124285400Y-112973600D01*
X124685400Y-108969200D02*
X124685400Y-110732600D01*
X135892919Y-119345000D02*
X133985000Y-117437081D01*
X137095000Y-119345000D02*
X135892919Y-119345000D01*
X133985000Y-117437081D02*
X133985000Y-109728000D01*
X132029200Y-107772200D02*
X125882400Y-107772200D01*
X133985000Y-109728000D02*
X132029200Y-107772200D01*
X125882400Y-107772200D02*
X124685400Y-108969200D01*
X142175000Y-130707081D02*
X139836881Y-133045200D01*
X139836881Y-133045200D02*
X131927600Y-133045200D01*
X142175000Y-129505000D02*
X142175000Y-130707081D01*
X124685400Y-125777600D02*
X125298200Y-126390400D01*
X131927600Y-133045200D02*
X125298200Y-126390400D01*
X124685400Y-112482600D02*
X124685400Y-125777600D01*
X125298200Y-126390400D02*
X124764800Y-125882400D01*
D20*
X136970000Y-121760000D02*
X137095000Y-121885000D01*
D21*
X125085400Y-110732600D02*
X125085400Y-112482600D01*
X134559600Y-121885000D02*
X133248400Y-120573800D01*
X137095000Y-121885000D02*
X134559600Y-121885000D01*
X133248400Y-120573800D02*
X133248400Y-109855000D01*
X133248400Y-109855000D02*
X131597400Y-108204000D01*
X131597400Y-108204000D02*
X126060200Y-108204000D01*
X125085400Y-109178800D02*
X125085400Y-110732600D01*
X126060200Y-108204000D02*
X125085400Y-109178800D01*
D22*
X139635000Y-130240000D02*
X139635000Y-129505000D01*
D21*
X139635000Y-129505000D02*
X139635000Y-131786400D01*
X139635000Y-131786400D02*
X139189000Y-132232400D01*
X139189000Y-132232400D02*
X132867400Y-132232400D01*
X125885400Y-125250400D02*
X125885400Y-112482600D01*
X132867400Y-132232400D02*
X125885400Y-125250400D01*
X127485400Y-110893600D02*
X127485400Y-112482600D01*
X127485400Y-110732600D02*
X127485400Y-110893600D01*
X127485400Y-110732600D02*
X127485400Y-109191800D01*
X128041400Y-108635800D02*
X131064000Y-108635800D01*
X131064000Y-108635800D02*
X132334000Y-109905800D01*
X132334000Y-109905800D02*
X132334000Y-123342400D01*
X133416600Y-124425000D02*
X137095000Y-124425000D01*
X127485400Y-109191800D02*
X128041400Y-108635800D01*
X132334000Y-123342400D02*
X133416600Y-124425000D01*
X128285400Y-110732600D02*
X128285400Y-110779400D01*
D23*
X128285400Y-110732600D02*
X128285400Y-110830200D01*
D24*
X128285400Y-110732600D02*
X128285400Y-110906400D01*
D21*
X128285400Y-111223600D02*
X128285400Y-112482600D01*
X128285400Y-110732600D02*
X128285400Y-111223600D01*
X133010200Y-129505000D02*
X137095000Y-129505000D01*
X128285400Y-110732600D02*
X128285400Y-109839600D01*
X128422400Y-109702600D02*
X130124200Y-109702600D01*
X128285400Y-109839600D02*
X128422400Y-109702600D01*
X130124200Y-109702600D02*
X130708400Y-110286800D01*
X130708400Y-110286800D02*
X130708400Y-127203200D01*
X130708400Y-127203200D02*
X133010200Y-129505000D01*
D25*
G36*
X131484956Y-100943466D02*
G01*
X131451183Y-100971183D01*
X131340589Y-101105942D01*
X131258411Y-101259688D01*
X131207805Y-101426511D01*
X131202347Y-101481928D01*
X130780000Y-101481928D01*
X130755550Y-101484336D01*
X130730991Y-101484336D01*
X130606510Y-101496596D01*
X130510377Y-101515718D01*
X130390681Y-101552027D01*
X130300125Y-101589536D01*
X130189808Y-101648502D01*
X130108309Y-101702958D01*
X130011618Y-101782310D01*
X129942310Y-101851618D01*
X129862958Y-101948309D01*
X129838442Y-101985000D01*
X116478465Y-101985000D01*
X116434999Y-101980719D01*
X116391533Y-101985000D01*
X116391523Y-101985000D01*
X116261510Y-101997805D01*
X116094687Y-102048411D01*
X115940941Y-102130589D01*
X115911452Y-102154790D01*
X115839953Y-102213468D01*
X115839951Y-102213470D01*
X115806183Y-102241183D01*
X115778470Y-102274951D01*
X114925000Y-103128421D01*
X114925000Y-102897449D01*
X114849870Y-102519748D01*
X114702498Y-102163960D01*
X114488547Y-101843760D01*
X114216240Y-101571453D01*
X113896040Y-101357502D01*
X113540252Y-101210130D01*
X113162551Y-101135000D01*
X112777449Y-101135000D01*
X112399748Y-101210130D01*
X112043960Y-101357502D01*
X111723760Y-101571453D01*
X111451453Y-101843760D01*
X111237502Y-102163960D01*
X111090130Y-102519748D01*
X111015000Y-102897449D01*
X111015000Y-103282551D01*
X111090130Y-103660252D01*
X111237502Y-104016040D01*
X111451453Y-104336240D01*
X111723760Y-104608547D01*
X112043960Y-104822498D01*
X112399748Y-104969870D01*
X112777449Y-105045000D01*
X113008421Y-105045000D01*
X110566525Y-107486897D01*
X110381033Y-107450000D01*
X110058967Y-107450000D01*
X109743088Y-107512832D01*
X109445537Y-107636082D01*
X109177748Y-107815013D01*
X108950013Y-108042748D01*
X108771082Y-108310537D01*
X108647832Y-108608088D01*
X108585000Y-108923967D01*
X108585000Y-109246033D01*
X108647832Y-109561912D01*
X108771082Y-109859463D01*
X108950013Y-110127252D01*
X109177748Y-110354987D01*
X109445537Y-110533918D01*
X109743088Y-110657168D01*
X110058967Y-110720000D01*
X110381033Y-110720000D01*
X110696912Y-110657168D01*
X110994463Y-110533918D01*
X111262252Y-110354987D01*
X111489987Y-110127252D01*
X111668918Y-109859463D01*
X111792168Y-109561912D01*
X111855000Y-109246033D01*
X111855000Y-108923967D01*
X111818103Y-108738475D01*
X116801579Y-103755000D01*
X123117532Y-103755000D01*
X123040904Y-103778245D01*
X122916171Y-103844916D01*
X122806841Y-103934641D01*
X122784356Y-103962039D01*
X120602640Y-106143756D01*
X120575241Y-106166242D01*
X120485516Y-106275572D01*
X120418845Y-106400305D01*
X120377789Y-106535648D01*
X120367400Y-106641129D01*
X120367400Y-106641138D01*
X120363927Y-106676400D01*
X120367400Y-106711662D01*
X120367401Y-109805919D01*
X120306303Y-109826748D01*
X120198059Y-109889432D01*
X120104124Y-109972029D01*
X120028107Y-110071364D01*
X119994603Y-110139528D01*
X119655400Y-110139528D01*
X119530918Y-110151788D01*
X119411220Y-110188098D01*
X119300906Y-110247063D01*
X119204215Y-110326415D01*
X119124863Y-110423106D01*
X119065898Y-110533420D01*
X119029588Y-110653118D01*
X119017328Y-110777600D01*
X119017328Y-111307600D01*
X119029588Y-111432082D01*
X119065898Y-111551780D01*
X119095735Y-111607600D01*
X119065898Y-111663420D01*
X119029588Y-111783118D01*
X119017328Y-111907600D01*
X119017328Y-112437600D01*
X119029588Y-112562082D01*
X119065898Y-112681780D01*
X119124863Y-112792094D01*
X119204215Y-112888785D01*
X119300906Y-112968137D01*
X119411220Y-113027102D01*
X119530918Y-113063412D01*
X119655400Y-113075672D01*
X119994603Y-113075672D01*
X120028107Y-113143836D01*
X120104124Y-113243171D01*
X120198059Y-113325768D01*
X120306303Y-113388452D01*
X120367400Y-113409280D01*
X120367401Y-138931728D01*
X120363927Y-138967000D01*
X120367401Y-139002272D01*
X120377790Y-139107753D01*
X120418846Y-139243096D01*
X120485517Y-139367829D01*
X120575242Y-139477159D01*
X120602640Y-139499644D01*
X125451360Y-144348366D01*
X125473841Y-144375759D01*
X125501233Y-144398239D01*
X125501238Y-144398244D01*
X125583171Y-144465484D01*
X125707904Y-144532155D01*
X125843247Y-144573211D01*
X125984000Y-144587074D01*
X126019272Y-144583600D01*
X150181279Y-144583600D01*
X150217493Y-144587071D01*
X150286765Y-144580065D01*
X150356353Y-144573211D01*
X150357264Y-144572935D01*
X150358209Y-144572839D01*
X150424655Y-144552492D01*
X150491696Y-144532155D01*
X150492540Y-144531704D01*
X150493444Y-144531427D01*
X150554554Y-144498557D01*
X150616429Y-144465484D01*
X150617168Y-144464878D01*
X150618002Y-144464429D01*
X150671542Y-144420254D01*
X150725759Y-144375759D01*
X150748850Y-144347623D01*
X157267167Y-137795000D01*
X160400719Y-137795000D01*
X160405001Y-137838478D01*
X160405000Y-138871530D01*
X160400719Y-138915000D01*
X160405000Y-138958469D01*
X160405000Y-138958476D01*
X160414502Y-139054956D01*
X160417805Y-139088490D01*
X160423649Y-139107753D01*
X160468411Y-139255312D01*
X160550589Y-139409058D01*
X160661183Y-139543817D01*
X160691803Y-139568946D01*
X160655000Y-139753967D01*
X160655000Y-140076033D01*
X160717832Y-140391912D01*
X160841082Y-140689463D01*
X161020013Y-140957252D01*
X161247748Y-141184987D01*
X161515537Y-141363918D01*
X161813088Y-141487168D01*
X162128967Y-141550000D01*
X162451033Y-141550000D01*
X162766912Y-141487168D01*
X163064463Y-141363918D01*
X163332252Y-141184987D01*
X163559987Y-140957252D01*
X163738918Y-140689463D01*
X163862168Y-140391912D01*
X163925000Y-140076033D01*
X163925000Y-139753967D01*
X163862168Y-139438088D01*
X163738918Y-139140537D01*
X163559987Y-138872748D01*
X163332252Y-138645013D01*
X163064463Y-138466082D01*
X162766912Y-138342832D01*
X162451033Y-138280000D01*
X162175000Y-138280000D01*
X162175000Y-138161578D01*
X162805044Y-137531535D01*
X162861898Y-137520226D01*
X163050256Y-137442205D01*
X163219774Y-137328937D01*
X163363937Y-137184774D01*
X163477205Y-137015256D01*
X163555226Y-136826898D01*
X163595000Y-136626939D01*
X163595000Y-136423061D01*
X163555226Y-136223102D01*
X163477205Y-136034744D01*
X163363937Y-135865226D01*
X163219774Y-135721063D01*
X163050256Y-135607795D01*
X162861898Y-135529774D01*
X162661939Y-135490000D01*
X162458061Y-135490000D01*
X162258102Y-135529774D01*
X162069744Y-135607795D01*
X161900226Y-135721063D01*
X161756063Y-135865226D01*
X161642795Y-136034744D01*
X161564774Y-136223102D01*
X161553465Y-136279956D01*
X160694951Y-137138471D01*
X160661184Y-137166183D01*
X160633471Y-137199951D01*
X160633468Y-137199954D01*
X160550590Y-137300941D01*
X160468412Y-137454687D01*
X160417805Y-137621510D01*
X160400719Y-137795000D01*
X157267167Y-137795000D01*
X160376237Y-134669567D01*
X160437755Y-134608049D01*
X160465159Y-134585559D01*
X160554884Y-134476229D01*
X160621555Y-134351496D01*
X160662611Y-134216153D01*
X160673000Y-134110672D01*
X160673000Y-134110663D01*
X160676473Y-134075401D01*
X160673000Y-134040139D01*
X160673000Y-130811242D01*
X160901632Y-130658475D01*
X161108475Y-130451632D01*
X161225000Y-130277240D01*
X161341525Y-130451632D01*
X161548368Y-130658475D01*
X161791589Y-130820990D01*
X162061842Y-130932932D01*
X162348740Y-130990000D01*
X162641260Y-130990000D01*
X162928158Y-130932932D01*
X163198411Y-130820990D01*
X163441632Y-130658475D01*
X163648475Y-130451632D01*
X163810990Y-130208411D01*
X163922932Y-129938158D01*
X163980000Y-129651260D01*
X163980000Y-129358740D01*
X163922932Y-129071842D01*
X163857644Y-128914222D01*
X164215001Y-129271580D01*
X164215000Y-138386531D01*
X164210719Y-138430000D01*
X164215000Y-138473469D01*
X164215000Y-138473476D01*
X164224130Y-138566171D01*
X164227805Y-138603490D01*
X164240401Y-138645013D01*
X164278411Y-138770312D01*
X164360589Y-138924058D01*
X164471183Y-139058817D01*
X164504956Y-139086534D01*
X166348470Y-140930049D01*
X166376183Y-140963817D01*
X166409951Y-140991530D01*
X166409953Y-140991532D01*
X166510941Y-141074411D01*
X166664687Y-141156589D01*
X166831510Y-141207195D01*
X166961523Y-141220000D01*
X166961531Y-141220000D01*
X167005000Y-141224281D01*
X167048469Y-141220000D01*
X168071928Y-141220000D01*
X168071928Y-141535000D01*
X168084188Y-141659482D01*
X168120498Y-141779180D01*
X168179463Y-141889494D01*
X168258815Y-141986185D01*
X168355506Y-142065537D01*
X168444302Y-142113000D01*
X167640000Y-142113000D01*
X167615224Y-142115440D01*
X167591399Y-142122667D01*
X167569443Y-142134403D01*
X167550197Y-142150197D01*
X167534403Y-142169443D01*
X167522667Y-142191399D01*
X167515440Y-142215224D01*
X167513000Y-142240000D01*
X167513000Y-148340000D01*
X107670600Y-148340000D01*
X107670600Y-144289721D01*
X110365000Y-144289721D01*
X110365000Y-144710279D01*
X110447047Y-145122756D01*
X110607988Y-145511302D01*
X110841637Y-145860983D01*
X111139017Y-146158363D01*
X111488698Y-146392012D01*
X111877244Y-146552953D01*
X112289721Y-146635000D01*
X112710279Y-146635000D01*
X113122756Y-146552953D01*
X113511302Y-146392012D01*
X113860983Y-146158363D01*
X114158363Y-145860983D01*
X114254269Y-145717449D01*
X157585000Y-145717449D01*
X157585000Y-146102551D01*
X157660130Y-146480252D01*
X157807502Y-146836040D01*
X158021453Y-147156240D01*
X158293760Y-147428547D01*
X158613960Y-147642498D01*
X158969748Y-147789870D01*
X159347449Y-147865000D01*
X159732551Y-147865000D01*
X160110252Y-147789870D01*
X160466040Y-147642498D01*
X160786240Y-147428547D01*
X161058547Y-147156240D01*
X161272498Y-146836040D01*
X161419870Y-146480252D01*
X161495000Y-146102551D01*
X161495000Y-145717449D01*
X161419870Y-145339748D01*
X161272498Y-144983960D01*
X161058547Y-144663760D01*
X160786240Y-144391453D01*
X160466040Y-144177502D01*
X160110252Y-144030130D01*
X159732551Y-143955000D01*
X159347449Y-143955000D01*
X158969748Y-144030130D01*
X158613960Y-144177502D01*
X158293760Y-144391453D01*
X158021453Y-144663760D01*
X157807502Y-144983960D01*
X157660130Y-145339748D01*
X157585000Y-145717449D01*
X114254269Y-145717449D01*
X114392012Y-145511302D01*
X114552953Y-145122756D01*
X114635000Y-144710279D01*
X114635000Y-144289721D01*
X114552953Y-143877244D01*
X114392012Y-143488698D01*
X114158363Y-143139017D01*
X113860983Y-142841637D01*
X113511302Y-142607988D01*
X113122756Y-142447047D01*
X112710279Y-142365000D01*
X112289721Y-142365000D01*
X111877244Y-142447047D01*
X111488698Y-142607988D01*
X111139017Y-142841637D01*
X110841637Y-143139017D01*
X110607988Y-143488698D01*
X110447047Y-143877244D01*
X110365000Y-144289721D01*
X107670600Y-144289721D01*
X107670600Y-142214600D01*
X107668160Y-142189824D01*
X107660933Y-142165999D01*
X107649197Y-142144043D01*
X107633403Y-142124797D01*
X107614157Y-142109003D01*
X107592201Y-142097267D01*
X107568376Y-142090040D01*
X107543600Y-142087600D01*
X101792935Y-142087600D01*
X101170898Y-141938262D01*
X101068607Y-141922061D01*
X100660000Y-141889903D01*
X100660000Y-141050413D01*
X109344192Y-141050413D01*
X109439956Y-141314814D01*
X109729571Y-141455704D01*
X110041108Y-141537384D01*
X110362595Y-141556718D01*
X110681675Y-141512961D01*
X110986088Y-141407795D01*
X111160044Y-141314814D01*
X111255808Y-141050413D01*
X110300000Y-140094605D01*
X109344192Y-141050413D01*
X100660000Y-141050413D01*
X100660000Y-139977595D01*
X108658282Y-139977595D01*
X108702039Y-140296675D01*
X108807205Y-140601088D01*
X108900186Y-140775044D01*
X109164587Y-140870808D01*
X110120395Y-139915000D01*
X110479605Y-139915000D01*
X111435413Y-140870808D01*
X111699814Y-140775044D01*
X111840704Y-140485429D01*
X111922384Y-140173892D01*
X111941718Y-139852405D01*
X111897961Y-139533325D01*
X111792795Y-139228912D01*
X111699814Y-139054956D01*
X111435413Y-138959192D01*
X110479605Y-139915000D01*
X110120395Y-139915000D01*
X109164587Y-138959192D01*
X108900186Y-139054956D01*
X108759296Y-139344571D01*
X108677616Y-139656108D01*
X108658282Y-139977595D01*
X100660000Y-139977595D01*
X100660000Y-138779587D01*
X109344192Y-138779587D01*
X110300000Y-139735395D01*
X111255808Y-138779587D01*
X111160044Y-138515186D01*
X110870429Y-138374296D01*
X110558892Y-138292616D01*
X110237405Y-138273282D01*
X109918325Y-138317039D01*
X109613912Y-138422205D01*
X109439956Y-138515186D01*
X109344192Y-138779587D01*
X100660000Y-138779587D01*
X100660000Y-133727449D01*
X111105000Y-133727449D01*
X111105000Y-134112551D01*
X111180130Y-134490252D01*
X111327502Y-134846040D01*
X111541453Y-135166240D01*
X111813760Y-135438547D01*
X112133960Y-135652498D01*
X112489748Y-135799870D01*
X112867449Y-135875000D01*
X113252551Y-135875000D01*
X113630252Y-135799870D01*
X113986040Y-135652498D01*
X114306240Y-135438547D01*
X114578547Y-135166240D01*
X114792498Y-134846040D01*
X114939870Y-134490252D01*
X115015000Y-134112551D01*
X115015000Y-133727449D01*
X114939870Y-133349748D01*
X114792498Y-132993960D01*
X114578547Y-132673760D01*
X114306240Y-132401453D01*
X113986040Y-132187502D01*
X113630252Y-132040130D01*
X113252551Y-131965000D01*
X112867449Y-131965000D01*
X112489748Y-132040130D01*
X112133960Y-132187502D01*
X111813760Y-132401453D01*
X111541453Y-132673760D01*
X111327502Y-132993960D01*
X111180130Y-133349748D01*
X111105000Y-133727449D01*
X100660000Y-133727449D01*
X100660000Y-124289721D01*
X103365000Y-124289721D01*
X103365000Y-124710279D01*
X103447047Y-125122756D01*
X103607988Y-125511302D01*
X103841637Y-125860983D01*
X104139017Y-126158363D01*
X104488698Y-126392012D01*
X104877244Y-126552953D01*
X105289721Y-126635000D01*
X105710279Y-126635000D01*
X106122756Y-126552953D01*
X106511302Y-126392012D01*
X106860983Y-126158363D01*
X107158363Y-125860983D01*
X107392012Y-125511302D01*
X107552953Y-125122756D01*
X107635000Y-124710279D01*
X107635000Y-124289721D01*
X107552953Y-123877244D01*
X107392012Y-123488698D01*
X107158363Y-123139017D01*
X106860983Y-122841637D01*
X106511302Y-122607988D01*
X106122756Y-122447047D01*
X105710279Y-122365000D01*
X105289721Y-122365000D01*
X104877244Y-122447047D01*
X104488698Y-122607988D01*
X104139017Y-122841637D01*
X103841637Y-123139017D01*
X103607988Y-123488698D01*
X103447047Y-123877244D01*
X103365000Y-124289721D01*
X100660000Y-124289721D01*
X100660000Y-107110097D01*
X101068607Y-107077939D01*
X101170898Y-107061738D01*
X101370467Y-107013826D01*
X107466946Y-107035599D01*
X107491731Y-107033247D01*
X107515581Y-107026106D01*
X107537580Y-107014448D01*
X107556881Y-106998723D01*
X107572744Y-106979534D01*
X107584558Y-106957620D01*
X107591870Y-106933821D01*
X107594400Y-106908600D01*
X107594400Y-100660000D01*
X131768422Y-100660000D01*
X131484956Y-100943466D01*
G37*
X131484956Y-100943466D02*
X131451183Y-100971183D01*
X131340589Y-101105942D01*
X131258411Y-101259688D01*
X131207805Y-101426511D01*
X131202347Y-101481928D01*
X130780000Y-101481928D01*
X130755550Y-101484336D01*
X130730991Y-101484336D01*
X130606510Y-101496596D01*
X130510377Y-101515718D01*
X130390681Y-101552027D01*
X130300125Y-101589536D01*
X130189808Y-101648502D01*
X130108309Y-101702958D01*
X130011618Y-101782310D01*
X129942310Y-101851618D01*
X129862958Y-101948309D01*
X129838442Y-101985000D01*
X116478465Y-101985000D01*
X116434999Y-101980719D01*
X116391533Y-101985000D01*
X116391523Y-101985000D01*
X116261510Y-101997805D01*
X116094687Y-102048411D01*
X115940941Y-102130589D01*
X115911452Y-102154790D01*
X115839953Y-102213468D01*
X115839951Y-102213470D01*
X115806183Y-102241183D01*
X115778470Y-102274951D01*
X114925000Y-103128421D01*
X114925000Y-102897449D01*
X114849870Y-102519748D01*
X114702498Y-102163960D01*
X114488547Y-101843760D01*
X114216240Y-101571453D01*
X113896040Y-101357502D01*
X113540252Y-101210130D01*
X113162551Y-101135000D01*
X112777449Y-101135000D01*
X112399748Y-101210130D01*
X112043960Y-101357502D01*
X111723760Y-101571453D01*
X111451453Y-101843760D01*
X111237502Y-102163960D01*
X111090130Y-102519748D01*
X111015000Y-102897449D01*
X111015000Y-103282551D01*
X111090130Y-103660252D01*
X111237502Y-104016040D01*
X111451453Y-104336240D01*
X111723760Y-104608547D01*
X112043960Y-104822498D01*
X112399748Y-104969870D01*
X112777449Y-105045000D01*
X113008421Y-105045000D01*
X110566525Y-107486897D01*
X110381033Y-107450000D01*
X110058967Y-107450000D01*
X109743088Y-107512832D01*
X109445537Y-107636082D01*
X109177748Y-107815013D01*
X108950013Y-108042748D01*
X108771082Y-108310537D01*
X108647832Y-108608088D01*
X108585000Y-108923967D01*
X108585000Y-109246033D01*
X108647832Y-109561912D01*
X108771082Y-109859463D01*
X108950013Y-110127252D01*
X109177748Y-110354987D01*
X109445537Y-110533918D01*
X109743088Y-110657168D01*
X110058967Y-110720000D01*
X110381033Y-110720000D01*
X110696912Y-110657168D01*
X110994463Y-110533918D01*
X111262252Y-110354987D01*
X111489987Y-110127252D01*
X111668918Y-109859463D01*
X111792168Y-109561912D01*
X111855000Y-109246033D01*
X111855000Y-108923967D01*
X111818103Y-108738475D01*
X116801579Y-103755000D01*
X123117532Y-103755000D01*
X123040904Y-103778245D01*
X122916171Y-103844916D01*
X122806841Y-103934641D01*
X122784356Y-103962039D01*
X120602640Y-106143756D01*
X120575241Y-106166242D01*
X120485516Y-106275572D01*
X120418845Y-106400305D01*
X120377789Y-106535648D01*
X120367400Y-106641129D01*
X120367400Y-106641138D01*
X120363927Y-106676400D01*
X120367400Y-106711662D01*
X120367401Y-109805919D01*
X120306303Y-109826748D01*
X120198059Y-109889432D01*
X120104124Y-109972029D01*
X120028107Y-110071364D01*
X119994603Y-110139528D01*
X119655400Y-110139528D01*
X119530918Y-110151788D01*
X119411220Y-110188098D01*
X119300906Y-110247063D01*
X119204215Y-110326415D01*
X119124863Y-110423106D01*
X119065898Y-110533420D01*
X119029588Y-110653118D01*
X119017328Y-110777600D01*
X119017328Y-111307600D01*
X119029588Y-111432082D01*
X119065898Y-111551780D01*
X119095735Y-111607600D01*
X119065898Y-111663420D01*
X119029588Y-111783118D01*
X119017328Y-111907600D01*
X119017328Y-112437600D01*
X119029588Y-112562082D01*
X119065898Y-112681780D01*
X119124863Y-112792094D01*
X119204215Y-112888785D01*
X119300906Y-112968137D01*
X119411220Y-113027102D01*
X119530918Y-113063412D01*
X119655400Y-113075672D01*
X119994603Y-113075672D01*
X120028107Y-113143836D01*
X120104124Y-113243171D01*
X120198059Y-113325768D01*
X120306303Y-113388452D01*
X120367400Y-113409280D01*
X120367401Y-138931728D01*
X120363927Y-138967000D01*
X120367401Y-139002272D01*
X120377790Y-139107753D01*
X120418846Y-139243096D01*
X120485517Y-139367829D01*
X120575242Y-139477159D01*
X120602640Y-139499644D01*
X125451360Y-144348366D01*
X125473841Y-144375759D01*
X125501233Y-144398239D01*
X125501238Y-144398244D01*
X125583171Y-144465484D01*
X125707904Y-144532155D01*
X125843247Y-144573211D01*
X125984000Y-144587074D01*
X126019272Y-144583600D01*
X150181279Y-144583600D01*
X150217493Y-144587071D01*
X150286765Y-144580065D01*
X150356353Y-144573211D01*
X150357264Y-144572935D01*
X150358209Y-144572839D01*
X150424655Y-144552492D01*
X150491696Y-144532155D01*
X150492540Y-144531704D01*
X150493444Y-144531427D01*
X150554554Y-144498557D01*
X150616429Y-144465484D01*
X150617168Y-144464878D01*
X150618002Y-144464429D01*
X150671542Y-144420254D01*
X150725759Y-144375759D01*
X150748850Y-144347623D01*
X157267167Y-137795000D01*
X160400719Y-137795000D01*
X160405001Y-137838478D01*
X160405000Y-138871530D01*
X160400719Y-138915000D01*
X160405000Y-138958469D01*
X160405000Y-138958476D01*
X160414502Y-139054956D01*
X160417805Y-139088490D01*
X160423649Y-139107753D01*
X160468411Y-139255312D01*
X160550589Y-139409058D01*
X160661183Y-139543817D01*
X160691803Y-139568946D01*
X160655000Y-139753967D01*
X160655000Y-140076033D01*
X160717832Y-140391912D01*
X160841082Y-140689463D01*
X161020013Y-140957252D01*
X161247748Y-141184987D01*
X161515537Y-141363918D01*
X161813088Y-141487168D01*
X162128967Y-141550000D01*
X162451033Y-141550000D01*
X162766912Y-141487168D01*
X163064463Y-141363918D01*
X163332252Y-141184987D01*
X163559987Y-140957252D01*
X163738918Y-140689463D01*
X163862168Y-140391912D01*
X163925000Y-140076033D01*
X163925000Y-139753967D01*
X163862168Y-139438088D01*
X163738918Y-139140537D01*
X163559987Y-138872748D01*
X163332252Y-138645013D01*
X163064463Y-138466082D01*
X162766912Y-138342832D01*
X162451033Y-138280000D01*
X162175000Y-138280000D01*
X162175000Y-138161578D01*
X162805044Y-137531535D01*
X162861898Y-137520226D01*
X163050256Y-137442205D01*
X163219774Y-137328937D01*
X163363937Y-137184774D01*
X163477205Y-137015256D01*
X163555226Y-136826898D01*
X163595000Y-136626939D01*
X163595000Y-136423061D01*
X163555226Y-136223102D01*
X163477205Y-136034744D01*
X163363937Y-135865226D01*
X163219774Y-135721063D01*
X163050256Y-135607795D01*
X162861898Y-135529774D01*
X162661939Y-135490000D01*
X162458061Y-135490000D01*
X162258102Y-135529774D01*
X162069744Y-135607795D01*
X161900226Y-135721063D01*
X161756063Y-135865226D01*
X161642795Y-136034744D01*
X161564774Y-136223102D01*
X161553465Y-136279956D01*
X160694951Y-137138471D01*
X160661184Y-137166183D01*
X160633471Y-137199951D01*
X160633468Y-137199954D01*
X160550590Y-137300941D01*
X160468412Y-137454687D01*
X160417805Y-137621510D01*
X160400719Y-137795000D01*
X157267167Y-137795000D01*
X160376237Y-134669567D01*
X160437755Y-134608049D01*
X160465159Y-134585559D01*
X160554884Y-134476229D01*
X160621555Y-134351496D01*
X160662611Y-134216153D01*
X160673000Y-134110672D01*
X160673000Y-134110663D01*
X160676473Y-134075401D01*
X160673000Y-134040139D01*
X160673000Y-130811242D01*
X160901632Y-130658475D01*
X161108475Y-130451632D01*
X161225000Y-130277240D01*
X161341525Y-130451632D01*
X161548368Y-130658475D01*
X161791589Y-130820990D01*
X162061842Y-130932932D01*
X162348740Y-130990000D01*
X162641260Y-130990000D01*
X162928158Y-130932932D01*
X163198411Y-130820990D01*
X163441632Y-130658475D01*
X163648475Y-130451632D01*
X163810990Y-130208411D01*
X163922932Y-129938158D01*
X163980000Y-129651260D01*
X163980000Y-129358740D01*
X163922932Y-129071842D01*
X163857644Y-128914222D01*
X164215001Y-129271580D01*
X164215000Y-138386531D01*
X164210719Y-138430000D01*
X164215000Y-138473469D01*
X164215000Y-138473476D01*
X164224130Y-138566171D01*
X164227805Y-138603490D01*
X164240401Y-138645013D01*
X164278411Y-138770312D01*
X164360589Y-138924058D01*
X164471183Y-139058817D01*
X164504956Y-139086534D01*
X166348470Y-140930049D01*
X166376183Y-140963817D01*
X166409951Y-140991530D01*
X166409953Y-140991532D01*
X166510941Y-141074411D01*
X166664687Y-141156589D01*
X166831510Y-141207195D01*
X166961523Y-141220000D01*
X166961531Y-141220000D01*
X167005000Y-141224281D01*
X167048469Y-141220000D01*
X168071928Y-141220000D01*
X168071928Y-141535000D01*
X168084188Y-141659482D01*
X168120498Y-141779180D01*
X168179463Y-141889494D01*
X168258815Y-141986185D01*
X168355506Y-142065537D01*
X168444302Y-142113000D01*
X167640000Y-142113000D01*
X167615224Y-142115440D01*
X167591399Y-142122667D01*
X167569443Y-142134403D01*
X167550197Y-142150197D01*
X167534403Y-142169443D01*
X167522667Y-142191399D01*
X167515440Y-142215224D01*
X167513000Y-142240000D01*
X167513000Y-148340000D01*
X107670600Y-148340000D01*
X107670600Y-144289721D01*
X110365000Y-144289721D01*
X110365000Y-144710279D01*
X110447047Y-145122756D01*
X110607988Y-145511302D01*
X110841637Y-145860983D01*
X111139017Y-146158363D01*
X111488698Y-146392012D01*
X111877244Y-146552953D01*
X112289721Y-146635000D01*
X112710279Y-146635000D01*
X113122756Y-146552953D01*
X113511302Y-146392012D01*
X113860983Y-146158363D01*
X114158363Y-145860983D01*
X114254269Y-145717449D01*
X157585000Y-145717449D01*
X157585000Y-146102551D01*
X157660130Y-146480252D01*
X157807502Y-146836040D01*
X158021453Y-147156240D01*
X158293760Y-147428547D01*
X158613960Y-147642498D01*
X158969748Y-147789870D01*
X159347449Y-147865000D01*
X159732551Y-147865000D01*
X160110252Y-147789870D01*
X160466040Y-147642498D01*
X160786240Y-147428547D01*
X161058547Y-147156240D01*
X161272498Y-146836040D01*
X161419870Y-146480252D01*
X161495000Y-146102551D01*
X161495000Y-145717449D01*
X161419870Y-145339748D01*
X161272498Y-144983960D01*
X161058547Y-144663760D01*
X160786240Y-144391453D01*
X160466040Y-144177502D01*
X160110252Y-144030130D01*
X159732551Y-143955000D01*
X159347449Y-143955000D01*
X158969748Y-144030130D01*
X158613960Y-144177502D01*
X158293760Y-144391453D01*
X158021453Y-144663760D01*
X157807502Y-144983960D01*
X157660130Y-145339748D01*
X157585000Y-145717449D01*
X114254269Y-145717449D01*
X114392012Y-145511302D01*
X114552953Y-145122756D01*
X114635000Y-144710279D01*
X114635000Y-144289721D01*
X114552953Y-143877244D01*
X114392012Y-143488698D01*
X114158363Y-143139017D01*
X113860983Y-142841637D01*
X113511302Y-142607988D01*
X113122756Y-142447047D01*
X112710279Y-142365000D01*
X112289721Y-142365000D01*
X111877244Y-142447047D01*
X111488698Y-142607988D01*
X111139017Y-142841637D01*
X110841637Y-143139017D01*
X110607988Y-143488698D01*
X110447047Y-143877244D01*
X110365000Y-144289721D01*
X107670600Y-144289721D01*
X107670600Y-142214600D01*
X107668160Y-142189824D01*
X107660933Y-142165999D01*
X107649197Y-142144043D01*
X107633403Y-142124797D01*
X107614157Y-142109003D01*
X107592201Y-142097267D01*
X107568376Y-142090040D01*
X107543600Y-142087600D01*
X101792935Y-142087600D01*
X101170898Y-141938262D01*
X101068607Y-141922061D01*
X100660000Y-141889903D01*
X100660000Y-141050413D01*
X109344192Y-141050413D01*
X109439956Y-141314814D01*
X109729571Y-141455704D01*
X110041108Y-141537384D01*
X110362595Y-141556718D01*
X110681675Y-141512961D01*
X110986088Y-141407795D01*
X111160044Y-141314814D01*
X111255808Y-141050413D01*
X110300000Y-140094605D01*
X109344192Y-141050413D01*
X100660000Y-141050413D01*
X100660000Y-139977595D01*
X108658282Y-139977595D01*
X108702039Y-140296675D01*
X108807205Y-140601088D01*
X108900186Y-140775044D01*
X109164587Y-140870808D01*
X110120395Y-139915000D01*
X110479605Y-139915000D01*
X111435413Y-140870808D01*
X111699814Y-140775044D01*
X111840704Y-140485429D01*
X111922384Y-140173892D01*
X111941718Y-139852405D01*
X111897961Y-139533325D01*
X111792795Y-139228912D01*
X111699814Y-139054956D01*
X111435413Y-138959192D01*
X110479605Y-139915000D01*
X110120395Y-139915000D01*
X109164587Y-138959192D01*
X108900186Y-139054956D01*
X108759296Y-139344571D01*
X108677616Y-139656108D01*
X108658282Y-139977595D01*
X100660000Y-139977595D01*
X100660000Y-138779587D01*
X109344192Y-138779587D01*
X110300000Y-139735395D01*
X111255808Y-138779587D01*
X111160044Y-138515186D01*
X110870429Y-138374296D01*
X110558892Y-138292616D01*
X110237405Y-138273282D01*
X109918325Y-138317039D01*
X109613912Y-138422205D01*
X109439956Y-138515186D01*
X109344192Y-138779587D01*
X100660000Y-138779587D01*
X100660000Y-133727449D01*
X111105000Y-133727449D01*
X111105000Y-134112551D01*
X111180130Y-134490252D01*
X111327502Y-134846040D01*
X111541453Y-135166240D01*
X111813760Y-135438547D01*
X112133960Y-135652498D01*
X112489748Y-135799870D01*
X112867449Y-135875000D01*
X113252551Y-135875000D01*
X113630252Y-135799870D01*
X113986040Y-135652498D01*
X114306240Y-135438547D01*
X114578547Y-135166240D01*
X114792498Y-134846040D01*
X114939870Y-134490252D01*
X115015000Y-134112551D01*
X115015000Y-133727449D01*
X114939870Y-133349748D01*
X114792498Y-132993960D01*
X114578547Y-132673760D01*
X114306240Y-132401453D01*
X113986040Y-132187502D01*
X113630252Y-132040130D01*
X113252551Y-131965000D01*
X112867449Y-131965000D01*
X112489748Y-132040130D01*
X112133960Y-132187502D01*
X111813760Y-132401453D01*
X111541453Y-132673760D01*
X111327502Y-132993960D01*
X111180130Y-133349748D01*
X111105000Y-133727449D01*
X100660000Y-133727449D01*
X100660000Y-124289721D01*
X103365000Y-124289721D01*
X103365000Y-124710279D01*
X103447047Y-125122756D01*
X103607988Y-125511302D01*
X103841637Y-125860983D01*
X104139017Y-126158363D01*
X104488698Y-126392012D01*
X104877244Y-126552953D01*
X105289721Y-126635000D01*
X105710279Y-126635000D01*
X106122756Y-126552953D01*
X106511302Y-126392012D01*
X106860983Y-126158363D01*
X107158363Y-125860983D01*
X107392012Y-125511302D01*
X107552953Y-125122756D01*
X107635000Y-124710279D01*
X107635000Y-124289721D01*
X107552953Y-123877244D01*
X107392012Y-123488698D01*
X107158363Y-123139017D01*
X106860983Y-122841637D01*
X106511302Y-122607988D01*
X106122756Y-122447047D01*
X105710279Y-122365000D01*
X105289721Y-122365000D01*
X104877244Y-122447047D01*
X104488698Y-122607988D01*
X104139017Y-122841637D01*
X103841637Y-123139017D01*
X103607988Y-123488698D01*
X103447047Y-123877244D01*
X103365000Y-124289721D01*
X100660000Y-124289721D01*
X100660000Y-107110097D01*
X101068607Y-107077939D01*
X101170898Y-107061738D01*
X101370467Y-107013826D01*
X107466946Y-107035599D01*
X107491731Y-107033247D01*
X107515581Y-107026106D01*
X107537580Y-107014448D01*
X107556881Y-106998723D01*
X107572744Y-106979534D01*
X107584558Y-106957620D01*
X107591870Y-106933821D01*
X107594400Y-106908600D01*
X107594400Y-100660000D01*
X131768422Y-100660000D01*
X131484956Y-100943466D01*
G36*
X172819415Y-106817814D02*
G01*
X172837316Y-106823631D01*
X173829102Y-107061738D01*
X173931393Y-107077939D01*
X174340000Y-107110097D01*
X174340001Y-141889903D01*
X173931393Y-141922061D01*
X173829102Y-141938262D01*
X173101267Y-142113000D01*
X171375698Y-142113000D01*
X171464494Y-142065537D01*
X171561185Y-141986185D01*
X171640537Y-141889494D01*
X171699502Y-141779180D01*
X171735812Y-141659482D01*
X171748072Y-141535000D01*
X171748072Y-139135000D01*
X171735812Y-139010518D01*
X171699502Y-138890820D01*
X171640537Y-138780506D01*
X171561185Y-138683815D01*
X171464494Y-138604463D01*
X171354180Y-138545498D01*
X171234482Y-138509188D01*
X171110000Y-138496928D01*
X170692838Y-138496928D01*
X170779199Y-138461156D01*
X171079744Y-138260338D01*
X171335338Y-138004744D01*
X171536156Y-137704199D01*
X171674482Y-137370250D01*
X171745000Y-137015732D01*
X171745000Y-136654268D01*
X171674482Y-136299750D01*
X171536156Y-135965801D01*
X171335338Y-135665256D01*
X171079744Y-135409662D01*
X170779199Y-135208844D01*
X170480213Y-135085000D01*
X170779199Y-134961156D01*
X171079744Y-134760338D01*
X171335338Y-134504744D01*
X171536156Y-134204199D01*
X171674482Y-133870250D01*
X171745000Y-133515732D01*
X171745000Y-133154268D01*
X171674482Y-132799750D01*
X171536156Y-132465801D01*
X171335338Y-132165256D01*
X171079744Y-131909662D01*
X170795000Y-131719402D01*
X170795000Y-131681413D01*
X170799281Y-131637944D01*
X170795000Y-131594475D01*
X170795000Y-131594467D01*
X170782195Y-131464454D01*
X170771305Y-131428555D01*
X170731589Y-131297630D01*
X170649411Y-131143885D01*
X170566532Y-131042897D01*
X170566530Y-131042895D01*
X170538817Y-131009127D01*
X170505049Y-130981414D01*
X169795000Y-130271366D01*
X169795000Y-128948466D01*
X169799281Y-128904999D01*
X169795000Y-128861533D01*
X169795000Y-128861523D01*
X169782195Y-128731510D01*
X169731589Y-128564687D01*
X169649411Y-128410941D01*
X169594333Y-128343829D01*
X169566532Y-128309953D01*
X169566530Y-128309951D01*
X169538817Y-128276183D01*
X169505049Y-128248470D01*
X166620000Y-125363422D01*
X166620000Y-124289721D01*
X167365000Y-124289721D01*
X167365000Y-124710279D01*
X167447047Y-125122756D01*
X167607988Y-125511302D01*
X167841637Y-125860983D01*
X168139017Y-126158363D01*
X168488698Y-126392012D01*
X168877244Y-126552953D01*
X169289721Y-126635000D01*
X169710279Y-126635000D01*
X170122756Y-126552953D01*
X170511302Y-126392012D01*
X170860983Y-126158363D01*
X171158363Y-125860983D01*
X171392012Y-125511302D01*
X171552953Y-125122756D01*
X171635000Y-124710279D01*
X171635000Y-124289721D01*
X171552953Y-123877244D01*
X171392012Y-123488698D01*
X171158363Y-123139017D01*
X170860983Y-122841637D01*
X170511302Y-122607988D01*
X170122756Y-122447047D01*
X169710279Y-122365000D01*
X169289721Y-122365000D01*
X168877244Y-122447047D01*
X168488698Y-122607988D01*
X168139017Y-122841637D01*
X167841637Y-123139017D01*
X167607988Y-123488698D01*
X167447047Y-123877244D01*
X167365000Y-124289721D01*
X166620000Y-124289721D01*
X166620000Y-122598466D01*
X166624281Y-122554999D01*
X166620000Y-122511533D01*
X166620000Y-122511523D01*
X166607195Y-122381510D01*
X166556589Y-122214687D01*
X166474411Y-122060941D01*
X166363817Y-121926183D01*
X166330049Y-121898470D01*
X165721532Y-121289954D01*
X165693817Y-121256183D01*
X165559059Y-121145589D01*
X165405313Y-121063411D01*
X165238490Y-121012805D01*
X165108477Y-121000000D01*
X165108469Y-121000000D01*
X165065000Y-120995719D01*
X165021531Y-121000000D01*
X163689656Y-121000000D01*
X163648475Y-120938368D01*
X163441632Y-120731525D01*
X163267240Y-120615000D01*
X163441632Y-120498475D01*
X163648475Y-120291632D01*
X163689656Y-120230000D01*
X167621531Y-120230000D01*
X167665000Y-120234281D01*
X167708469Y-120230000D01*
X167708477Y-120230000D01*
X167838490Y-120217195D01*
X168005313Y-120166589D01*
X168159059Y-120084411D01*
X168293817Y-119973817D01*
X168321534Y-119940044D01*
X170505049Y-117756530D01*
X170538817Y-117728817D01*
X170571651Y-117688810D01*
X170649410Y-117594060D01*
X170649411Y-117594059D01*
X170731589Y-117440313D01*
X170782195Y-117273490D01*
X170785683Y-117238072D01*
X171110000Y-117238072D01*
X171234482Y-117225812D01*
X171354180Y-117189502D01*
X171464494Y-117130537D01*
X171561185Y-117051185D01*
X171640537Y-116954494D01*
X171699502Y-116844180D01*
X171735812Y-116724482D01*
X171748072Y-116600000D01*
X171748072Y-114200000D01*
X171735812Y-114075518D01*
X171699502Y-113955820D01*
X171640537Y-113845506D01*
X171561185Y-113748815D01*
X171464494Y-113669463D01*
X171354180Y-113610498D01*
X171234482Y-113574188D01*
X171110000Y-113561928D01*
X170703097Y-113561928D01*
X170888486Y-113462836D01*
X171008374Y-113177980D01*
X169910000Y-112079605D01*
X168811626Y-113177980D01*
X168931514Y-113462836D01*
X169130912Y-113561928D01*
X168710000Y-113561928D01*
X168585518Y-113574188D01*
X168465820Y-113610498D01*
X168355506Y-113669463D01*
X168258815Y-113748815D01*
X168179463Y-113845506D01*
X168120498Y-113955820D01*
X168084188Y-114075518D01*
X168071928Y-114200000D01*
X168071928Y-116600000D01*
X168084188Y-116724482D01*
X168120498Y-116844180D01*
X168179463Y-116954494D01*
X168258815Y-117051185D01*
X168355506Y-117130537D01*
X168465820Y-117189502D01*
X168544924Y-117213498D01*
X167298422Y-118460000D01*
X163689656Y-118460000D01*
X163648475Y-118398368D01*
X163441632Y-118191525D01*
X163198411Y-118029010D01*
X162928158Y-117917068D01*
X162641260Y-117860000D01*
X162348740Y-117860000D01*
X162061842Y-117917068D01*
X161791589Y-118029010D01*
X161548368Y-118191525D01*
X161341525Y-118398368D01*
X161225000Y-118572760D01*
X161108475Y-118398368D01*
X160901632Y-118191525D01*
X160658411Y-118029010D01*
X160388158Y-117917068D01*
X160101260Y-117860000D01*
X159808740Y-117860000D01*
X159521842Y-117917068D01*
X159251589Y-118029010D01*
X159008368Y-118191525D01*
X158801525Y-118398368D01*
X158685000Y-118572760D01*
X158568475Y-118398368D01*
X158361632Y-118191525D01*
X158300000Y-118150344D01*
X158300000Y-117301065D01*
X158304281Y-117257599D01*
X158300000Y-117214133D01*
X158300000Y-117214123D01*
X158287195Y-117084110D01*
X158236589Y-116917287D01*
X158154411Y-116763541D01*
X158112933Y-116713000D01*
X158071532Y-116662553D01*
X158071530Y-116662551D01*
X158043817Y-116628783D01*
X158010050Y-116601071D01*
X157272800Y-115863822D01*
X157272800Y-114887449D01*
X157495000Y-114887449D01*
X157495000Y-115272551D01*
X157570130Y-115650252D01*
X157717502Y-116006040D01*
X157931453Y-116326240D01*
X158203760Y-116598547D01*
X158523960Y-116812498D01*
X158879748Y-116959870D01*
X159257449Y-117035000D01*
X159642551Y-117035000D01*
X160020252Y-116959870D01*
X160376040Y-116812498D01*
X160696240Y-116598547D01*
X160968547Y-116326240D01*
X161182498Y-116006040D01*
X161329870Y-115650252D01*
X161405000Y-115272551D01*
X161405000Y-114887449D01*
X161329870Y-114509748D01*
X161182498Y-114153960D01*
X160968547Y-113833760D01*
X160696240Y-113561453D01*
X160376040Y-113347502D01*
X160020252Y-113200130D01*
X159642551Y-113125000D01*
X159257449Y-113125000D01*
X158879748Y-113200130D01*
X158523960Y-113347502D01*
X158203760Y-113561453D01*
X157931453Y-113833760D01*
X157717502Y-114153960D01*
X157570130Y-114509748D01*
X157495000Y-114887449D01*
X157272800Y-114887449D01*
X157272800Y-114158578D01*
X158583179Y-112848200D01*
X166303331Y-112848200D01*
X166346800Y-112852481D01*
X166390269Y-112848200D01*
X166390277Y-112848200D01*
X166520290Y-112835395D01*
X166687113Y-112784789D01*
X166840859Y-112702611D01*
X166975617Y-112592017D01*
X167003334Y-112558244D01*
X168137892Y-111423687D01*
X168091678Y-111594069D01*
X168066933Y-111954684D01*
X168113015Y-112313198D01*
X168228154Y-112655833D01*
X168347164Y-112878486D01*
X168632020Y-112998374D01*
X169730395Y-111900000D01*
X170089605Y-111900000D01*
X171187980Y-112998374D01*
X171472836Y-112878486D01*
X171633699Y-112554790D01*
X171728322Y-112205931D01*
X171753067Y-111845316D01*
X171706985Y-111486802D01*
X171591846Y-111144167D01*
X171472836Y-110921514D01*
X171187980Y-110801626D01*
X170089605Y-111900000D01*
X169730395Y-111900000D01*
X169716252Y-111885858D01*
X169895858Y-111706252D01*
X169910000Y-111720395D01*
X171008374Y-110622020D01*
X170888486Y-110337164D01*
X170564790Y-110176301D01*
X170475310Y-110152031D01*
X170779199Y-110026156D01*
X171079744Y-109825338D01*
X171335338Y-109569744D01*
X171536156Y-109269199D01*
X171674482Y-108935250D01*
X171745000Y-108580732D01*
X171745000Y-108219268D01*
X171674482Y-107864750D01*
X171536156Y-107530801D01*
X171335338Y-107230256D01*
X171079744Y-106974662D01*
X170821176Y-106801892D01*
X172819415Y-106817814D01*
G37*
X172819415Y-106817814D02*
X172837316Y-106823631D01*
X173829102Y-107061738D01*
X173931393Y-107077939D01*
X174340000Y-107110097D01*
X174340001Y-141889903D01*
X173931393Y-141922061D01*
X173829102Y-141938262D01*
X173101267Y-142113000D01*
X171375698Y-142113000D01*
X171464494Y-142065537D01*
X171561185Y-141986185D01*
X171640537Y-141889494D01*
X171699502Y-141779180D01*
X171735812Y-141659482D01*
X171748072Y-141535000D01*
X171748072Y-139135000D01*
X171735812Y-139010518D01*
X171699502Y-138890820D01*
X171640537Y-138780506D01*
X171561185Y-138683815D01*
X171464494Y-138604463D01*
X171354180Y-138545498D01*
X171234482Y-138509188D01*
X171110000Y-138496928D01*
X170692838Y-138496928D01*
X170779199Y-138461156D01*
X171079744Y-138260338D01*
X171335338Y-138004744D01*
X171536156Y-137704199D01*
X171674482Y-137370250D01*
X171745000Y-137015732D01*
X171745000Y-136654268D01*
X171674482Y-136299750D01*
X171536156Y-135965801D01*
X171335338Y-135665256D01*
X171079744Y-135409662D01*
X170779199Y-135208844D01*
X170480213Y-135085000D01*
X170779199Y-134961156D01*
X171079744Y-134760338D01*
X171335338Y-134504744D01*
X171536156Y-134204199D01*
X171674482Y-133870250D01*
X171745000Y-133515732D01*
X171745000Y-133154268D01*
X171674482Y-132799750D01*
X171536156Y-132465801D01*
X171335338Y-132165256D01*
X171079744Y-131909662D01*
X170795000Y-131719402D01*
X170795000Y-131681413D01*
X170799281Y-131637944D01*
X170795000Y-131594475D01*
X170795000Y-131594467D01*
X170782195Y-131464454D01*
X170771305Y-131428555D01*
X170731589Y-131297630D01*
X170649411Y-131143885D01*
X170566532Y-131042897D01*
X170566530Y-131042895D01*
X170538817Y-131009127D01*
X170505049Y-130981414D01*
X169795000Y-130271366D01*
X169795000Y-128948466D01*
X169799281Y-128904999D01*
X169795000Y-128861533D01*
X169795000Y-128861523D01*
X169782195Y-128731510D01*
X169731589Y-128564687D01*
X169649411Y-128410941D01*
X169594333Y-128343829D01*
X169566532Y-128309953D01*
X169566530Y-128309951D01*
X169538817Y-128276183D01*
X169505049Y-128248470D01*
X166620000Y-125363422D01*
X166620000Y-124289721D01*
X167365000Y-124289721D01*
X167365000Y-124710279D01*
X167447047Y-125122756D01*
X167607988Y-125511302D01*
X167841637Y-125860983D01*
X168139017Y-126158363D01*
X168488698Y-126392012D01*
X168877244Y-126552953D01*
X169289721Y-126635000D01*
X169710279Y-126635000D01*
X170122756Y-126552953D01*
X170511302Y-126392012D01*
X170860983Y-126158363D01*
X171158363Y-125860983D01*
X171392012Y-125511302D01*
X171552953Y-125122756D01*
X171635000Y-124710279D01*
X171635000Y-124289721D01*
X171552953Y-123877244D01*
X171392012Y-123488698D01*
X171158363Y-123139017D01*
X170860983Y-122841637D01*
X170511302Y-122607988D01*
X170122756Y-122447047D01*
X169710279Y-122365000D01*
X169289721Y-122365000D01*
X168877244Y-122447047D01*
X168488698Y-122607988D01*
X168139017Y-122841637D01*
X167841637Y-123139017D01*
X167607988Y-123488698D01*
X167447047Y-123877244D01*
X167365000Y-124289721D01*
X166620000Y-124289721D01*
X166620000Y-122598466D01*
X166624281Y-122554999D01*
X166620000Y-122511533D01*
X166620000Y-122511523D01*
X166607195Y-122381510D01*
X166556589Y-122214687D01*
X166474411Y-122060941D01*
X166363817Y-121926183D01*
X166330049Y-121898470D01*
X165721532Y-121289954D01*
X165693817Y-121256183D01*
X165559059Y-121145589D01*
X165405313Y-121063411D01*
X165238490Y-121012805D01*
X165108477Y-121000000D01*
X165108469Y-121000000D01*
X165065000Y-120995719D01*
X165021531Y-121000000D01*
X163689656Y-121000000D01*
X163648475Y-120938368D01*
X163441632Y-120731525D01*
X163267240Y-120615000D01*
X163441632Y-120498475D01*
X163648475Y-120291632D01*
X163689656Y-120230000D01*
X167621531Y-120230000D01*
X167665000Y-120234281D01*
X167708469Y-120230000D01*
X167708477Y-120230000D01*
X167838490Y-120217195D01*
X168005313Y-120166589D01*
X168159059Y-120084411D01*
X168293817Y-119973817D01*
X168321534Y-119940044D01*
X170505049Y-117756530D01*
X170538817Y-117728817D01*
X170571651Y-117688810D01*
X170649410Y-117594060D01*
X170649411Y-117594059D01*
X170731589Y-117440313D01*
X170782195Y-117273490D01*
X170785683Y-117238072D01*
X171110000Y-117238072D01*
X171234482Y-117225812D01*
X171354180Y-117189502D01*
X171464494Y-117130537D01*
X171561185Y-117051185D01*
X171640537Y-116954494D01*
X171699502Y-116844180D01*
X171735812Y-116724482D01*
X171748072Y-116600000D01*
X171748072Y-114200000D01*
X171735812Y-114075518D01*
X171699502Y-113955820D01*
X171640537Y-113845506D01*
X171561185Y-113748815D01*
X171464494Y-113669463D01*
X171354180Y-113610498D01*
X171234482Y-113574188D01*
X171110000Y-113561928D01*
X170703097Y-113561928D01*
X170888486Y-113462836D01*
X171008374Y-113177980D01*
X169910000Y-112079605D01*
X168811626Y-113177980D01*
X168931514Y-113462836D01*
X169130912Y-113561928D01*
X168710000Y-113561928D01*
X168585518Y-113574188D01*
X168465820Y-113610498D01*
X168355506Y-113669463D01*
X168258815Y-113748815D01*
X168179463Y-113845506D01*
X168120498Y-113955820D01*
X168084188Y-114075518D01*
X168071928Y-114200000D01*
X168071928Y-116600000D01*
X168084188Y-116724482D01*
X168120498Y-116844180D01*
X168179463Y-116954494D01*
X168258815Y-117051185D01*
X168355506Y-117130537D01*
X168465820Y-117189502D01*
X168544924Y-117213498D01*
X167298422Y-118460000D01*
X163689656Y-118460000D01*
X163648475Y-118398368D01*
X163441632Y-118191525D01*
X163198411Y-118029010D01*
X162928158Y-117917068D01*
X162641260Y-117860000D01*
X162348740Y-117860000D01*
X162061842Y-117917068D01*
X161791589Y-118029010D01*
X161548368Y-118191525D01*
X161341525Y-118398368D01*
X161225000Y-118572760D01*
X161108475Y-118398368D01*
X160901632Y-118191525D01*
X160658411Y-118029010D01*
X160388158Y-117917068D01*
X160101260Y-117860000D01*
X159808740Y-117860000D01*
X159521842Y-117917068D01*
X159251589Y-118029010D01*
X159008368Y-118191525D01*
X158801525Y-118398368D01*
X158685000Y-118572760D01*
X158568475Y-118398368D01*
X158361632Y-118191525D01*
X158300000Y-118150344D01*
X158300000Y-117301065D01*
X158304281Y-117257599D01*
X158300000Y-117214133D01*
X158300000Y-117214123D01*
X158287195Y-117084110D01*
X158236589Y-116917287D01*
X158154411Y-116763541D01*
X158112933Y-116713000D01*
X158071532Y-116662553D01*
X158071530Y-116662551D01*
X158043817Y-116628783D01*
X158010050Y-116601071D01*
X157272800Y-115863822D01*
X157272800Y-114887449D01*
X157495000Y-114887449D01*
X157495000Y-115272551D01*
X157570130Y-115650252D01*
X157717502Y-116006040D01*
X157931453Y-116326240D01*
X158203760Y-116598547D01*
X158523960Y-116812498D01*
X158879748Y-116959870D01*
X159257449Y-117035000D01*
X159642551Y-117035000D01*
X160020252Y-116959870D01*
X160376040Y-116812498D01*
X160696240Y-116598547D01*
X160968547Y-116326240D01*
X161182498Y-116006040D01*
X161329870Y-115650252D01*
X161405000Y-115272551D01*
X161405000Y-114887449D01*
X161329870Y-114509748D01*
X161182498Y-114153960D01*
X160968547Y-113833760D01*
X160696240Y-113561453D01*
X160376040Y-113347502D01*
X160020252Y-113200130D01*
X159642551Y-113125000D01*
X159257449Y-113125000D01*
X158879748Y-113200130D01*
X158523960Y-113347502D01*
X158203760Y-113561453D01*
X157931453Y-113833760D01*
X157717502Y-114153960D01*
X157570130Y-114509748D01*
X157495000Y-114887449D01*
X157272800Y-114887449D01*
X157272800Y-114158578D01*
X158583179Y-112848200D01*
X166303331Y-112848200D01*
X166346800Y-112852481D01*
X166390269Y-112848200D01*
X166390277Y-112848200D01*
X166520290Y-112835395D01*
X166687113Y-112784789D01*
X166840859Y-112702611D01*
X166975617Y-112592017D01*
X167003334Y-112558244D01*
X168137892Y-111423687D01*
X168091678Y-111594069D01*
X168066933Y-111954684D01*
X168113015Y-112313198D01*
X168228154Y-112655833D01*
X168347164Y-112878486D01*
X168632020Y-112998374D01*
X169730395Y-111900000D01*
X170089605Y-111900000D01*
X171187980Y-112998374D01*
X171472836Y-112878486D01*
X171633699Y-112554790D01*
X171728322Y-112205931D01*
X171753067Y-111845316D01*
X171706985Y-111486802D01*
X171591846Y-111144167D01*
X171472836Y-110921514D01*
X171187980Y-110801626D01*
X170089605Y-111900000D01*
X169730395Y-111900000D01*
X169716252Y-111885858D01*
X169895858Y-111706252D01*
X169910000Y-111720395D01*
X171008374Y-110622020D01*
X170888486Y-110337164D01*
X170564790Y-110176301D01*
X170475310Y-110152031D01*
X170779199Y-110026156D01*
X171079744Y-109825338D01*
X171335338Y-109569744D01*
X171536156Y-109269199D01*
X171674482Y-108935250D01*
X171745000Y-108580732D01*
X171745000Y-108219268D01*
X171674482Y-107864750D01*
X171536156Y-107530801D01*
X171335338Y-107230256D01*
X171079744Y-106974662D01*
X170821176Y-106801892D01*
X172819415Y-106817814D01*
G36*
X129990400Y-110584205D02*
G01*
X129990401Y-127167928D01*
X129986927Y-127203200D01*
X129990401Y-127238472D01*
X130000790Y-127343953D01*
X130041846Y-127479296D01*
X130108517Y-127604029D01*
X130198242Y-127713359D01*
X130225640Y-127735844D01*
X132477556Y-129987761D01*
X132500041Y-130015159D01*
X132527438Y-130037643D01*
X132609371Y-130104884D01*
X132734103Y-130171555D01*
X132869447Y-130212611D01*
X132974928Y-130223000D01*
X132974936Y-130223000D01*
X133010200Y-130226473D01*
X133045464Y-130223000D01*
X135788758Y-130223000D01*
X135941525Y-130451632D01*
X136148368Y-130658475D01*
X136391589Y-130820990D01*
X136661842Y-130932932D01*
X136948740Y-130990000D01*
X137241260Y-130990000D01*
X137528158Y-130932932D01*
X137798411Y-130820990D01*
X138041632Y-130658475D01*
X138248475Y-130451632D01*
X138365000Y-130277240D01*
X138481525Y-130451632D01*
X138688368Y-130658475D01*
X138917001Y-130811242D01*
X138917001Y-131488995D01*
X138891596Y-131514400D01*
X133164805Y-131514400D01*
X126603400Y-124952996D01*
X126603400Y-113445672D01*
X126800400Y-113445672D01*
X126885400Y-113437301D01*
X126970400Y-113445672D01*
X127200400Y-113445672D01*
X127285400Y-113437301D01*
X127370400Y-113445672D01*
X127600400Y-113445672D01*
X127686592Y-113437183D01*
X127726650Y-113442600D01*
X127740609Y-113428641D01*
X127844580Y-113397102D01*
X127885400Y-113375283D01*
X127926220Y-113397102D01*
X128030191Y-113428641D01*
X128044150Y-113442600D01*
X128084208Y-113437183D01*
X128170400Y-113445672D01*
X128400400Y-113445672D01*
X128524882Y-113433412D01*
X128644580Y-113397102D01*
X128754894Y-113338137D01*
X128851585Y-113258785D01*
X128930937Y-113162094D01*
X128977131Y-113075672D01*
X129315400Y-113075672D01*
X129439882Y-113063412D01*
X129559580Y-113027102D01*
X129669894Y-112968137D01*
X129766585Y-112888785D01*
X129845937Y-112792094D01*
X129904902Y-112681780D01*
X129941212Y-112562082D01*
X129953472Y-112437600D01*
X129953472Y-111907600D01*
X129941212Y-111783118D01*
X129904902Y-111663420D01*
X129875065Y-111607600D01*
X129904902Y-111551780D01*
X129941212Y-111432082D01*
X129953472Y-111307600D01*
X129953472Y-110777600D01*
X129941212Y-110653118D01*
X129904902Y-110533420D01*
X129865040Y-110458845D01*
X129990400Y-110584205D01*
G37*
X129990400Y-110584205D02*
X129990401Y-127167928D01*
X129986927Y-127203200D01*
X129990401Y-127238472D01*
X130000790Y-127343953D01*
X130041846Y-127479296D01*
X130108517Y-127604029D01*
X130198242Y-127713359D01*
X130225640Y-127735844D01*
X132477556Y-129987761D01*
X132500041Y-130015159D01*
X132527438Y-130037643D01*
X132609371Y-130104884D01*
X132734103Y-130171555D01*
X132869447Y-130212611D01*
X132974928Y-130223000D01*
X132974936Y-130223000D01*
X133010200Y-130226473D01*
X133045464Y-130223000D01*
X135788758Y-130223000D01*
X135941525Y-130451632D01*
X136148368Y-130658475D01*
X136391589Y-130820990D01*
X136661842Y-130932932D01*
X136948740Y-130990000D01*
X137241260Y-130990000D01*
X137528158Y-130932932D01*
X137798411Y-130820990D01*
X138041632Y-130658475D01*
X138248475Y-130451632D01*
X138365000Y-130277240D01*
X138481525Y-130451632D01*
X138688368Y-130658475D01*
X138917001Y-130811242D01*
X138917001Y-131488995D01*
X138891596Y-131514400D01*
X133164805Y-131514400D01*
X126603400Y-124952996D01*
X126603400Y-113445672D01*
X126800400Y-113445672D01*
X126885400Y-113437301D01*
X126970400Y-113445672D01*
X127200400Y-113445672D01*
X127285400Y-113437301D01*
X127370400Y-113445672D01*
X127600400Y-113445672D01*
X127686592Y-113437183D01*
X127726650Y-113442600D01*
X127740609Y-113428641D01*
X127844580Y-113397102D01*
X127885400Y-113375283D01*
X127926220Y-113397102D01*
X128030191Y-113428641D01*
X128044150Y-113442600D01*
X128084208Y-113437183D01*
X128170400Y-113445672D01*
X128400400Y-113445672D01*
X128524882Y-113433412D01*
X128644580Y-113397102D01*
X128754894Y-113338137D01*
X128851585Y-113258785D01*
X128930937Y-113162094D01*
X128977131Y-113075672D01*
X129315400Y-113075672D01*
X129439882Y-113063412D01*
X129559580Y-113027102D01*
X129669894Y-112968137D01*
X129766585Y-112888785D01*
X129845937Y-112792094D01*
X129904902Y-112681780D01*
X129941212Y-112562082D01*
X129953472Y-112437600D01*
X129953472Y-111907600D01*
X129941212Y-111783118D01*
X129904902Y-111663420D01*
X129875065Y-111607600D01*
X129904902Y-111551780D01*
X129941212Y-111432082D01*
X129953472Y-111307600D01*
X129953472Y-110777600D01*
X129941212Y-110653118D01*
X129904902Y-110533420D01*
X129865040Y-110458845D01*
X129990400Y-110584205D01*
G36*
X131616000Y-110203205D02*
G01*
X131616001Y-123307128D01*
X131612527Y-123342400D01*
X131616001Y-123377672D01*
X131626390Y-123483153D01*
X131667446Y-123618496D01*
X131734117Y-123743229D01*
X131823842Y-123852559D01*
X131851240Y-123875044D01*
X132883960Y-124907766D01*
X132906441Y-124935159D01*
X132933833Y-124957639D01*
X132933838Y-124957644D01*
X133015771Y-125024884D01*
X133140504Y-125091555D01*
X133275847Y-125132611D01*
X133416600Y-125146474D01*
X133451872Y-125143000D01*
X135788758Y-125143000D01*
X135941525Y-125371632D01*
X136148368Y-125578475D01*
X136321729Y-125694311D01*
X136246208Y-125936603D01*
X137095000Y-126785395D01*
X137943792Y-125936603D01*
X137868271Y-125694311D01*
X138041632Y-125578475D01*
X138248475Y-125371632D01*
X138365000Y-125197240D01*
X138481525Y-125371632D01*
X138688368Y-125578475D01*
X138862760Y-125695000D01*
X138688368Y-125811525D01*
X138481525Y-126018368D01*
X138365689Y-126191729D01*
X138123397Y-126116208D01*
X137274605Y-126965000D01*
X138123397Y-127813792D01*
X138365689Y-127738271D01*
X138481525Y-127911632D01*
X138688368Y-128118475D01*
X138862760Y-128235000D01*
X138688368Y-128351525D01*
X138481525Y-128558368D01*
X138365000Y-128732760D01*
X138248475Y-128558368D01*
X138041632Y-128351525D01*
X137868271Y-128235689D01*
X137943792Y-127993397D01*
X137095000Y-127144605D01*
X136246208Y-127993397D01*
X136321729Y-128235689D01*
X136148368Y-128351525D01*
X135941525Y-128558368D01*
X135788758Y-128787000D01*
X133307605Y-128787000D01*
X131554136Y-127033531D01*
X135604389Y-127033531D01*
X135646401Y-127323019D01*
X135744081Y-127598747D01*
X135817528Y-127736157D01*
X136066603Y-127813792D01*
X136915395Y-126965000D01*
X136066603Y-126116208D01*
X135817528Y-126193843D01*
X135691629Y-126457883D01*
X135619661Y-126741411D01*
X135604389Y-127033531D01*
X131554136Y-127033531D01*
X131426400Y-126905796D01*
X131426400Y-110322072D01*
X131429874Y-110286800D01*
X131416011Y-110146047D01*
X131374955Y-110010704D01*
X131319213Y-109906417D01*
X131616000Y-110203205D01*
G37*
X131616000Y-110203205D02*
X131616001Y-123307128D01*
X131612527Y-123342400D01*
X131616001Y-123377672D01*
X131626390Y-123483153D01*
X131667446Y-123618496D01*
X131734117Y-123743229D01*
X131823842Y-123852559D01*
X131851240Y-123875044D01*
X132883960Y-124907766D01*
X132906441Y-124935159D01*
X132933833Y-124957639D01*
X132933838Y-124957644D01*
X133015771Y-125024884D01*
X133140504Y-125091555D01*
X133275847Y-125132611D01*
X133416600Y-125146474D01*
X133451872Y-125143000D01*
X135788758Y-125143000D01*
X135941525Y-125371632D01*
X136148368Y-125578475D01*
X136321729Y-125694311D01*
X136246208Y-125936603D01*
X137095000Y-126785395D01*
X137943792Y-125936603D01*
X137868271Y-125694311D01*
X138041632Y-125578475D01*
X138248475Y-125371632D01*
X138365000Y-125197240D01*
X138481525Y-125371632D01*
X138688368Y-125578475D01*
X138862760Y-125695000D01*
X138688368Y-125811525D01*
X138481525Y-126018368D01*
X138365689Y-126191729D01*
X138123397Y-126116208D01*
X137274605Y-126965000D01*
X138123397Y-127813792D01*
X138365689Y-127738271D01*
X138481525Y-127911632D01*
X138688368Y-128118475D01*
X138862760Y-128235000D01*
X138688368Y-128351525D01*
X138481525Y-128558368D01*
X138365000Y-128732760D01*
X138248475Y-128558368D01*
X138041632Y-128351525D01*
X137868271Y-128235689D01*
X137943792Y-127993397D01*
X137095000Y-127144605D01*
X136246208Y-127993397D01*
X136321729Y-128235689D01*
X136148368Y-128351525D01*
X135941525Y-128558368D01*
X135788758Y-128787000D01*
X133307605Y-128787000D01*
X131554136Y-127033531D01*
X135604389Y-127033531D01*
X135646401Y-127323019D01*
X135744081Y-127598747D01*
X135817528Y-127736157D01*
X136066603Y-127813792D01*
X136915395Y-126965000D01*
X136066603Y-126116208D01*
X135817528Y-126193843D01*
X135691629Y-126457883D01*
X135619661Y-126741411D01*
X135604389Y-127033531D01*
X131554136Y-127033531D01*
X131426400Y-126905796D01*
X131426400Y-110322072D01*
X131429874Y-110286800D01*
X131416011Y-110146047D01*
X131374955Y-110010704D01*
X131319213Y-109906417D01*
X131616000Y-110203205D01*
M02*
