G04 #@! TF.GenerationSoftware,KiCad,Pcbnew,5.1.5-52549c5~86~ubuntu18.04.1*
G04 #@! TF.CreationDate,2020-11-21T17:49:09-05:00*
G04 #@! TF.ProjectId,,58585858-5858-4585-9858-585858585858,rev?*
G04 #@! TF.SameCoordinates,Original*
G04 #@! TF.FileFunction,Legend,Bot*
G04 #@! TF.FilePolarity,Positive*
%FSLAX46Y46*%
G04 Gerber Fmt 4.6, Leading zero omitted, Abs format (unit mm)*
G04 Created by KiCad (PCBNEW 5.1.5-52549c5~86~ubuntu18.04.1) date 2020-11-21 17:49:09*
%MOMM*%
%LPD*%
G04 APERTURE LIST*
%ADD10C,0.150000*%
%ADD11C,0.120000*%
%ADD12C,0.100000*%
%ADD13C,0.010000*%
%ADD14C,0.254000*%
%ADD15C,1.802000*%
%ADD16O,1.802000X1.802000*%
%ADD17C,2.742000*%
%ADD18C,2.102000*%
%ADD19C,3.102000*%
%ADD20R,1.102000X1.602000*%
%ADD21R,2.502000X2.502000*%
%ADD22C,2.502000*%
%ADD23R,0.332000X0.752000*%
%ADD24R,0.552000X0.632000*%
G04 APERTURE END LIST*
D10*
X151397690Y-86731180D02*
X151397690Y-87445466D01*
X151445309Y-87588323D01*
X151540547Y-87683561D01*
X151683404Y-87731180D01*
X151778642Y-87731180D01*
X150921500Y-87731180D02*
X150921500Y-86731180D01*
X150540547Y-86731180D01*
X150445309Y-86778800D01*
X150397690Y-86826419D01*
X150350071Y-86921657D01*
X150350071Y-87064514D01*
X150397690Y-87159752D01*
X150445309Y-87207371D01*
X150540547Y-87254990D01*
X150921500Y-87254990D01*
X149397690Y-87731180D02*
X149969119Y-87731180D01*
X149683404Y-87731180D02*
X149683404Y-86731180D01*
X149778642Y-86874038D01*
X149873880Y-86969276D01*
X149969119Y-87016895D01*
X147873880Y-87207371D02*
X147731023Y-87254990D01*
X147683404Y-87302609D01*
X147635785Y-87397847D01*
X147635785Y-87540704D01*
X147683404Y-87635942D01*
X147731023Y-87683561D01*
X147826261Y-87731180D01*
X148207214Y-87731180D01*
X148207214Y-86731180D01*
X147873880Y-86731180D01*
X147778642Y-86778800D01*
X147731023Y-86826419D01*
X147683404Y-86921657D01*
X147683404Y-87016895D01*
X147731023Y-87112133D01*
X147778642Y-87159752D01*
X147873880Y-87207371D01*
X148207214Y-87207371D01*
X147254833Y-87445466D02*
X146778642Y-87445466D01*
X147350071Y-87731180D02*
X147016738Y-86731180D01*
X146683404Y-87731180D01*
X146492928Y-86731180D02*
X145921500Y-86731180D01*
X146207214Y-87731180D02*
X146207214Y-86731180D01*
X145731023Y-86731180D02*
X145159595Y-86731180D01*
X145445309Y-87731180D02*
X145445309Y-86731180D01*
X151159595Y-89381180D02*
X151731023Y-89381180D01*
X151445309Y-89381180D02*
X151445309Y-88381180D01*
X151540547Y-88524038D01*
X151635785Y-88619276D01*
X151731023Y-88666895D01*
X150731023Y-89000228D02*
X149969119Y-89000228D01*
X149540547Y-88476419D02*
X149492928Y-88428800D01*
X149397690Y-88381180D01*
X149159595Y-88381180D01*
X149064357Y-88428800D01*
X149016738Y-88476419D01*
X148969119Y-88571657D01*
X148969119Y-88666895D01*
X149016738Y-88809752D01*
X149588166Y-89381180D01*
X148969119Y-89381180D01*
X147445309Y-88857371D02*
X147302452Y-88904990D01*
X147254833Y-88952609D01*
X147207214Y-89047847D01*
X147207214Y-89190704D01*
X147254833Y-89285942D01*
X147302452Y-89333561D01*
X147397690Y-89381180D01*
X147778642Y-89381180D01*
X147778642Y-88381180D01*
X147445309Y-88381180D01*
X147350071Y-88428800D01*
X147302452Y-88476419D01*
X147254833Y-88571657D01*
X147254833Y-88666895D01*
X147302452Y-88762133D01*
X147350071Y-88809752D01*
X147445309Y-88857371D01*
X147778642Y-88857371D01*
X146921500Y-88381180D02*
X146350071Y-88381180D01*
X146635785Y-89381180D02*
X146635785Y-88381180D01*
X145492928Y-89381180D02*
X146064357Y-89381180D01*
X145778642Y-89381180D02*
X145778642Y-88381180D01*
X145873880Y-88524038D01*
X145969119Y-88619276D01*
X146064357Y-88666895D01*
X145064357Y-89000228D02*
X144302452Y-89000228D01*
X144683404Y-89381180D02*
X144683404Y-88619276D01*
X143492928Y-88857371D02*
X143350071Y-88904990D01*
X143302452Y-88952609D01*
X143254833Y-89047847D01*
X143254833Y-89190704D01*
X143302452Y-89285942D01*
X143350071Y-89333561D01*
X143445309Y-89381180D01*
X143826261Y-89381180D01*
X143826261Y-88381180D01*
X143492928Y-88381180D01*
X143397690Y-88428800D01*
X143350071Y-88476419D01*
X143302452Y-88571657D01*
X143302452Y-88666895D01*
X143350071Y-88762133D01*
X143397690Y-88809752D01*
X143492928Y-88857371D01*
X143826261Y-88857371D01*
X142969119Y-88381180D02*
X142397690Y-88381180D01*
X142683404Y-89381180D02*
X142683404Y-88381180D01*
X142111976Y-88476419D02*
X142064357Y-88428800D01*
X141969119Y-88381180D01*
X141731023Y-88381180D01*
X141635785Y-88428800D01*
X141588166Y-88476419D01*
X141540547Y-88571657D01*
X141540547Y-88666895D01*
X141588166Y-88809752D01*
X142159595Y-89381180D01*
X141540547Y-89381180D01*
X151731023Y-90126419D02*
X151683404Y-90078800D01*
X151588166Y-90031180D01*
X151350071Y-90031180D01*
X151254833Y-90078800D01*
X151207214Y-90126419D01*
X151159595Y-90221657D01*
X151159595Y-90316895D01*
X151207214Y-90459752D01*
X151778642Y-91031180D01*
X151159595Y-91031180D01*
X150731023Y-90650228D02*
X149969119Y-90650228D01*
X149588166Y-90031180D02*
X148969119Y-90031180D01*
X149302452Y-90412133D01*
X149159595Y-90412133D01*
X149064357Y-90459752D01*
X149016738Y-90507371D01*
X148969119Y-90602609D01*
X148969119Y-90840704D01*
X149016738Y-90935942D01*
X149064357Y-90983561D01*
X149159595Y-91031180D01*
X149445309Y-91031180D01*
X149540547Y-90983561D01*
X149588166Y-90935942D01*
X147445309Y-90507371D02*
X147302452Y-90554990D01*
X147254833Y-90602609D01*
X147207214Y-90697847D01*
X147207214Y-90840704D01*
X147254833Y-90935942D01*
X147302452Y-90983561D01*
X147397690Y-91031180D01*
X147778642Y-91031180D01*
X147778642Y-90031180D01*
X147445309Y-90031180D01*
X147350071Y-90078800D01*
X147302452Y-90126419D01*
X147254833Y-90221657D01*
X147254833Y-90316895D01*
X147302452Y-90412133D01*
X147350071Y-90459752D01*
X147445309Y-90507371D01*
X147778642Y-90507371D01*
X146921500Y-90031180D02*
X146350071Y-90031180D01*
X146635785Y-91031180D02*
X146635785Y-90031180D01*
X146064357Y-90126419D02*
X146016738Y-90078800D01*
X145921500Y-90031180D01*
X145683404Y-90031180D01*
X145588166Y-90078800D01*
X145540547Y-90126419D01*
X145492928Y-90221657D01*
X145492928Y-90316895D01*
X145540547Y-90459752D01*
X146111976Y-91031180D01*
X145492928Y-91031180D01*
X157212657Y-122478380D02*
X157545990Y-122002190D01*
X157784085Y-122478380D02*
X157784085Y-121478380D01*
X157403133Y-121478380D01*
X157307895Y-121526000D01*
X157260276Y-121573619D01*
X157212657Y-121668857D01*
X157212657Y-121811714D01*
X157260276Y-121906952D01*
X157307895Y-121954571D01*
X157403133Y-122002190D01*
X157784085Y-122002190D01*
X156831704Y-122192666D02*
X156355514Y-122192666D01*
X156926942Y-122478380D02*
X156593609Y-121478380D01*
X156260276Y-122478380D01*
X155926942Y-122478380D02*
X155926942Y-121478380D01*
X155355514Y-122478380D02*
X155784085Y-121906952D01*
X155355514Y-121478380D02*
X155926942Y-122049809D01*
X154498371Y-121811714D02*
X154498371Y-122478380D01*
X154736466Y-121430761D02*
X154974561Y-122145047D01*
X154355514Y-122145047D01*
X153545990Y-121478380D02*
X153736466Y-121478380D01*
X153831704Y-121526000D01*
X153879323Y-121573619D01*
X153974561Y-121716476D01*
X154022180Y-121906952D01*
X154022180Y-122287904D01*
X153974561Y-122383142D01*
X153926942Y-122430761D01*
X153831704Y-122478380D01*
X153641228Y-122478380D01*
X153545990Y-122430761D01*
X153498371Y-122383142D01*
X153450752Y-122287904D01*
X153450752Y-122049809D01*
X153498371Y-121954571D01*
X153545990Y-121906952D01*
X153641228Y-121859333D01*
X153831704Y-121859333D01*
X153926942Y-121906952D01*
X153974561Y-121954571D01*
X154022180Y-122049809D01*
X153117419Y-121478380D02*
X152498371Y-121478380D01*
X152831704Y-121859333D01*
X152688847Y-121859333D01*
X152593609Y-121906952D01*
X152545990Y-121954571D01*
X152498371Y-122049809D01*
X152498371Y-122287904D01*
X152545990Y-122383142D01*
X152593609Y-122430761D01*
X152688847Y-122478380D01*
X152974561Y-122478380D01*
X153069800Y-122430761D01*
X153117419Y-122383142D01*
X151545990Y-122478380D02*
X152117419Y-122478380D01*
X151831704Y-122478380D02*
X151831704Y-121478380D01*
X151926942Y-121621238D01*
X152022180Y-121716476D01*
X152117419Y-121764095D01*
X149879323Y-122478380D02*
X150355514Y-122478380D01*
X150355514Y-121478380D01*
X149355514Y-121478380D02*
X149165038Y-121478380D01*
X149069800Y-121526000D01*
X148974561Y-121621238D01*
X148926942Y-121811714D01*
X148926942Y-122145047D01*
X148974561Y-122335523D01*
X149069800Y-122430761D01*
X149165038Y-122478380D01*
X149355514Y-122478380D01*
X149450752Y-122430761D01*
X149545990Y-122335523D01*
X149593609Y-122145047D01*
X149593609Y-121811714D01*
X149545990Y-121621238D01*
X149450752Y-121526000D01*
X149355514Y-121478380D01*
X147926942Y-122478380D02*
X148260276Y-122002190D01*
X148498371Y-122478380D02*
X148498371Y-121478380D01*
X148117419Y-121478380D01*
X148022180Y-121526000D01*
X147974561Y-121573619D01*
X147926942Y-121668857D01*
X147926942Y-121811714D01*
X147974561Y-121906952D01*
X148022180Y-121954571D01*
X148117419Y-122002190D01*
X148498371Y-122002190D01*
X147545990Y-122192666D02*
X147069800Y-122192666D01*
X147641228Y-122478380D02*
X147307895Y-121478380D01*
X146974561Y-122478380D01*
X158284085Y-123842666D02*
X157807895Y-123842666D01*
X158379323Y-124128380D02*
X158045990Y-123128380D01*
X157712657Y-124128380D01*
X157379323Y-124128380D02*
X157379323Y-123128380D01*
X157141228Y-123128380D01*
X156998371Y-123176000D01*
X156903133Y-123271238D01*
X156855514Y-123366476D01*
X156807895Y-123556952D01*
X156807895Y-123699809D01*
X156855514Y-123890285D01*
X156903133Y-123985523D01*
X156998371Y-124080761D01*
X157141228Y-124128380D01*
X157379323Y-124128380D01*
X156426942Y-123842666D02*
X155950752Y-123842666D01*
X156522180Y-124128380D02*
X156188847Y-123128380D01*
X155855514Y-124128380D01*
X155522180Y-124128380D02*
X155522180Y-123128380D01*
X155141228Y-123128380D01*
X155045990Y-123176000D01*
X154998371Y-123223619D01*
X154950752Y-123318857D01*
X154950752Y-123461714D01*
X154998371Y-123556952D01*
X155045990Y-123604571D01*
X155141228Y-123652190D01*
X155522180Y-123652190D01*
X154665038Y-123128380D02*
X154093609Y-123128380D01*
X154379323Y-124128380D02*
X154379323Y-123128380D01*
X153807895Y-123842666D02*
X153331704Y-123842666D01*
X153903133Y-124128380D02*
X153569800Y-123128380D01*
X153236466Y-124128380D01*
X152569800Y-123604571D02*
X152426942Y-123652190D01*
X152379323Y-123699809D01*
X152331704Y-123795047D01*
X152331704Y-123937904D01*
X152379323Y-124033142D01*
X152426942Y-124080761D01*
X152522180Y-124128380D01*
X152903133Y-124128380D01*
X152903133Y-123128380D01*
X152569800Y-123128380D01*
X152474561Y-123176000D01*
X152426942Y-123223619D01*
X152379323Y-123318857D01*
X152379323Y-123414095D01*
X152426942Y-123509333D01*
X152474561Y-123556952D01*
X152569800Y-123604571D01*
X152903133Y-123604571D01*
X151426942Y-124128380D02*
X151903133Y-124128380D01*
X151903133Y-123128380D01*
X151093609Y-123604571D02*
X150760276Y-123604571D01*
X150617419Y-124128380D02*
X151093609Y-124128380D01*
X151093609Y-123128380D01*
X150617419Y-123128380D01*
X149426942Y-124128380D02*
X149426942Y-123128380D01*
X148855514Y-124128380D01*
X148855514Y-123128380D01*
X148188847Y-123128380D02*
X147998371Y-123128380D01*
X147903133Y-123176000D01*
X147807895Y-123271238D01*
X147760276Y-123461714D01*
X147760276Y-123795047D01*
X147807895Y-123985523D01*
X147903133Y-124080761D01*
X147998371Y-124128380D01*
X148188847Y-124128380D01*
X148284085Y-124080761D01*
X148379323Y-123985523D01*
X148426942Y-123795047D01*
X148426942Y-123461714D01*
X148379323Y-123271238D01*
X148284085Y-123176000D01*
X148188847Y-123128380D01*
X147331704Y-124128380D02*
X147331704Y-123128380D01*
X147093609Y-123128380D01*
X146950752Y-123176000D01*
X146855514Y-123271238D01*
X146807895Y-123366476D01*
X146760276Y-123556952D01*
X146760276Y-123699809D01*
X146807895Y-123890285D01*
X146855514Y-123985523D01*
X146950752Y-124080761D01*
X147093609Y-124128380D01*
X147331704Y-124128380D01*
X146331704Y-123604571D02*
X145998371Y-123604571D01*
X145855514Y-124128380D02*
X146331704Y-124128380D01*
X146331704Y-123128380D01*
X145855514Y-123128380D01*
X153260276Y-124778380D02*
X152926942Y-125778380D01*
X152593609Y-124778380D01*
X151307895Y-124778380D02*
X151212657Y-124778380D01*
X151117419Y-124826000D01*
X151069800Y-124873619D01*
X151022180Y-124968857D01*
X150974561Y-125159333D01*
X150974561Y-125397428D01*
X151022180Y-125587904D01*
X151069800Y-125683142D01*
X151117419Y-125730761D01*
X151212657Y-125778380D01*
X151307895Y-125778380D01*
X151403133Y-125730761D01*
X151450752Y-125683142D01*
X151498371Y-125587904D01*
X151545990Y-125397428D01*
X151545990Y-125159333D01*
X151498371Y-124968857D01*
X151450752Y-124873619D01*
X151403133Y-124826000D01*
X151307895Y-124778380D01*
X157212657Y-73478380D02*
X157545990Y-73002190D01*
X157784085Y-73478380D02*
X157784085Y-72478380D01*
X157403133Y-72478380D01*
X157307895Y-72526000D01*
X157260276Y-72573619D01*
X157212657Y-72668857D01*
X157212657Y-72811714D01*
X157260276Y-72906952D01*
X157307895Y-72954571D01*
X157403133Y-73002190D01*
X157784085Y-73002190D01*
X156831704Y-73192666D02*
X156355514Y-73192666D01*
X156926942Y-73478380D02*
X156593609Y-72478380D01*
X156260276Y-73478380D01*
X155926942Y-73478380D02*
X155926942Y-72478380D01*
X155355514Y-73478380D02*
X155784085Y-72906952D01*
X155355514Y-72478380D02*
X155926942Y-73049809D01*
X154498371Y-72811714D02*
X154498371Y-73478380D01*
X154736466Y-72430761D02*
X154974561Y-73145047D01*
X154355514Y-73145047D01*
X153545990Y-72478380D02*
X153736466Y-72478380D01*
X153831704Y-72526000D01*
X153879323Y-72573619D01*
X153974561Y-72716476D01*
X154022180Y-72906952D01*
X154022180Y-73287904D01*
X153974561Y-73383142D01*
X153926942Y-73430761D01*
X153831704Y-73478380D01*
X153641228Y-73478380D01*
X153545990Y-73430761D01*
X153498371Y-73383142D01*
X153450752Y-73287904D01*
X153450752Y-73049809D01*
X153498371Y-72954571D01*
X153545990Y-72906952D01*
X153641228Y-72859333D01*
X153831704Y-72859333D01*
X153926942Y-72906952D01*
X153974561Y-72954571D01*
X154022180Y-73049809D01*
X153117419Y-72478380D02*
X152498371Y-72478380D01*
X152831704Y-72859333D01*
X152688847Y-72859333D01*
X152593609Y-72906952D01*
X152545990Y-72954571D01*
X152498371Y-73049809D01*
X152498371Y-73287904D01*
X152545990Y-73383142D01*
X152593609Y-73430761D01*
X152688847Y-73478380D01*
X152974561Y-73478380D01*
X153069800Y-73430761D01*
X153117419Y-73383142D01*
X151545990Y-73478380D02*
X152117419Y-73478380D01*
X151831704Y-73478380D02*
X151831704Y-72478380D01*
X151926942Y-72621238D01*
X152022180Y-72716476D01*
X152117419Y-72764095D01*
X149879323Y-73478380D02*
X150355514Y-73478380D01*
X150355514Y-72478380D01*
X149355514Y-72478380D02*
X149165038Y-72478380D01*
X149069800Y-72526000D01*
X148974561Y-72621238D01*
X148926942Y-72811714D01*
X148926942Y-73145047D01*
X148974561Y-73335523D01*
X149069800Y-73430761D01*
X149165038Y-73478380D01*
X149355514Y-73478380D01*
X149450752Y-73430761D01*
X149545990Y-73335523D01*
X149593609Y-73145047D01*
X149593609Y-72811714D01*
X149545990Y-72621238D01*
X149450752Y-72526000D01*
X149355514Y-72478380D01*
X147926942Y-73478380D02*
X148260276Y-73002190D01*
X148498371Y-73478380D02*
X148498371Y-72478380D01*
X148117419Y-72478380D01*
X148022180Y-72526000D01*
X147974561Y-72573619D01*
X147926942Y-72668857D01*
X147926942Y-72811714D01*
X147974561Y-72906952D01*
X148022180Y-72954571D01*
X148117419Y-73002190D01*
X148498371Y-73002190D01*
X147545990Y-73192666D02*
X147069800Y-73192666D01*
X147641228Y-73478380D02*
X147307895Y-72478380D01*
X146974561Y-73478380D01*
X158284085Y-74842666D02*
X157807895Y-74842666D01*
X158379323Y-75128380D02*
X158045990Y-74128380D01*
X157712657Y-75128380D01*
X157379323Y-75128380D02*
X157379323Y-74128380D01*
X157141228Y-74128380D01*
X156998371Y-74176000D01*
X156903133Y-74271238D01*
X156855514Y-74366476D01*
X156807895Y-74556952D01*
X156807895Y-74699809D01*
X156855514Y-74890285D01*
X156903133Y-74985523D01*
X156998371Y-75080761D01*
X157141228Y-75128380D01*
X157379323Y-75128380D01*
X156426942Y-74842666D02*
X155950752Y-74842666D01*
X156522180Y-75128380D02*
X156188847Y-74128380D01*
X155855514Y-75128380D01*
X155522180Y-75128380D02*
X155522180Y-74128380D01*
X155141228Y-74128380D01*
X155045990Y-74176000D01*
X154998371Y-74223619D01*
X154950752Y-74318857D01*
X154950752Y-74461714D01*
X154998371Y-74556952D01*
X155045990Y-74604571D01*
X155141228Y-74652190D01*
X155522180Y-74652190D01*
X154665038Y-74128380D02*
X154093609Y-74128380D01*
X154379323Y-75128380D02*
X154379323Y-74128380D01*
X153807895Y-74842666D02*
X153331704Y-74842666D01*
X153903133Y-75128380D02*
X153569800Y-74128380D01*
X153236466Y-75128380D01*
X152569800Y-74604571D02*
X152426942Y-74652190D01*
X152379323Y-74699809D01*
X152331704Y-74795047D01*
X152331704Y-74937904D01*
X152379323Y-75033142D01*
X152426942Y-75080761D01*
X152522180Y-75128380D01*
X152903133Y-75128380D01*
X152903133Y-74128380D01*
X152569800Y-74128380D01*
X152474561Y-74176000D01*
X152426942Y-74223619D01*
X152379323Y-74318857D01*
X152379323Y-74414095D01*
X152426942Y-74509333D01*
X152474561Y-74556952D01*
X152569800Y-74604571D01*
X152903133Y-74604571D01*
X151426942Y-75128380D02*
X151903133Y-75128380D01*
X151903133Y-74128380D01*
X151093609Y-74604571D02*
X150760276Y-74604571D01*
X150617419Y-75128380D02*
X151093609Y-75128380D01*
X151093609Y-74128380D01*
X150617419Y-74128380D01*
X149426942Y-75128380D02*
X149426942Y-74128380D01*
X148855514Y-75128380D01*
X148855514Y-74128380D01*
X148188847Y-74128380D02*
X147998371Y-74128380D01*
X147903133Y-74176000D01*
X147807895Y-74271238D01*
X147760276Y-74461714D01*
X147760276Y-74795047D01*
X147807895Y-74985523D01*
X147903133Y-75080761D01*
X147998371Y-75128380D01*
X148188847Y-75128380D01*
X148284085Y-75080761D01*
X148379323Y-74985523D01*
X148426942Y-74795047D01*
X148426942Y-74461714D01*
X148379323Y-74271238D01*
X148284085Y-74176000D01*
X148188847Y-74128380D01*
X147331704Y-75128380D02*
X147331704Y-74128380D01*
X147093609Y-74128380D01*
X146950752Y-74176000D01*
X146855514Y-74271238D01*
X146807895Y-74366476D01*
X146760276Y-74556952D01*
X146760276Y-74699809D01*
X146807895Y-74890285D01*
X146855514Y-74985523D01*
X146950752Y-75080761D01*
X147093609Y-75128380D01*
X147331704Y-75128380D01*
X146331704Y-74604571D02*
X145998371Y-74604571D01*
X145855514Y-75128380D02*
X146331704Y-75128380D01*
X146331704Y-74128380D01*
X145855514Y-74128380D01*
X153260276Y-75778380D02*
X152926942Y-76778380D01*
X152593609Y-75778380D01*
X151307895Y-75778380D02*
X151212657Y-75778380D01*
X151117419Y-75826000D01*
X151069800Y-75873619D01*
X151022180Y-75968857D01*
X150974561Y-76159333D01*
X150974561Y-76397428D01*
X151022180Y-76587904D01*
X151069800Y-76683142D01*
X151117419Y-76730761D01*
X151212657Y-76778380D01*
X151307895Y-76778380D01*
X151403133Y-76730761D01*
X151450752Y-76683142D01*
X151498371Y-76587904D01*
X151545990Y-76397428D01*
X151545990Y-76159333D01*
X151498371Y-75968857D01*
X151450752Y-75873619D01*
X151403133Y-75826000D01*
X151307895Y-75778380D01*
X151397690Y-37731180D02*
X151397690Y-38445466D01*
X151445309Y-38588323D01*
X151540547Y-38683561D01*
X151683404Y-38731180D01*
X151778642Y-38731180D01*
X150921500Y-38731180D02*
X150921500Y-37731180D01*
X150540547Y-37731180D01*
X150445309Y-37778800D01*
X150397690Y-37826419D01*
X150350071Y-37921657D01*
X150350071Y-38064514D01*
X150397690Y-38159752D01*
X150445309Y-38207371D01*
X150540547Y-38254990D01*
X150921500Y-38254990D01*
X149397690Y-38731180D02*
X149969119Y-38731180D01*
X149683404Y-38731180D02*
X149683404Y-37731180D01*
X149778642Y-37874038D01*
X149873880Y-37969276D01*
X149969119Y-38016895D01*
X147873880Y-38207371D02*
X147731023Y-38254990D01*
X147683404Y-38302609D01*
X147635785Y-38397847D01*
X147635785Y-38540704D01*
X147683404Y-38635942D01*
X147731023Y-38683561D01*
X147826261Y-38731180D01*
X148207214Y-38731180D01*
X148207214Y-37731180D01*
X147873880Y-37731180D01*
X147778642Y-37778800D01*
X147731023Y-37826419D01*
X147683404Y-37921657D01*
X147683404Y-38016895D01*
X147731023Y-38112133D01*
X147778642Y-38159752D01*
X147873880Y-38207371D01*
X148207214Y-38207371D01*
X147254833Y-38445466D02*
X146778642Y-38445466D01*
X147350071Y-38731180D02*
X147016738Y-37731180D01*
X146683404Y-38731180D01*
X146492928Y-37731180D02*
X145921500Y-37731180D01*
X146207214Y-38731180D02*
X146207214Y-37731180D01*
X145731023Y-37731180D02*
X145159595Y-37731180D01*
X145445309Y-38731180D02*
X145445309Y-37731180D01*
X151159595Y-40381180D02*
X151731023Y-40381180D01*
X151445309Y-40381180D02*
X151445309Y-39381180D01*
X151540547Y-39524038D01*
X151635785Y-39619276D01*
X151731023Y-39666895D01*
X150731023Y-40000228D02*
X149969119Y-40000228D01*
X149540547Y-39476419D02*
X149492928Y-39428800D01*
X149397690Y-39381180D01*
X149159595Y-39381180D01*
X149064357Y-39428800D01*
X149016738Y-39476419D01*
X148969119Y-39571657D01*
X148969119Y-39666895D01*
X149016738Y-39809752D01*
X149588166Y-40381180D01*
X148969119Y-40381180D01*
X147445309Y-39857371D02*
X147302452Y-39904990D01*
X147254833Y-39952609D01*
X147207214Y-40047847D01*
X147207214Y-40190704D01*
X147254833Y-40285942D01*
X147302452Y-40333561D01*
X147397690Y-40381180D01*
X147778642Y-40381180D01*
X147778642Y-39381180D01*
X147445309Y-39381180D01*
X147350071Y-39428800D01*
X147302452Y-39476419D01*
X147254833Y-39571657D01*
X147254833Y-39666895D01*
X147302452Y-39762133D01*
X147350071Y-39809752D01*
X147445309Y-39857371D01*
X147778642Y-39857371D01*
X146921500Y-39381180D02*
X146350071Y-39381180D01*
X146635785Y-40381180D02*
X146635785Y-39381180D01*
X145492928Y-40381180D02*
X146064357Y-40381180D01*
X145778642Y-40381180D02*
X145778642Y-39381180D01*
X145873880Y-39524038D01*
X145969119Y-39619276D01*
X146064357Y-39666895D01*
X145064357Y-40000228D02*
X144302452Y-40000228D01*
X144683404Y-40381180D02*
X144683404Y-39619276D01*
X143492928Y-39857371D02*
X143350071Y-39904990D01*
X143302452Y-39952609D01*
X143254833Y-40047847D01*
X143254833Y-40190704D01*
X143302452Y-40285942D01*
X143350071Y-40333561D01*
X143445309Y-40381180D01*
X143826261Y-40381180D01*
X143826261Y-39381180D01*
X143492928Y-39381180D01*
X143397690Y-39428800D01*
X143350071Y-39476419D01*
X143302452Y-39571657D01*
X143302452Y-39666895D01*
X143350071Y-39762133D01*
X143397690Y-39809752D01*
X143492928Y-39857371D01*
X143826261Y-39857371D01*
X142969119Y-39381180D02*
X142397690Y-39381180D01*
X142683404Y-40381180D02*
X142683404Y-39381180D01*
X142111976Y-39476419D02*
X142064357Y-39428800D01*
X141969119Y-39381180D01*
X141731023Y-39381180D01*
X141635785Y-39428800D01*
X141588166Y-39476419D01*
X141540547Y-39571657D01*
X141540547Y-39666895D01*
X141588166Y-39809752D01*
X142159595Y-40381180D01*
X141540547Y-40381180D01*
X151731023Y-41126419D02*
X151683404Y-41078800D01*
X151588166Y-41031180D01*
X151350071Y-41031180D01*
X151254833Y-41078800D01*
X151207214Y-41126419D01*
X151159595Y-41221657D01*
X151159595Y-41316895D01*
X151207214Y-41459752D01*
X151778642Y-42031180D01*
X151159595Y-42031180D01*
X150731023Y-41650228D02*
X149969119Y-41650228D01*
X149588166Y-41031180D02*
X148969119Y-41031180D01*
X149302452Y-41412133D01*
X149159595Y-41412133D01*
X149064357Y-41459752D01*
X149016738Y-41507371D01*
X148969119Y-41602609D01*
X148969119Y-41840704D01*
X149016738Y-41935942D01*
X149064357Y-41983561D01*
X149159595Y-42031180D01*
X149445309Y-42031180D01*
X149540547Y-41983561D01*
X149588166Y-41935942D01*
X147445309Y-41507371D02*
X147302452Y-41554990D01*
X147254833Y-41602609D01*
X147207214Y-41697847D01*
X147207214Y-41840704D01*
X147254833Y-41935942D01*
X147302452Y-41983561D01*
X147397690Y-42031180D01*
X147778642Y-42031180D01*
X147778642Y-41031180D01*
X147445309Y-41031180D01*
X147350071Y-41078800D01*
X147302452Y-41126419D01*
X147254833Y-41221657D01*
X147254833Y-41316895D01*
X147302452Y-41412133D01*
X147350071Y-41459752D01*
X147445309Y-41507371D01*
X147778642Y-41507371D01*
X146921500Y-41031180D02*
X146350071Y-41031180D01*
X146635785Y-42031180D02*
X146635785Y-41031180D01*
X146064357Y-41126419D02*
X146016738Y-41078800D01*
X145921500Y-41031180D01*
X145683404Y-41031180D01*
X145588166Y-41078800D01*
X145540547Y-41126419D01*
X145492928Y-41221657D01*
X145492928Y-41316895D01*
X145540547Y-41459752D01*
X146111976Y-42031180D01*
X145492928Y-42031180D01*
D11*
X132874800Y-85276000D02*
X132874800Y-85876000D01*
X136324800Y-84576000D02*
X133524800Y-84576000D01*
X136974800Y-85876000D02*
X136974800Y-85276000D01*
X133524800Y-86576000D02*
X136324800Y-86576000D01*
X136274800Y-86576000D02*
G75*
G03X136974800Y-85876000I0J700000D01*
G01*
X136974800Y-85276000D02*
G75*
G03X136274800Y-84576000I-700000J0D01*
G01*
X133574800Y-84576000D02*
G75*
G03X132874800Y-85276000I0J-700000D01*
G01*
X132874800Y-85876000D02*
G75*
G03X133574800Y-86576000I700000J0D01*
G01*
D12*
X122430200Y-94413600D02*
X122430200Y-94213600D01*
X132230200Y-94413600D02*
X132230200Y-94213600D01*
D11*
X137330200Y-92563600D02*
X117330200Y-92563600D01*
X137330200Y-122563600D02*
X117330200Y-122563600D01*
X137330200Y-92563600D02*
X137330200Y-122563600D01*
X117330200Y-92563600D02*
X117330200Y-122563600D01*
D13*
G36*
X140083986Y-120509931D02*
G01*
X140000165Y-120954555D01*
X139690880Y-121082053D01*
X139381594Y-121209551D01*
X139010554Y-120957246D01*
X138906643Y-120886996D01*
X138812713Y-120824272D01*
X138733148Y-120771938D01*
X138672330Y-120732857D01*
X138634643Y-120709893D01*
X138624379Y-120704942D01*
X138605890Y-120717676D01*
X138566380Y-120752882D01*
X138510278Y-120806062D01*
X138442013Y-120872718D01*
X138366014Y-120948354D01*
X138286708Y-121028472D01*
X138208525Y-121108574D01*
X138135893Y-121184164D01*
X138073241Y-121250745D01*
X138024997Y-121303818D01*
X137995590Y-121338887D01*
X137988559Y-121350623D01*
X137998677Y-121372260D01*
X138027041Y-121419662D01*
X138070671Y-121488193D01*
X138126582Y-121573215D01*
X138191794Y-121670093D01*
X138229581Y-121725350D01*
X138298457Y-121826248D01*
X138359660Y-121917299D01*
X138410222Y-121993970D01*
X138447172Y-122051728D01*
X138467542Y-122086043D01*
X138470603Y-122093254D01*
X138463664Y-122113748D01*
X138444749Y-122161513D01*
X138416713Y-122229832D01*
X138382409Y-122311989D01*
X138344691Y-122401270D01*
X138306413Y-122490958D01*
X138270430Y-122574338D01*
X138239594Y-122644694D01*
X138216761Y-122695310D01*
X138204783Y-122719471D01*
X138204076Y-122720422D01*
X138185269Y-122725036D01*
X138135182Y-122735328D01*
X138059007Y-122750287D01*
X137961935Y-122768901D01*
X137849157Y-122790159D01*
X137783358Y-122802418D01*
X137662850Y-122825362D01*
X137554003Y-122847195D01*
X137462324Y-122866722D01*
X137393319Y-122882748D01*
X137352496Y-122894079D01*
X137344289Y-122897674D01*
X137336252Y-122922006D01*
X137329767Y-122976959D01*
X137324830Y-123056108D01*
X137321436Y-123153026D01*
X137319582Y-123261287D01*
X137319262Y-123374465D01*
X137320473Y-123486135D01*
X137323210Y-123589868D01*
X137327469Y-123679241D01*
X137333245Y-123747826D01*
X137340533Y-123789197D01*
X137344905Y-123797810D01*
X137371036Y-123808133D01*
X137426407Y-123822892D01*
X137503693Y-123840352D01*
X137595570Y-123858780D01*
X137627642Y-123864741D01*
X137782276Y-123893066D01*
X137904425Y-123915876D01*
X137998127Y-123934080D01*
X138067416Y-123948583D01*
X138116329Y-123960292D01*
X138148903Y-123970115D01*
X138169172Y-123978956D01*
X138181174Y-123987724D01*
X138182853Y-123989457D01*
X138199616Y-124017371D01*
X138225186Y-124071695D01*
X138257012Y-124145777D01*
X138292540Y-124232965D01*
X138329217Y-124326608D01*
X138364489Y-124420052D01*
X138395804Y-124506647D01*
X138420607Y-124579740D01*
X138436346Y-124632678D01*
X138440468Y-124658811D01*
X138440124Y-124659726D01*
X138426159Y-124681086D01*
X138394478Y-124728084D01*
X138348409Y-124795827D01*
X138291282Y-124879423D01*
X138226427Y-124973982D01*
X138207957Y-125000854D01*
X138142101Y-125098275D01*
X138084150Y-125187163D01*
X138037262Y-125262412D01*
X138004593Y-125318920D01*
X137989300Y-125351581D01*
X137988559Y-125355593D01*
X138001408Y-125376684D01*
X138036912Y-125418464D01*
X138090507Y-125476445D01*
X138157629Y-125546135D01*
X138233713Y-125623045D01*
X138314196Y-125702683D01*
X138394513Y-125780561D01*
X138470101Y-125852186D01*
X138536395Y-125913070D01*
X138588831Y-125958721D01*
X138622845Y-125984650D01*
X138632255Y-125988883D01*
X138654157Y-125978912D01*
X138699000Y-125952020D01*
X138759479Y-125912736D01*
X138806011Y-125881117D01*
X138890325Y-125823098D01*
X138990174Y-125754784D01*
X139090327Y-125686579D01*
X139144173Y-125650075D01*
X139326429Y-125526800D01*
X139479419Y-125609520D01*
X139549118Y-125645759D01*
X139608386Y-125673926D01*
X139648489Y-125689991D01*
X139658697Y-125692226D01*
X139670971Y-125675722D01*
X139695187Y-125629082D01*
X139729537Y-125556609D01*
X139772212Y-125462606D01*
X139821406Y-125351374D01*
X139875310Y-125227215D01*
X139932116Y-125094432D01*
X139990018Y-124957327D01*
X140047207Y-124820202D01*
X140101876Y-124687358D01*
X140152216Y-124563098D01*
X140196420Y-124451725D01*
X140232681Y-124357539D01*
X140259191Y-124284844D01*
X140274142Y-124237941D01*
X140276546Y-124221833D01*
X140257489Y-124201286D01*
X140215764Y-124167933D01*
X140160094Y-124128702D01*
X140155422Y-124125599D01*
X140011536Y-124010423D01*
X139895517Y-123876053D01*
X139808370Y-123726784D01*
X139751101Y-123566913D01*
X139724714Y-123400737D01*
X139730215Y-123232552D01*
X139768610Y-123066655D01*
X139840905Y-122907342D01*
X139862174Y-122872487D01*
X139972804Y-122731737D01*
X140103498Y-122618714D01*
X140249736Y-122534003D01*
X140406992Y-122478194D01*
X140570743Y-122451874D01*
X140736467Y-122455630D01*
X140899638Y-122490050D01*
X141055735Y-122555723D01*
X141200233Y-122653235D01*
X141244931Y-122692813D01*
X141358688Y-122816703D01*
X141441582Y-122947124D01*
X141498444Y-123093315D01*
X141530113Y-123238088D01*
X141537931Y-123400860D01*
X141511862Y-123564440D01*
X141454555Y-123723298D01*
X141368656Y-123871906D01*
X141256814Y-124004735D01*
X141121677Y-124116256D01*
X141103917Y-124128011D01*
X141047650Y-124166508D01*
X141004877Y-124199863D01*
X140984428Y-124221160D01*
X140984131Y-124221833D01*
X140988521Y-124244871D01*
X141005924Y-124297157D01*
X141034532Y-124374390D01*
X141072535Y-124472268D01*
X141118126Y-124586491D01*
X141169497Y-124712758D01*
X141224838Y-124846767D01*
X141282342Y-124984218D01*
X141340199Y-125120808D01*
X141396602Y-125252237D01*
X141449742Y-125374205D01*
X141497810Y-125482409D01*
X141538999Y-125572549D01*
X141571499Y-125640323D01*
X141593503Y-125681430D01*
X141602364Y-125692226D01*
X141629440Y-125683819D01*
X141680103Y-125661272D01*
X141745617Y-125628613D01*
X141781641Y-125609520D01*
X141934632Y-125526800D01*
X142116888Y-125650075D01*
X142209925Y-125713228D01*
X142311785Y-125782727D01*
X142407238Y-125848165D01*
X142455050Y-125881117D01*
X142522295Y-125926273D01*
X142579236Y-125962057D01*
X142618446Y-125983938D01*
X142631181Y-125988563D01*
X142649717Y-125976085D01*
X142690741Y-125941252D01*
X142750275Y-125887678D01*
X142824342Y-125818983D01*
X142908965Y-125738781D01*
X142962485Y-125687286D01*
X143056119Y-125595286D01*
X143137041Y-125512999D01*
X143201977Y-125443945D01*
X143247658Y-125391644D01*
X143270811Y-125359616D01*
X143273032Y-125353116D01*
X143262724Y-125328394D01*
X143234239Y-125278405D01*
X143190737Y-125208212D01*
X143135377Y-125122875D01*
X143071320Y-125027456D01*
X143053103Y-125000854D01*
X142986727Y-124904167D01*
X142927178Y-124817117D01*
X142877784Y-124744595D01*
X142841875Y-124691493D01*
X142822781Y-124662703D01*
X142820936Y-124659726D01*
X142823695Y-124636782D01*
X142838338Y-124586336D01*
X142862313Y-124515041D01*
X142893066Y-124429547D01*
X142928044Y-124336507D01*
X142964693Y-124242574D01*
X143000461Y-124154399D01*
X143032794Y-124078634D01*
X143059138Y-124021931D01*
X143076942Y-123990943D01*
X143078207Y-123989457D01*
X143089094Y-123980601D01*
X143107482Y-123971843D01*
X143137406Y-123962277D01*
X143182903Y-123950996D01*
X143248009Y-123937093D01*
X143336761Y-123919663D01*
X143453193Y-123897798D01*
X143601342Y-123870591D01*
X143633418Y-123864741D01*
X143728486Y-123846374D01*
X143811365Y-123828405D01*
X143874730Y-123812569D01*
X143911258Y-123800600D01*
X143916156Y-123797810D01*
X143924227Y-123773072D01*
X143930787Y-123717790D01*
X143935833Y-123638389D01*
X143939359Y-123541296D01*
X143941361Y-123432938D01*
X143941836Y-123319740D01*
X143940777Y-123208128D01*
X143938182Y-123104529D01*
X143934046Y-123015368D01*
X143928363Y-122947072D01*
X143921131Y-122906066D01*
X143916771Y-122897674D01*
X143892498Y-122889208D01*
X143837226Y-122875435D01*
X143756462Y-122857550D01*
X143655712Y-122836748D01*
X143540483Y-122814223D01*
X143477702Y-122802418D01*
X143358587Y-122780151D01*
X143252365Y-122759979D01*
X143164227Y-122742915D01*
X143099366Y-122729969D01*
X143062974Y-122722155D01*
X143056984Y-122720422D01*
X143046861Y-122700890D01*
X143025462Y-122653843D01*
X142995639Y-122586003D01*
X142960245Y-122504091D01*
X142922132Y-122414828D01*
X142884153Y-122324935D01*
X142849160Y-122241135D01*
X142820006Y-122170147D01*
X142799543Y-122118694D01*
X142790623Y-122093497D01*
X142790457Y-122092396D01*
X142800569Y-122072519D01*
X142828917Y-122026777D01*
X142872523Y-121959717D01*
X142928406Y-121875884D01*
X142993587Y-121779826D01*
X143031479Y-121724650D01*
X143100525Y-121623481D01*
X143161850Y-121531630D01*
X143212463Y-121453744D01*
X143249371Y-121394469D01*
X143269582Y-121358451D01*
X143272501Y-121350377D01*
X143259953Y-121331584D01*
X143225263Y-121291457D01*
X143172863Y-121234493D01*
X143107184Y-121165185D01*
X143032656Y-121088031D01*
X142953713Y-121007525D01*
X142874783Y-120928163D01*
X142800300Y-120854440D01*
X142734694Y-120790852D01*
X142682396Y-120741894D01*
X142647839Y-120712061D01*
X142636278Y-120704942D01*
X142617454Y-120714953D01*
X142572431Y-120743078D01*
X142505587Y-120786454D01*
X142421299Y-120842218D01*
X142323944Y-120907506D01*
X142250507Y-120957246D01*
X141879467Y-121209551D01*
X141260895Y-120954555D01*
X141177075Y-120509931D01*
X141093254Y-120065307D01*
X140167806Y-120065307D01*
X140083986Y-120509931D01*
G37*
X140083986Y-120509931D02*
X140000165Y-120954555D01*
X139690880Y-121082053D01*
X139381594Y-121209551D01*
X139010554Y-120957246D01*
X138906643Y-120886996D01*
X138812713Y-120824272D01*
X138733148Y-120771938D01*
X138672330Y-120732857D01*
X138634643Y-120709893D01*
X138624379Y-120704942D01*
X138605890Y-120717676D01*
X138566380Y-120752882D01*
X138510278Y-120806062D01*
X138442013Y-120872718D01*
X138366014Y-120948354D01*
X138286708Y-121028472D01*
X138208525Y-121108574D01*
X138135893Y-121184164D01*
X138073241Y-121250745D01*
X138024997Y-121303818D01*
X137995590Y-121338887D01*
X137988559Y-121350623D01*
X137998677Y-121372260D01*
X138027041Y-121419662D01*
X138070671Y-121488193D01*
X138126582Y-121573215D01*
X138191794Y-121670093D01*
X138229581Y-121725350D01*
X138298457Y-121826248D01*
X138359660Y-121917299D01*
X138410222Y-121993970D01*
X138447172Y-122051728D01*
X138467542Y-122086043D01*
X138470603Y-122093254D01*
X138463664Y-122113748D01*
X138444749Y-122161513D01*
X138416713Y-122229832D01*
X138382409Y-122311989D01*
X138344691Y-122401270D01*
X138306413Y-122490958D01*
X138270430Y-122574338D01*
X138239594Y-122644694D01*
X138216761Y-122695310D01*
X138204783Y-122719471D01*
X138204076Y-122720422D01*
X138185269Y-122725036D01*
X138135182Y-122735328D01*
X138059007Y-122750287D01*
X137961935Y-122768901D01*
X137849157Y-122790159D01*
X137783358Y-122802418D01*
X137662850Y-122825362D01*
X137554003Y-122847195D01*
X137462324Y-122866722D01*
X137393319Y-122882748D01*
X137352496Y-122894079D01*
X137344289Y-122897674D01*
X137336252Y-122922006D01*
X137329767Y-122976959D01*
X137324830Y-123056108D01*
X137321436Y-123153026D01*
X137319582Y-123261287D01*
X137319262Y-123374465D01*
X137320473Y-123486135D01*
X137323210Y-123589868D01*
X137327469Y-123679241D01*
X137333245Y-123747826D01*
X137340533Y-123789197D01*
X137344905Y-123797810D01*
X137371036Y-123808133D01*
X137426407Y-123822892D01*
X137503693Y-123840352D01*
X137595570Y-123858780D01*
X137627642Y-123864741D01*
X137782276Y-123893066D01*
X137904425Y-123915876D01*
X137998127Y-123934080D01*
X138067416Y-123948583D01*
X138116329Y-123960292D01*
X138148903Y-123970115D01*
X138169172Y-123978956D01*
X138181174Y-123987724D01*
X138182853Y-123989457D01*
X138199616Y-124017371D01*
X138225186Y-124071695D01*
X138257012Y-124145777D01*
X138292540Y-124232965D01*
X138329217Y-124326608D01*
X138364489Y-124420052D01*
X138395804Y-124506647D01*
X138420607Y-124579740D01*
X138436346Y-124632678D01*
X138440468Y-124658811D01*
X138440124Y-124659726D01*
X138426159Y-124681086D01*
X138394478Y-124728084D01*
X138348409Y-124795827D01*
X138291282Y-124879423D01*
X138226427Y-124973982D01*
X138207957Y-125000854D01*
X138142101Y-125098275D01*
X138084150Y-125187163D01*
X138037262Y-125262412D01*
X138004593Y-125318920D01*
X137989300Y-125351581D01*
X137988559Y-125355593D01*
X138001408Y-125376684D01*
X138036912Y-125418464D01*
X138090507Y-125476445D01*
X138157629Y-125546135D01*
X138233713Y-125623045D01*
X138314196Y-125702683D01*
X138394513Y-125780561D01*
X138470101Y-125852186D01*
X138536395Y-125913070D01*
X138588831Y-125958721D01*
X138622845Y-125984650D01*
X138632255Y-125988883D01*
X138654157Y-125978912D01*
X138699000Y-125952020D01*
X138759479Y-125912736D01*
X138806011Y-125881117D01*
X138890325Y-125823098D01*
X138990174Y-125754784D01*
X139090327Y-125686579D01*
X139144173Y-125650075D01*
X139326429Y-125526800D01*
X139479419Y-125609520D01*
X139549118Y-125645759D01*
X139608386Y-125673926D01*
X139648489Y-125689991D01*
X139658697Y-125692226D01*
X139670971Y-125675722D01*
X139695187Y-125629082D01*
X139729537Y-125556609D01*
X139772212Y-125462606D01*
X139821406Y-125351374D01*
X139875310Y-125227215D01*
X139932116Y-125094432D01*
X139990018Y-124957327D01*
X140047207Y-124820202D01*
X140101876Y-124687358D01*
X140152216Y-124563098D01*
X140196420Y-124451725D01*
X140232681Y-124357539D01*
X140259191Y-124284844D01*
X140274142Y-124237941D01*
X140276546Y-124221833D01*
X140257489Y-124201286D01*
X140215764Y-124167933D01*
X140160094Y-124128702D01*
X140155422Y-124125599D01*
X140011536Y-124010423D01*
X139895517Y-123876053D01*
X139808370Y-123726784D01*
X139751101Y-123566913D01*
X139724714Y-123400737D01*
X139730215Y-123232552D01*
X139768610Y-123066655D01*
X139840905Y-122907342D01*
X139862174Y-122872487D01*
X139972804Y-122731737D01*
X140103498Y-122618714D01*
X140249736Y-122534003D01*
X140406992Y-122478194D01*
X140570743Y-122451874D01*
X140736467Y-122455630D01*
X140899638Y-122490050D01*
X141055735Y-122555723D01*
X141200233Y-122653235D01*
X141244931Y-122692813D01*
X141358688Y-122816703D01*
X141441582Y-122947124D01*
X141498444Y-123093315D01*
X141530113Y-123238088D01*
X141537931Y-123400860D01*
X141511862Y-123564440D01*
X141454555Y-123723298D01*
X141368656Y-123871906D01*
X141256814Y-124004735D01*
X141121677Y-124116256D01*
X141103917Y-124128011D01*
X141047650Y-124166508D01*
X141004877Y-124199863D01*
X140984428Y-124221160D01*
X140984131Y-124221833D01*
X140988521Y-124244871D01*
X141005924Y-124297157D01*
X141034532Y-124374390D01*
X141072535Y-124472268D01*
X141118126Y-124586491D01*
X141169497Y-124712758D01*
X141224838Y-124846767D01*
X141282342Y-124984218D01*
X141340199Y-125120808D01*
X141396602Y-125252237D01*
X141449742Y-125374205D01*
X141497810Y-125482409D01*
X141538999Y-125572549D01*
X141571499Y-125640323D01*
X141593503Y-125681430D01*
X141602364Y-125692226D01*
X141629440Y-125683819D01*
X141680103Y-125661272D01*
X141745617Y-125628613D01*
X141781641Y-125609520D01*
X141934632Y-125526800D01*
X142116888Y-125650075D01*
X142209925Y-125713228D01*
X142311785Y-125782727D01*
X142407238Y-125848165D01*
X142455050Y-125881117D01*
X142522295Y-125926273D01*
X142579236Y-125962057D01*
X142618446Y-125983938D01*
X142631181Y-125988563D01*
X142649717Y-125976085D01*
X142690741Y-125941252D01*
X142750275Y-125887678D01*
X142824342Y-125818983D01*
X142908965Y-125738781D01*
X142962485Y-125687286D01*
X143056119Y-125595286D01*
X143137041Y-125512999D01*
X143201977Y-125443945D01*
X143247658Y-125391644D01*
X143270811Y-125359616D01*
X143273032Y-125353116D01*
X143262724Y-125328394D01*
X143234239Y-125278405D01*
X143190737Y-125208212D01*
X143135377Y-125122875D01*
X143071320Y-125027456D01*
X143053103Y-125000854D01*
X142986727Y-124904167D01*
X142927178Y-124817117D01*
X142877784Y-124744595D01*
X142841875Y-124691493D01*
X142822781Y-124662703D01*
X142820936Y-124659726D01*
X142823695Y-124636782D01*
X142838338Y-124586336D01*
X142862313Y-124515041D01*
X142893066Y-124429547D01*
X142928044Y-124336507D01*
X142964693Y-124242574D01*
X143000461Y-124154399D01*
X143032794Y-124078634D01*
X143059138Y-124021931D01*
X143076942Y-123990943D01*
X143078207Y-123989457D01*
X143089094Y-123980601D01*
X143107482Y-123971843D01*
X143137406Y-123962277D01*
X143182903Y-123950996D01*
X143248009Y-123937093D01*
X143336761Y-123919663D01*
X143453193Y-123897798D01*
X143601342Y-123870591D01*
X143633418Y-123864741D01*
X143728486Y-123846374D01*
X143811365Y-123828405D01*
X143874730Y-123812569D01*
X143911258Y-123800600D01*
X143916156Y-123797810D01*
X143924227Y-123773072D01*
X143930787Y-123717790D01*
X143935833Y-123638389D01*
X143939359Y-123541296D01*
X143941361Y-123432938D01*
X143941836Y-123319740D01*
X143940777Y-123208128D01*
X143938182Y-123104529D01*
X143934046Y-123015368D01*
X143928363Y-122947072D01*
X143921131Y-122906066D01*
X143916771Y-122897674D01*
X143892498Y-122889208D01*
X143837226Y-122875435D01*
X143756462Y-122857550D01*
X143655712Y-122836748D01*
X143540483Y-122814223D01*
X143477702Y-122802418D01*
X143358587Y-122780151D01*
X143252365Y-122759979D01*
X143164227Y-122742915D01*
X143099366Y-122729969D01*
X143062974Y-122722155D01*
X143056984Y-122720422D01*
X143046861Y-122700890D01*
X143025462Y-122653843D01*
X142995639Y-122586003D01*
X142960245Y-122504091D01*
X142922132Y-122414828D01*
X142884153Y-122324935D01*
X142849160Y-122241135D01*
X142820006Y-122170147D01*
X142799543Y-122118694D01*
X142790623Y-122093497D01*
X142790457Y-122092396D01*
X142800569Y-122072519D01*
X142828917Y-122026777D01*
X142872523Y-121959717D01*
X142928406Y-121875884D01*
X142993587Y-121779826D01*
X143031479Y-121724650D01*
X143100525Y-121623481D01*
X143161850Y-121531630D01*
X143212463Y-121453744D01*
X143249371Y-121394469D01*
X143269582Y-121358451D01*
X143272501Y-121350377D01*
X143259953Y-121331584D01*
X143225263Y-121291457D01*
X143172863Y-121234493D01*
X143107184Y-121165185D01*
X143032656Y-121088031D01*
X142953713Y-121007525D01*
X142874783Y-120928163D01*
X142800300Y-120854440D01*
X142734694Y-120790852D01*
X142682396Y-120741894D01*
X142647839Y-120712061D01*
X142636278Y-120704942D01*
X142617454Y-120714953D01*
X142572431Y-120743078D01*
X142505587Y-120786454D01*
X142421299Y-120842218D01*
X142323944Y-120907506D01*
X142250507Y-120957246D01*
X141879467Y-121209551D01*
X141260895Y-120954555D01*
X141177075Y-120509931D01*
X141093254Y-120065307D01*
X140167806Y-120065307D01*
X140083986Y-120509931D01*
D11*
X117330200Y-43563600D02*
X117330200Y-73563600D01*
X137330200Y-43563600D02*
X137330200Y-73563600D01*
X137330200Y-73563600D02*
X117330200Y-73563600D01*
X137330200Y-43563600D02*
X117330200Y-43563600D01*
D12*
X132230200Y-45413600D02*
X132230200Y-45213600D01*
X122430200Y-45413600D02*
X122430200Y-45213600D01*
D13*
G36*
X140083986Y-71509931D02*
G01*
X140000165Y-71954555D01*
X139690880Y-72082053D01*
X139381594Y-72209551D01*
X139010554Y-71957246D01*
X138906643Y-71886996D01*
X138812713Y-71824272D01*
X138733148Y-71771938D01*
X138672330Y-71732857D01*
X138634643Y-71709893D01*
X138624379Y-71704942D01*
X138605890Y-71717676D01*
X138566380Y-71752882D01*
X138510278Y-71806062D01*
X138442013Y-71872718D01*
X138366014Y-71948354D01*
X138286708Y-72028472D01*
X138208525Y-72108574D01*
X138135893Y-72184164D01*
X138073241Y-72250745D01*
X138024997Y-72303818D01*
X137995590Y-72338887D01*
X137988559Y-72350623D01*
X137998677Y-72372260D01*
X138027041Y-72419662D01*
X138070671Y-72488193D01*
X138126582Y-72573215D01*
X138191794Y-72670093D01*
X138229581Y-72725350D01*
X138298457Y-72826248D01*
X138359660Y-72917299D01*
X138410222Y-72993970D01*
X138447172Y-73051728D01*
X138467542Y-73086043D01*
X138470603Y-73093254D01*
X138463664Y-73113748D01*
X138444749Y-73161513D01*
X138416713Y-73229832D01*
X138382409Y-73311989D01*
X138344691Y-73401270D01*
X138306413Y-73490958D01*
X138270430Y-73574338D01*
X138239594Y-73644694D01*
X138216761Y-73695310D01*
X138204783Y-73719471D01*
X138204076Y-73720422D01*
X138185269Y-73725036D01*
X138135182Y-73735328D01*
X138059007Y-73750287D01*
X137961935Y-73768901D01*
X137849157Y-73790159D01*
X137783358Y-73802418D01*
X137662850Y-73825362D01*
X137554003Y-73847195D01*
X137462324Y-73866722D01*
X137393319Y-73882748D01*
X137352496Y-73894079D01*
X137344289Y-73897674D01*
X137336252Y-73922006D01*
X137329767Y-73976959D01*
X137324830Y-74056108D01*
X137321436Y-74153026D01*
X137319582Y-74261287D01*
X137319262Y-74374465D01*
X137320473Y-74486135D01*
X137323210Y-74589868D01*
X137327469Y-74679241D01*
X137333245Y-74747826D01*
X137340533Y-74789197D01*
X137344905Y-74797810D01*
X137371036Y-74808133D01*
X137426407Y-74822892D01*
X137503693Y-74840352D01*
X137595570Y-74858780D01*
X137627642Y-74864741D01*
X137782276Y-74893066D01*
X137904425Y-74915876D01*
X137998127Y-74934080D01*
X138067416Y-74948583D01*
X138116329Y-74960292D01*
X138148903Y-74970115D01*
X138169172Y-74978956D01*
X138181174Y-74987724D01*
X138182853Y-74989457D01*
X138199616Y-75017371D01*
X138225186Y-75071695D01*
X138257012Y-75145777D01*
X138292540Y-75232965D01*
X138329217Y-75326608D01*
X138364489Y-75420052D01*
X138395804Y-75506647D01*
X138420607Y-75579740D01*
X138436346Y-75632678D01*
X138440468Y-75658811D01*
X138440124Y-75659726D01*
X138426159Y-75681086D01*
X138394478Y-75728084D01*
X138348409Y-75795827D01*
X138291282Y-75879423D01*
X138226427Y-75973982D01*
X138207957Y-76000854D01*
X138142101Y-76098275D01*
X138084150Y-76187163D01*
X138037262Y-76262412D01*
X138004593Y-76318920D01*
X137989300Y-76351581D01*
X137988559Y-76355593D01*
X138001408Y-76376684D01*
X138036912Y-76418464D01*
X138090507Y-76476445D01*
X138157629Y-76546135D01*
X138233713Y-76623045D01*
X138314196Y-76702683D01*
X138394513Y-76780561D01*
X138470101Y-76852186D01*
X138536395Y-76913070D01*
X138588831Y-76958721D01*
X138622845Y-76984650D01*
X138632255Y-76988883D01*
X138654157Y-76978912D01*
X138699000Y-76952020D01*
X138759479Y-76912736D01*
X138806011Y-76881117D01*
X138890325Y-76823098D01*
X138990174Y-76754784D01*
X139090327Y-76686579D01*
X139144173Y-76650075D01*
X139326429Y-76526800D01*
X139479419Y-76609520D01*
X139549118Y-76645759D01*
X139608386Y-76673926D01*
X139648489Y-76689991D01*
X139658697Y-76692226D01*
X139670971Y-76675722D01*
X139695187Y-76629082D01*
X139729537Y-76556609D01*
X139772212Y-76462606D01*
X139821406Y-76351374D01*
X139875310Y-76227215D01*
X139932116Y-76094432D01*
X139990018Y-75957327D01*
X140047207Y-75820202D01*
X140101876Y-75687358D01*
X140152216Y-75563098D01*
X140196420Y-75451725D01*
X140232681Y-75357539D01*
X140259191Y-75284844D01*
X140274142Y-75237941D01*
X140276546Y-75221833D01*
X140257489Y-75201286D01*
X140215764Y-75167933D01*
X140160094Y-75128702D01*
X140155422Y-75125599D01*
X140011536Y-75010423D01*
X139895517Y-74876053D01*
X139808370Y-74726784D01*
X139751101Y-74566913D01*
X139724714Y-74400737D01*
X139730215Y-74232552D01*
X139768610Y-74066655D01*
X139840905Y-73907342D01*
X139862174Y-73872487D01*
X139972804Y-73731737D01*
X140103498Y-73618714D01*
X140249736Y-73534003D01*
X140406992Y-73478194D01*
X140570743Y-73451874D01*
X140736467Y-73455630D01*
X140899638Y-73490050D01*
X141055735Y-73555723D01*
X141200233Y-73653235D01*
X141244931Y-73692813D01*
X141358688Y-73816703D01*
X141441582Y-73947124D01*
X141498444Y-74093315D01*
X141530113Y-74238088D01*
X141537931Y-74400860D01*
X141511862Y-74564440D01*
X141454555Y-74723298D01*
X141368656Y-74871906D01*
X141256814Y-75004735D01*
X141121677Y-75116256D01*
X141103917Y-75128011D01*
X141047650Y-75166508D01*
X141004877Y-75199863D01*
X140984428Y-75221160D01*
X140984131Y-75221833D01*
X140988521Y-75244871D01*
X141005924Y-75297157D01*
X141034532Y-75374390D01*
X141072535Y-75472268D01*
X141118126Y-75586491D01*
X141169497Y-75712758D01*
X141224838Y-75846767D01*
X141282342Y-75984218D01*
X141340199Y-76120808D01*
X141396602Y-76252237D01*
X141449742Y-76374205D01*
X141497810Y-76482409D01*
X141538999Y-76572549D01*
X141571499Y-76640323D01*
X141593503Y-76681430D01*
X141602364Y-76692226D01*
X141629440Y-76683819D01*
X141680103Y-76661272D01*
X141745617Y-76628613D01*
X141781641Y-76609520D01*
X141934632Y-76526800D01*
X142116888Y-76650075D01*
X142209925Y-76713228D01*
X142311785Y-76782727D01*
X142407238Y-76848165D01*
X142455050Y-76881117D01*
X142522295Y-76926273D01*
X142579236Y-76962057D01*
X142618446Y-76983938D01*
X142631181Y-76988563D01*
X142649717Y-76976085D01*
X142690741Y-76941252D01*
X142750275Y-76887678D01*
X142824342Y-76818983D01*
X142908965Y-76738781D01*
X142962485Y-76687286D01*
X143056119Y-76595286D01*
X143137041Y-76512999D01*
X143201977Y-76443945D01*
X143247658Y-76391644D01*
X143270811Y-76359616D01*
X143273032Y-76353116D01*
X143262724Y-76328394D01*
X143234239Y-76278405D01*
X143190737Y-76208212D01*
X143135377Y-76122875D01*
X143071320Y-76027456D01*
X143053103Y-76000854D01*
X142986727Y-75904167D01*
X142927178Y-75817117D01*
X142877784Y-75744595D01*
X142841875Y-75691493D01*
X142822781Y-75662703D01*
X142820936Y-75659726D01*
X142823695Y-75636782D01*
X142838338Y-75586336D01*
X142862313Y-75515041D01*
X142893066Y-75429547D01*
X142928044Y-75336507D01*
X142964693Y-75242574D01*
X143000461Y-75154399D01*
X143032794Y-75078634D01*
X143059138Y-75021931D01*
X143076942Y-74990943D01*
X143078207Y-74989457D01*
X143089094Y-74980601D01*
X143107482Y-74971843D01*
X143137406Y-74962277D01*
X143182903Y-74950996D01*
X143248009Y-74937093D01*
X143336761Y-74919663D01*
X143453193Y-74897798D01*
X143601342Y-74870591D01*
X143633418Y-74864741D01*
X143728486Y-74846374D01*
X143811365Y-74828405D01*
X143874730Y-74812569D01*
X143911258Y-74800600D01*
X143916156Y-74797810D01*
X143924227Y-74773072D01*
X143930787Y-74717790D01*
X143935833Y-74638389D01*
X143939359Y-74541296D01*
X143941361Y-74432938D01*
X143941836Y-74319740D01*
X143940777Y-74208128D01*
X143938182Y-74104529D01*
X143934046Y-74015368D01*
X143928363Y-73947072D01*
X143921131Y-73906066D01*
X143916771Y-73897674D01*
X143892498Y-73889208D01*
X143837226Y-73875435D01*
X143756462Y-73857550D01*
X143655712Y-73836748D01*
X143540483Y-73814223D01*
X143477702Y-73802418D01*
X143358587Y-73780151D01*
X143252365Y-73759979D01*
X143164227Y-73742915D01*
X143099366Y-73729969D01*
X143062974Y-73722155D01*
X143056984Y-73720422D01*
X143046861Y-73700890D01*
X143025462Y-73653843D01*
X142995639Y-73586003D01*
X142960245Y-73504091D01*
X142922132Y-73414828D01*
X142884153Y-73324935D01*
X142849160Y-73241135D01*
X142820006Y-73170147D01*
X142799543Y-73118694D01*
X142790623Y-73093497D01*
X142790457Y-73092396D01*
X142800569Y-73072519D01*
X142828917Y-73026777D01*
X142872523Y-72959717D01*
X142928406Y-72875884D01*
X142993587Y-72779826D01*
X143031479Y-72724650D01*
X143100525Y-72623481D01*
X143161850Y-72531630D01*
X143212463Y-72453744D01*
X143249371Y-72394469D01*
X143269582Y-72358451D01*
X143272501Y-72350377D01*
X143259953Y-72331584D01*
X143225263Y-72291457D01*
X143172863Y-72234493D01*
X143107184Y-72165185D01*
X143032656Y-72088031D01*
X142953713Y-72007525D01*
X142874783Y-71928163D01*
X142800300Y-71854440D01*
X142734694Y-71790852D01*
X142682396Y-71741894D01*
X142647839Y-71712061D01*
X142636278Y-71704942D01*
X142617454Y-71714953D01*
X142572431Y-71743078D01*
X142505587Y-71786454D01*
X142421299Y-71842218D01*
X142323944Y-71907506D01*
X142250507Y-71957246D01*
X141879467Y-72209551D01*
X141260895Y-71954555D01*
X141177075Y-71509931D01*
X141093254Y-71065307D01*
X140167806Y-71065307D01*
X140083986Y-71509931D01*
G37*
X140083986Y-71509931D02*
X140000165Y-71954555D01*
X139690880Y-72082053D01*
X139381594Y-72209551D01*
X139010554Y-71957246D01*
X138906643Y-71886996D01*
X138812713Y-71824272D01*
X138733148Y-71771938D01*
X138672330Y-71732857D01*
X138634643Y-71709893D01*
X138624379Y-71704942D01*
X138605890Y-71717676D01*
X138566380Y-71752882D01*
X138510278Y-71806062D01*
X138442013Y-71872718D01*
X138366014Y-71948354D01*
X138286708Y-72028472D01*
X138208525Y-72108574D01*
X138135893Y-72184164D01*
X138073241Y-72250745D01*
X138024997Y-72303818D01*
X137995590Y-72338887D01*
X137988559Y-72350623D01*
X137998677Y-72372260D01*
X138027041Y-72419662D01*
X138070671Y-72488193D01*
X138126582Y-72573215D01*
X138191794Y-72670093D01*
X138229581Y-72725350D01*
X138298457Y-72826248D01*
X138359660Y-72917299D01*
X138410222Y-72993970D01*
X138447172Y-73051728D01*
X138467542Y-73086043D01*
X138470603Y-73093254D01*
X138463664Y-73113748D01*
X138444749Y-73161513D01*
X138416713Y-73229832D01*
X138382409Y-73311989D01*
X138344691Y-73401270D01*
X138306413Y-73490958D01*
X138270430Y-73574338D01*
X138239594Y-73644694D01*
X138216761Y-73695310D01*
X138204783Y-73719471D01*
X138204076Y-73720422D01*
X138185269Y-73725036D01*
X138135182Y-73735328D01*
X138059007Y-73750287D01*
X137961935Y-73768901D01*
X137849157Y-73790159D01*
X137783358Y-73802418D01*
X137662850Y-73825362D01*
X137554003Y-73847195D01*
X137462324Y-73866722D01*
X137393319Y-73882748D01*
X137352496Y-73894079D01*
X137344289Y-73897674D01*
X137336252Y-73922006D01*
X137329767Y-73976959D01*
X137324830Y-74056108D01*
X137321436Y-74153026D01*
X137319582Y-74261287D01*
X137319262Y-74374465D01*
X137320473Y-74486135D01*
X137323210Y-74589868D01*
X137327469Y-74679241D01*
X137333245Y-74747826D01*
X137340533Y-74789197D01*
X137344905Y-74797810D01*
X137371036Y-74808133D01*
X137426407Y-74822892D01*
X137503693Y-74840352D01*
X137595570Y-74858780D01*
X137627642Y-74864741D01*
X137782276Y-74893066D01*
X137904425Y-74915876D01*
X137998127Y-74934080D01*
X138067416Y-74948583D01*
X138116329Y-74960292D01*
X138148903Y-74970115D01*
X138169172Y-74978956D01*
X138181174Y-74987724D01*
X138182853Y-74989457D01*
X138199616Y-75017371D01*
X138225186Y-75071695D01*
X138257012Y-75145777D01*
X138292540Y-75232965D01*
X138329217Y-75326608D01*
X138364489Y-75420052D01*
X138395804Y-75506647D01*
X138420607Y-75579740D01*
X138436346Y-75632678D01*
X138440468Y-75658811D01*
X138440124Y-75659726D01*
X138426159Y-75681086D01*
X138394478Y-75728084D01*
X138348409Y-75795827D01*
X138291282Y-75879423D01*
X138226427Y-75973982D01*
X138207957Y-76000854D01*
X138142101Y-76098275D01*
X138084150Y-76187163D01*
X138037262Y-76262412D01*
X138004593Y-76318920D01*
X137989300Y-76351581D01*
X137988559Y-76355593D01*
X138001408Y-76376684D01*
X138036912Y-76418464D01*
X138090507Y-76476445D01*
X138157629Y-76546135D01*
X138233713Y-76623045D01*
X138314196Y-76702683D01*
X138394513Y-76780561D01*
X138470101Y-76852186D01*
X138536395Y-76913070D01*
X138588831Y-76958721D01*
X138622845Y-76984650D01*
X138632255Y-76988883D01*
X138654157Y-76978912D01*
X138699000Y-76952020D01*
X138759479Y-76912736D01*
X138806011Y-76881117D01*
X138890325Y-76823098D01*
X138990174Y-76754784D01*
X139090327Y-76686579D01*
X139144173Y-76650075D01*
X139326429Y-76526800D01*
X139479419Y-76609520D01*
X139549118Y-76645759D01*
X139608386Y-76673926D01*
X139648489Y-76689991D01*
X139658697Y-76692226D01*
X139670971Y-76675722D01*
X139695187Y-76629082D01*
X139729537Y-76556609D01*
X139772212Y-76462606D01*
X139821406Y-76351374D01*
X139875310Y-76227215D01*
X139932116Y-76094432D01*
X139990018Y-75957327D01*
X140047207Y-75820202D01*
X140101876Y-75687358D01*
X140152216Y-75563098D01*
X140196420Y-75451725D01*
X140232681Y-75357539D01*
X140259191Y-75284844D01*
X140274142Y-75237941D01*
X140276546Y-75221833D01*
X140257489Y-75201286D01*
X140215764Y-75167933D01*
X140160094Y-75128702D01*
X140155422Y-75125599D01*
X140011536Y-75010423D01*
X139895517Y-74876053D01*
X139808370Y-74726784D01*
X139751101Y-74566913D01*
X139724714Y-74400737D01*
X139730215Y-74232552D01*
X139768610Y-74066655D01*
X139840905Y-73907342D01*
X139862174Y-73872487D01*
X139972804Y-73731737D01*
X140103498Y-73618714D01*
X140249736Y-73534003D01*
X140406992Y-73478194D01*
X140570743Y-73451874D01*
X140736467Y-73455630D01*
X140899638Y-73490050D01*
X141055735Y-73555723D01*
X141200233Y-73653235D01*
X141244931Y-73692813D01*
X141358688Y-73816703D01*
X141441582Y-73947124D01*
X141498444Y-74093315D01*
X141530113Y-74238088D01*
X141537931Y-74400860D01*
X141511862Y-74564440D01*
X141454555Y-74723298D01*
X141368656Y-74871906D01*
X141256814Y-75004735D01*
X141121677Y-75116256D01*
X141103917Y-75128011D01*
X141047650Y-75166508D01*
X141004877Y-75199863D01*
X140984428Y-75221160D01*
X140984131Y-75221833D01*
X140988521Y-75244871D01*
X141005924Y-75297157D01*
X141034532Y-75374390D01*
X141072535Y-75472268D01*
X141118126Y-75586491D01*
X141169497Y-75712758D01*
X141224838Y-75846767D01*
X141282342Y-75984218D01*
X141340199Y-76120808D01*
X141396602Y-76252237D01*
X141449742Y-76374205D01*
X141497810Y-76482409D01*
X141538999Y-76572549D01*
X141571499Y-76640323D01*
X141593503Y-76681430D01*
X141602364Y-76692226D01*
X141629440Y-76683819D01*
X141680103Y-76661272D01*
X141745617Y-76628613D01*
X141781641Y-76609520D01*
X141934632Y-76526800D01*
X142116888Y-76650075D01*
X142209925Y-76713228D01*
X142311785Y-76782727D01*
X142407238Y-76848165D01*
X142455050Y-76881117D01*
X142522295Y-76926273D01*
X142579236Y-76962057D01*
X142618446Y-76983938D01*
X142631181Y-76988563D01*
X142649717Y-76976085D01*
X142690741Y-76941252D01*
X142750275Y-76887678D01*
X142824342Y-76818983D01*
X142908965Y-76738781D01*
X142962485Y-76687286D01*
X143056119Y-76595286D01*
X143137041Y-76512999D01*
X143201977Y-76443945D01*
X143247658Y-76391644D01*
X143270811Y-76359616D01*
X143273032Y-76353116D01*
X143262724Y-76328394D01*
X143234239Y-76278405D01*
X143190737Y-76208212D01*
X143135377Y-76122875D01*
X143071320Y-76027456D01*
X143053103Y-76000854D01*
X142986727Y-75904167D01*
X142927178Y-75817117D01*
X142877784Y-75744595D01*
X142841875Y-75691493D01*
X142822781Y-75662703D01*
X142820936Y-75659726D01*
X142823695Y-75636782D01*
X142838338Y-75586336D01*
X142862313Y-75515041D01*
X142893066Y-75429547D01*
X142928044Y-75336507D01*
X142964693Y-75242574D01*
X143000461Y-75154399D01*
X143032794Y-75078634D01*
X143059138Y-75021931D01*
X143076942Y-74990943D01*
X143078207Y-74989457D01*
X143089094Y-74980601D01*
X143107482Y-74971843D01*
X143137406Y-74962277D01*
X143182903Y-74950996D01*
X143248009Y-74937093D01*
X143336761Y-74919663D01*
X143453193Y-74897798D01*
X143601342Y-74870591D01*
X143633418Y-74864741D01*
X143728486Y-74846374D01*
X143811365Y-74828405D01*
X143874730Y-74812569D01*
X143911258Y-74800600D01*
X143916156Y-74797810D01*
X143924227Y-74773072D01*
X143930787Y-74717790D01*
X143935833Y-74638389D01*
X143939359Y-74541296D01*
X143941361Y-74432938D01*
X143941836Y-74319740D01*
X143940777Y-74208128D01*
X143938182Y-74104529D01*
X143934046Y-74015368D01*
X143928363Y-73947072D01*
X143921131Y-73906066D01*
X143916771Y-73897674D01*
X143892498Y-73889208D01*
X143837226Y-73875435D01*
X143756462Y-73857550D01*
X143655712Y-73836748D01*
X143540483Y-73814223D01*
X143477702Y-73802418D01*
X143358587Y-73780151D01*
X143252365Y-73759979D01*
X143164227Y-73742915D01*
X143099366Y-73729969D01*
X143062974Y-73722155D01*
X143056984Y-73720422D01*
X143046861Y-73700890D01*
X143025462Y-73653843D01*
X142995639Y-73586003D01*
X142960245Y-73504091D01*
X142922132Y-73414828D01*
X142884153Y-73324935D01*
X142849160Y-73241135D01*
X142820006Y-73170147D01*
X142799543Y-73118694D01*
X142790623Y-73093497D01*
X142790457Y-73092396D01*
X142800569Y-73072519D01*
X142828917Y-73026777D01*
X142872523Y-72959717D01*
X142928406Y-72875884D01*
X142993587Y-72779826D01*
X143031479Y-72724650D01*
X143100525Y-72623481D01*
X143161850Y-72531630D01*
X143212463Y-72453744D01*
X143249371Y-72394469D01*
X143269582Y-72358451D01*
X143272501Y-72350377D01*
X143259953Y-72331584D01*
X143225263Y-72291457D01*
X143172863Y-72234493D01*
X143107184Y-72165185D01*
X143032656Y-72088031D01*
X142953713Y-72007525D01*
X142874783Y-71928163D01*
X142800300Y-71854440D01*
X142734694Y-71790852D01*
X142682396Y-71741894D01*
X142647839Y-71712061D01*
X142636278Y-71704942D01*
X142617454Y-71714953D01*
X142572431Y-71743078D01*
X142505587Y-71786454D01*
X142421299Y-71842218D01*
X142323944Y-71907506D01*
X142250507Y-71957246D01*
X141879467Y-72209551D01*
X141260895Y-71954555D01*
X141177075Y-71509931D01*
X141093254Y-71065307D01*
X140167806Y-71065307D01*
X140083986Y-71509931D01*
D11*
X132874800Y-36876000D02*
G75*
G03X133574800Y-37576000I700000J0D01*
G01*
X133574800Y-35576000D02*
G75*
G03X132874800Y-36276000I0J-700000D01*
G01*
X136974800Y-36276000D02*
G75*
G03X136274800Y-35576000I-700000J0D01*
G01*
X136274800Y-37576000D02*
G75*
G03X136974800Y-36876000I0J700000D01*
G01*
X133524800Y-37576000D02*
X136324800Y-37576000D01*
X136974800Y-36876000D02*
X136974800Y-36276000D01*
X136324800Y-35576000D02*
X133524800Y-35576000D01*
X132874800Y-36276000D02*
X132874800Y-36876000D01*
D10*
X135758133Y-86828380D02*
X135758133Y-87542666D01*
X135805752Y-87685523D01*
X135900990Y-87780761D01*
X136043847Y-87828380D01*
X136139085Y-87828380D01*
X135281942Y-87828380D02*
X135281942Y-86828380D01*
X134900990Y-86828380D01*
X134805752Y-86876000D01*
X134758133Y-86923619D01*
X134710514Y-87018857D01*
X134710514Y-87161714D01*
X134758133Y-87256952D01*
X134805752Y-87304571D01*
X134900990Y-87352190D01*
X135281942Y-87352190D01*
X133758133Y-87828380D02*
X134329561Y-87828380D01*
X134043847Y-87828380D02*
X134043847Y-86828380D01*
X134139085Y-86971238D01*
X134234323Y-87066476D01*
X134329561Y-87114095D01*
X137858133Y-85028380D02*
X137239085Y-85028380D01*
X137572419Y-85409333D01*
X137429561Y-85409333D01*
X137334323Y-85456952D01*
X137286704Y-85504571D01*
X137239085Y-85599809D01*
X137239085Y-85837904D01*
X137286704Y-85933142D01*
X137334323Y-85980761D01*
X137429561Y-86028380D01*
X137715276Y-86028380D01*
X137810514Y-85980761D01*
X137858133Y-85933142D01*
X132039085Y-86028380D02*
X132610514Y-86028380D01*
X132324800Y-86028380D02*
X132324800Y-85028380D01*
X132420038Y-85171238D01*
X132515276Y-85266476D01*
X132610514Y-85314095D01*
D14*
X128358295Y-94118123D02*
X128358295Y-95025266D01*
X128418771Y-95206695D01*
X128539723Y-95327647D01*
X128721152Y-95388123D01*
X128842104Y-95388123D01*
X127088295Y-95388123D02*
X127814009Y-95388123D01*
X127451152Y-95388123D02*
X127451152Y-94118123D01*
X127572104Y-94299552D01*
X127693057Y-94420504D01*
X127814009Y-94480980D01*
X125999723Y-94541457D02*
X125999723Y-95388123D01*
X126302104Y-94057647D02*
X126604485Y-94964790D01*
X125818295Y-94964790D01*
X128358295Y-45118123D02*
X128358295Y-46025266D01*
X128418771Y-46206695D01*
X128539723Y-46327647D01*
X128721152Y-46388123D01*
X128842104Y-46388123D01*
X127088295Y-46388123D02*
X127814009Y-46388123D01*
X127451152Y-46388123D02*
X127451152Y-45118123D01*
X127572104Y-45299552D01*
X127693057Y-45420504D01*
X127814009Y-45480980D01*
X125999723Y-45541457D02*
X125999723Y-46388123D01*
X126302104Y-45057647D02*
X126604485Y-45964790D01*
X125818295Y-45964790D01*
D10*
X135758133Y-37828380D02*
X135758133Y-38542666D01*
X135805752Y-38685523D01*
X135900990Y-38780761D01*
X136043847Y-38828380D01*
X136139085Y-38828380D01*
X135281942Y-38828380D02*
X135281942Y-37828380D01*
X134900990Y-37828380D01*
X134805752Y-37876000D01*
X134758133Y-37923619D01*
X134710514Y-38018857D01*
X134710514Y-38161714D01*
X134758133Y-38256952D01*
X134805752Y-38304571D01*
X134900990Y-38352190D01*
X135281942Y-38352190D01*
X133758133Y-38828380D02*
X134329561Y-38828380D01*
X134043847Y-38828380D02*
X134043847Y-37828380D01*
X134139085Y-37971238D01*
X134234323Y-38066476D01*
X134329561Y-38114095D01*
X132039085Y-37028380D02*
X132610514Y-37028380D01*
X132324800Y-37028380D02*
X132324800Y-36028380D01*
X132420038Y-36171238D01*
X132515276Y-36266476D01*
X132610514Y-36314095D01*
X137858133Y-36028380D02*
X137239085Y-36028380D01*
X137572419Y-36409333D01*
X137429561Y-36409333D01*
X137334323Y-36456952D01*
X137286704Y-36504571D01*
X137239085Y-36599809D01*
X137239085Y-36837904D01*
X137286704Y-36933142D01*
X137334323Y-36980761D01*
X137429561Y-37028380D01*
X137715276Y-37028380D01*
X137810514Y-36980761D01*
X137858133Y-36933142D01*
%LPC*%
D15*
X165339800Y-109671000D03*
D16*
X165339800Y-107131000D03*
X165339800Y-104591000D03*
D15*
X139939800Y-112211000D03*
D16*
X142479800Y-112211000D03*
X145019800Y-112211000D03*
X147559800Y-112211000D03*
X150099800Y-112211000D03*
X152639800Y-112211000D03*
X155179800Y-112211000D03*
X157719800Y-112211000D03*
X160259800Y-112211000D03*
X162799800Y-112211000D03*
X165339800Y-112211000D03*
D17*
X162384800Y-128616000D03*
X115904800Y-116626000D03*
D18*
X113144800Y-122621000D03*
X165134800Y-122621000D03*
D15*
X165339800Y-102051000D03*
D16*
X162799800Y-102051000D03*
X160259800Y-102051000D03*
X157719800Y-102051000D03*
X155179800Y-102051000D03*
X152639800Y-102051000D03*
X150099800Y-102051000D03*
X147559800Y-102051000D03*
X145019800Y-102051000D03*
X142479800Y-102051000D03*
X139939800Y-102051000D03*
D15*
X139939800Y-109671000D03*
D16*
X139939800Y-107131000D03*
X139939800Y-104591000D03*
D19*
X165344800Y-87206000D03*
D12*
G36*
X134184750Y-84775980D02*
G01*
X134194317Y-84778882D01*
X134203134Y-84783595D01*
X134210862Y-84789938D01*
X134217205Y-84797666D01*
X134221918Y-84806483D01*
X134224820Y-84816050D01*
X134225800Y-84826000D01*
X134225800Y-86326000D01*
X134224820Y-86335950D01*
X134221918Y-86345517D01*
X134217205Y-86354334D01*
X134210862Y-86362062D01*
X134203134Y-86368405D01*
X134194317Y-86373118D01*
X134184750Y-86376020D01*
X134174800Y-86377000D01*
X133624800Y-86377000D01*
X133618688Y-86376398D01*
X133600266Y-86376398D01*
X133595267Y-86376152D01*
X133546436Y-86371342D01*
X133541486Y-86370608D01*
X133493361Y-86361036D01*
X133488505Y-86359820D01*
X133441550Y-86345576D01*
X133436839Y-86343890D01*
X133391506Y-86325113D01*
X133386980Y-86322973D01*
X133343707Y-86299842D01*
X133339416Y-86297269D01*
X133298617Y-86270009D01*
X133294596Y-86267027D01*
X133256667Y-86235899D01*
X133252959Y-86232538D01*
X133218262Y-86197841D01*
X133214901Y-86194133D01*
X133183773Y-86156204D01*
X133180791Y-86152183D01*
X133153531Y-86111384D01*
X133150958Y-86107093D01*
X133127827Y-86063820D01*
X133125687Y-86059294D01*
X133106910Y-86013961D01*
X133105224Y-86009250D01*
X133090980Y-85962295D01*
X133089764Y-85957439D01*
X133080192Y-85909314D01*
X133079458Y-85904364D01*
X133074648Y-85855533D01*
X133074402Y-85850534D01*
X133074402Y-85832112D01*
X133073800Y-85826000D01*
X133073800Y-85326000D01*
X133074402Y-85319888D01*
X133074402Y-85301466D01*
X133074648Y-85296467D01*
X133079458Y-85247636D01*
X133080192Y-85242686D01*
X133089764Y-85194561D01*
X133090980Y-85189705D01*
X133105224Y-85142750D01*
X133106910Y-85138039D01*
X133125687Y-85092706D01*
X133127827Y-85088180D01*
X133150958Y-85044907D01*
X133153531Y-85040616D01*
X133180791Y-84999817D01*
X133183773Y-84995796D01*
X133214901Y-84957867D01*
X133218262Y-84954159D01*
X133252959Y-84919462D01*
X133256667Y-84916101D01*
X133294596Y-84884973D01*
X133298617Y-84881991D01*
X133339416Y-84854731D01*
X133343707Y-84852158D01*
X133386980Y-84829027D01*
X133391506Y-84826887D01*
X133436839Y-84808110D01*
X133441550Y-84806424D01*
X133488505Y-84792180D01*
X133493361Y-84790964D01*
X133541486Y-84781392D01*
X133546436Y-84780658D01*
X133595267Y-84775848D01*
X133600266Y-84775602D01*
X133618688Y-84775602D01*
X133624800Y-84775000D01*
X134174800Y-84775000D01*
X134184750Y-84775980D01*
G37*
G36*
X136230912Y-84775602D02*
G01*
X136249334Y-84775602D01*
X136254333Y-84775848D01*
X136303164Y-84780658D01*
X136308114Y-84781392D01*
X136356239Y-84790964D01*
X136361095Y-84792180D01*
X136408050Y-84806424D01*
X136412761Y-84808110D01*
X136458094Y-84826887D01*
X136462620Y-84829027D01*
X136505893Y-84852158D01*
X136510184Y-84854731D01*
X136550983Y-84881991D01*
X136555004Y-84884973D01*
X136592933Y-84916101D01*
X136596641Y-84919462D01*
X136631338Y-84954159D01*
X136634699Y-84957867D01*
X136665827Y-84995796D01*
X136668809Y-84999817D01*
X136696069Y-85040616D01*
X136698642Y-85044907D01*
X136721773Y-85088180D01*
X136723913Y-85092706D01*
X136742690Y-85138039D01*
X136744376Y-85142750D01*
X136758620Y-85189705D01*
X136759836Y-85194561D01*
X136769408Y-85242686D01*
X136770142Y-85247636D01*
X136774952Y-85296467D01*
X136775198Y-85301466D01*
X136775198Y-85319888D01*
X136775800Y-85326000D01*
X136775800Y-85826000D01*
X136775198Y-85832112D01*
X136775198Y-85850534D01*
X136774952Y-85855533D01*
X136770142Y-85904364D01*
X136769408Y-85909314D01*
X136759836Y-85957439D01*
X136758620Y-85962295D01*
X136744376Y-86009250D01*
X136742690Y-86013961D01*
X136723913Y-86059294D01*
X136721773Y-86063820D01*
X136698642Y-86107093D01*
X136696069Y-86111384D01*
X136668809Y-86152183D01*
X136665827Y-86156204D01*
X136634699Y-86194133D01*
X136631338Y-86197841D01*
X136596641Y-86232538D01*
X136592933Y-86235899D01*
X136555004Y-86267027D01*
X136550983Y-86270009D01*
X136510184Y-86297269D01*
X136505893Y-86299842D01*
X136462620Y-86322973D01*
X136458094Y-86325113D01*
X136412761Y-86343890D01*
X136408050Y-86345576D01*
X136361095Y-86359820D01*
X136356239Y-86361036D01*
X136308114Y-86370608D01*
X136303164Y-86371342D01*
X136254333Y-86376152D01*
X136249334Y-86376398D01*
X136230912Y-86376398D01*
X136224800Y-86377000D01*
X135674800Y-86377000D01*
X135664850Y-86376020D01*
X135655283Y-86373118D01*
X135646466Y-86368405D01*
X135638738Y-86362062D01*
X135632395Y-86354334D01*
X135627682Y-86345517D01*
X135624780Y-86335950D01*
X135623800Y-86326000D01*
X135623800Y-84826000D01*
X135624780Y-84816050D01*
X135627682Y-84806483D01*
X135632395Y-84797666D01*
X135638738Y-84789938D01*
X135646466Y-84783595D01*
X135655283Y-84778882D01*
X135664850Y-84775980D01*
X135674800Y-84775000D01*
X136224800Y-84775000D01*
X136230912Y-84775602D01*
G37*
D20*
X134924800Y-85576000D03*
D19*
X172344800Y-107206000D03*
X115344800Y-127206000D03*
D21*
X172754800Y-123041000D03*
D22*
X172754800Y-119541000D03*
X172754800Y-116041000D03*
D17*
X115814800Y-85796000D03*
X162294800Y-97786000D03*
D18*
X165054800Y-91791000D03*
X113064800Y-91791000D03*
D19*
X108344800Y-107206000D03*
D23*
X131130200Y-95188600D03*
X131130200Y-93438600D03*
X130730200Y-95188600D03*
X130730200Y-93438600D03*
X130330200Y-95188600D03*
X130330200Y-93438600D03*
X129930200Y-95188600D03*
X129930200Y-93438600D03*
X129530200Y-95188600D03*
X129530200Y-93438600D03*
X129130200Y-95188600D03*
X129130200Y-93438600D03*
X128730200Y-95188600D03*
X128730200Y-93438600D03*
X128330200Y-95188600D03*
X128330200Y-93438600D03*
X127930200Y-95188600D03*
X127930200Y-93438600D03*
X127530200Y-95188600D03*
X127530200Y-93438600D03*
X127130200Y-95188600D03*
X127130200Y-93438600D03*
X126730200Y-95188600D03*
X126730200Y-93438600D03*
X126330200Y-95188600D03*
X126330200Y-93438600D03*
X125930200Y-95188600D03*
X125930200Y-93438600D03*
X125530200Y-95188600D03*
X125530200Y-93438600D03*
X125130200Y-95188600D03*
X125130200Y-93438600D03*
X124730200Y-95188600D03*
X124730200Y-93438600D03*
X124330200Y-95188600D03*
X124330200Y-93438600D03*
X123930200Y-95188600D03*
X123930200Y-93438600D03*
X123530200Y-95188600D03*
X123530200Y-93438600D03*
D24*
X122725200Y-93748600D03*
X122725200Y-94878600D03*
X131935200Y-93748600D03*
X131935200Y-94878600D03*
D15*
X142479800Y-109671000D03*
D16*
X145019800Y-109671000D03*
X147559800Y-109671000D03*
X150099800Y-109671000D03*
X152639800Y-109671000D03*
X155179800Y-109671000D03*
X157719800Y-109671000D03*
X160259800Y-109671000D03*
X162799800Y-109671000D03*
D21*
X172754800Y-98106000D03*
D22*
X172754800Y-94606000D03*
X172754800Y-91106000D03*
D15*
X142479800Y-107131000D03*
D16*
X145019800Y-107131000D03*
X147559800Y-107131000D03*
X150099800Y-107131000D03*
X152639800Y-107131000D03*
X155179800Y-107131000D03*
X157719800Y-107131000D03*
X160259800Y-107131000D03*
X162799800Y-107131000D03*
D15*
X142479800Y-104591000D03*
D16*
X145019800Y-104591000D03*
X147559800Y-104591000D03*
X150099800Y-104591000D03*
X152639800Y-104591000D03*
X155179800Y-104591000D03*
X157719800Y-104591000D03*
X160259800Y-104591000D03*
X162799800Y-104591000D03*
D24*
X131935200Y-45878600D03*
X131935200Y-44748600D03*
X122725200Y-45878600D03*
X122725200Y-44748600D03*
D23*
X123530200Y-44438600D03*
X123530200Y-46188600D03*
X123930200Y-44438600D03*
X123930200Y-46188600D03*
X124330200Y-44438600D03*
X124330200Y-46188600D03*
X124730200Y-44438600D03*
X124730200Y-46188600D03*
X125130200Y-44438600D03*
X125130200Y-46188600D03*
X125530200Y-44438600D03*
X125530200Y-46188600D03*
X125930200Y-44438600D03*
X125930200Y-46188600D03*
X126330200Y-44438600D03*
X126330200Y-46188600D03*
X126730200Y-44438600D03*
X126730200Y-46188600D03*
X127130200Y-44438600D03*
X127130200Y-46188600D03*
X127530200Y-44438600D03*
X127530200Y-46188600D03*
X127930200Y-44438600D03*
X127930200Y-46188600D03*
X128330200Y-44438600D03*
X128330200Y-46188600D03*
X128730200Y-44438600D03*
X128730200Y-46188600D03*
X129130200Y-44438600D03*
X129130200Y-46188600D03*
X129530200Y-44438600D03*
X129530200Y-46188600D03*
X129930200Y-44438600D03*
X129930200Y-46188600D03*
X130330200Y-44438600D03*
X130330200Y-46188600D03*
X130730200Y-44438600D03*
X130730200Y-46188600D03*
X131130200Y-44438600D03*
X131130200Y-46188600D03*
D16*
X162799800Y-55591000D03*
X160259800Y-55591000D03*
X157719800Y-55591000D03*
X155179800Y-55591000D03*
X152639800Y-55591000D03*
X150099800Y-55591000D03*
X147559800Y-55591000D03*
X145019800Y-55591000D03*
D15*
X142479800Y-55591000D03*
D16*
X162799800Y-58131000D03*
X160259800Y-58131000D03*
X157719800Y-58131000D03*
X155179800Y-58131000D03*
X152639800Y-58131000D03*
X150099800Y-58131000D03*
X147559800Y-58131000D03*
X145019800Y-58131000D03*
D15*
X142479800Y-58131000D03*
D16*
X162799800Y-60671000D03*
X160259800Y-60671000D03*
X157719800Y-60671000D03*
X155179800Y-60671000D03*
X152639800Y-60671000D03*
X150099800Y-60671000D03*
X147559800Y-60671000D03*
X145019800Y-60671000D03*
D15*
X142479800Y-60671000D03*
D22*
X172754800Y-42106000D03*
X172754800Y-45606000D03*
D21*
X172754800Y-49106000D03*
D16*
X139939800Y-53051000D03*
X142479800Y-53051000D03*
X145019800Y-53051000D03*
X147559800Y-53051000D03*
X150099800Y-53051000D03*
X152639800Y-53051000D03*
X155179800Y-53051000D03*
X157719800Y-53051000D03*
X160259800Y-53051000D03*
X162799800Y-53051000D03*
D15*
X165339800Y-53051000D03*
D16*
X165339800Y-63211000D03*
X162799800Y-63211000D03*
X160259800Y-63211000D03*
X157719800Y-63211000D03*
X155179800Y-63211000D03*
X152639800Y-63211000D03*
X150099800Y-63211000D03*
X147559800Y-63211000D03*
X145019800Y-63211000D03*
X142479800Y-63211000D03*
D15*
X139939800Y-63211000D03*
D16*
X139939800Y-55591000D03*
X139939800Y-58131000D03*
D15*
X139939800Y-60671000D03*
D16*
X165339800Y-55591000D03*
X165339800Y-58131000D03*
D15*
X165339800Y-60671000D03*
D18*
X113064800Y-42791000D03*
X165054800Y-42791000D03*
D17*
X162294800Y-48786000D03*
X115814800Y-36796000D03*
D22*
X172754800Y-67041000D03*
X172754800Y-70541000D03*
D21*
X172754800Y-74041000D03*
D20*
X134924800Y-36576000D03*
D12*
G36*
X136230912Y-35775602D02*
G01*
X136249334Y-35775602D01*
X136254333Y-35775848D01*
X136303164Y-35780658D01*
X136308114Y-35781392D01*
X136356239Y-35790964D01*
X136361095Y-35792180D01*
X136408050Y-35806424D01*
X136412761Y-35808110D01*
X136458094Y-35826887D01*
X136462620Y-35829027D01*
X136505893Y-35852158D01*
X136510184Y-35854731D01*
X136550983Y-35881991D01*
X136555004Y-35884973D01*
X136592933Y-35916101D01*
X136596641Y-35919462D01*
X136631338Y-35954159D01*
X136634699Y-35957867D01*
X136665827Y-35995796D01*
X136668809Y-35999817D01*
X136696069Y-36040616D01*
X136698642Y-36044907D01*
X136721773Y-36088180D01*
X136723913Y-36092706D01*
X136742690Y-36138039D01*
X136744376Y-36142750D01*
X136758620Y-36189705D01*
X136759836Y-36194561D01*
X136769408Y-36242686D01*
X136770142Y-36247636D01*
X136774952Y-36296467D01*
X136775198Y-36301466D01*
X136775198Y-36319888D01*
X136775800Y-36326000D01*
X136775800Y-36826000D01*
X136775198Y-36832112D01*
X136775198Y-36850534D01*
X136774952Y-36855533D01*
X136770142Y-36904364D01*
X136769408Y-36909314D01*
X136759836Y-36957439D01*
X136758620Y-36962295D01*
X136744376Y-37009250D01*
X136742690Y-37013961D01*
X136723913Y-37059294D01*
X136721773Y-37063820D01*
X136698642Y-37107093D01*
X136696069Y-37111384D01*
X136668809Y-37152183D01*
X136665827Y-37156204D01*
X136634699Y-37194133D01*
X136631338Y-37197841D01*
X136596641Y-37232538D01*
X136592933Y-37235899D01*
X136555004Y-37267027D01*
X136550983Y-37270009D01*
X136510184Y-37297269D01*
X136505893Y-37299842D01*
X136462620Y-37322973D01*
X136458094Y-37325113D01*
X136412761Y-37343890D01*
X136408050Y-37345576D01*
X136361095Y-37359820D01*
X136356239Y-37361036D01*
X136308114Y-37370608D01*
X136303164Y-37371342D01*
X136254333Y-37376152D01*
X136249334Y-37376398D01*
X136230912Y-37376398D01*
X136224800Y-37377000D01*
X135674800Y-37377000D01*
X135664850Y-37376020D01*
X135655283Y-37373118D01*
X135646466Y-37368405D01*
X135638738Y-37362062D01*
X135632395Y-37354334D01*
X135627682Y-37345517D01*
X135624780Y-37335950D01*
X135623800Y-37326000D01*
X135623800Y-35826000D01*
X135624780Y-35816050D01*
X135627682Y-35806483D01*
X135632395Y-35797666D01*
X135638738Y-35789938D01*
X135646466Y-35783595D01*
X135655283Y-35778882D01*
X135664850Y-35775980D01*
X135674800Y-35775000D01*
X136224800Y-35775000D01*
X136230912Y-35775602D01*
G37*
G36*
X134184750Y-35775980D02*
G01*
X134194317Y-35778882D01*
X134203134Y-35783595D01*
X134210862Y-35789938D01*
X134217205Y-35797666D01*
X134221918Y-35806483D01*
X134224820Y-35816050D01*
X134225800Y-35826000D01*
X134225800Y-37326000D01*
X134224820Y-37335950D01*
X134221918Y-37345517D01*
X134217205Y-37354334D01*
X134210862Y-37362062D01*
X134203134Y-37368405D01*
X134194317Y-37373118D01*
X134184750Y-37376020D01*
X134174800Y-37377000D01*
X133624800Y-37377000D01*
X133618688Y-37376398D01*
X133600266Y-37376398D01*
X133595267Y-37376152D01*
X133546436Y-37371342D01*
X133541486Y-37370608D01*
X133493361Y-37361036D01*
X133488505Y-37359820D01*
X133441550Y-37345576D01*
X133436839Y-37343890D01*
X133391506Y-37325113D01*
X133386980Y-37322973D01*
X133343707Y-37299842D01*
X133339416Y-37297269D01*
X133298617Y-37270009D01*
X133294596Y-37267027D01*
X133256667Y-37235899D01*
X133252959Y-37232538D01*
X133218262Y-37197841D01*
X133214901Y-37194133D01*
X133183773Y-37156204D01*
X133180791Y-37152183D01*
X133153531Y-37111384D01*
X133150958Y-37107093D01*
X133127827Y-37063820D01*
X133125687Y-37059294D01*
X133106910Y-37013961D01*
X133105224Y-37009250D01*
X133090980Y-36962295D01*
X133089764Y-36957439D01*
X133080192Y-36909314D01*
X133079458Y-36904364D01*
X133074648Y-36855533D01*
X133074402Y-36850534D01*
X133074402Y-36832112D01*
X133073800Y-36826000D01*
X133073800Y-36326000D01*
X133074402Y-36319888D01*
X133074402Y-36301466D01*
X133074648Y-36296467D01*
X133079458Y-36247636D01*
X133080192Y-36242686D01*
X133089764Y-36194561D01*
X133090980Y-36189705D01*
X133105224Y-36142750D01*
X133106910Y-36138039D01*
X133125687Y-36092706D01*
X133127827Y-36088180D01*
X133150958Y-36044907D01*
X133153531Y-36040616D01*
X133180791Y-35999817D01*
X133183773Y-35995796D01*
X133214901Y-35957867D01*
X133218262Y-35954159D01*
X133252959Y-35919462D01*
X133256667Y-35916101D01*
X133294596Y-35884973D01*
X133298617Y-35881991D01*
X133339416Y-35854731D01*
X133343707Y-35852158D01*
X133386980Y-35829027D01*
X133391506Y-35826887D01*
X133436839Y-35808110D01*
X133441550Y-35806424D01*
X133488505Y-35792180D01*
X133493361Y-35790964D01*
X133541486Y-35781392D01*
X133546436Y-35780658D01*
X133595267Y-35775848D01*
X133600266Y-35775602D01*
X133618688Y-35775602D01*
X133624800Y-35775000D01*
X134174800Y-35775000D01*
X134184750Y-35775980D01*
G37*
D18*
X165134800Y-73621000D03*
X113144800Y-73621000D03*
D17*
X115904800Y-67626000D03*
X162384800Y-79616000D03*
D19*
X108344800Y-58206000D03*
X115344800Y-78206000D03*
X165344800Y-38206000D03*
X172344800Y-58206000D03*
M02*
