G04 #@! TF.GenerationSoftware,KiCad,Pcbnew,5.1.5-52549c5~86~ubuntu18.04.1*
G04 #@! TF.CreationDate,2020-11-21T17:49:09-05:00*
G04 #@! TF.ProjectId,,58585858-5858-4585-9858-585858585858,rev?*
G04 #@! TF.SameCoordinates,Original*
G04 #@! TF.FileFunction,Legend,Top*
G04 #@! TF.FilePolarity,Positive*
%FSLAX46Y46*%
G04 Gerber Fmt 4.6, Leading zero omitted, Abs format (unit mm)*
G04 Created by KiCad (PCBNEW 5.1.5-52549c5~86~ubuntu18.04.1) date 2020-11-21 17:49:09*
%MOMM*%
%LPD*%
G04 APERTURE LIST*
%ADD10C,0.150000*%
%ADD11C,0.120000*%
%ADD12C,1.802000*%
%ADD13O,1.802000X1.802000*%
%ADD14C,2.742000*%
%ADD15C,2.102000*%
%ADD16C,3.102000*%
%ADD17R,2.502000X2.502000*%
%ADD18C,2.502000*%
G04 APERTURE END LIST*
D10*
X115811942Y-105968380D02*
X115478609Y-105492190D01*
X115240514Y-105968380D02*
X115240514Y-104968380D01*
X115621466Y-104968380D01*
X115716704Y-105016000D01*
X115764323Y-105063619D01*
X115811942Y-105158857D01*
X115811942Y-105301714D01*
X115764323Y-105396952D01*
X115716704Y-105444571D01*
X115621466Y-105492190D01*
X115240514Y-105492190D01*
X116192895Y-105682666D02*
X116669085Y-105682666D01*
X116097657Y-105968380D02*
X116430990Y-104968380D01*
X116764323Y-105968380D01*
X117097657Y-105968380D02*
X117097657Y-104968380D01*
X117669085Y-105968380D02*
X117240514Y-105396952D01*
X117669085Y-104968380D02*
X117097657Y-105539809D01*
X118526228Y-105301714D02*
X118526228Y-105968380D01*
X118288133Y-104920761D02*
X118050038Y-105635047D01*
X118669085Y-105635047D01*
X119478609Y-104968380D02*
X119288133Y-104968380D01*
X119192895Y-105016000D01*
X119145276Y-105063619D01*
X119050038Y-105206476D01*
X119002419Y-105396952D01*
X119002419Y-105777904D01*
X119050038Y-105873142D01*
X119097657Y-105920761D01*
X119192895Y-105968380D01*
X119383371Y-105968380D01*
X119478609Y-105920761D01*
X119526228Y-105873142D01*
X119573847Y-105777904D01*
X119573847Y-105539809D01*
X119526228Y-105444571D01*
X119478609Y-105396952D01*
X119383371Y-105349333D01*
X119192895Y-105349333D01*
X119097657Y-105396952D01*
X119050038Y-105444571D01*
X119002419Y-105539809D01*
X119907180Y-104968380D02*
X120526228Y-104968380D01*
X120192895Y-105349333D01*
X120335752Y-105349333D01*
X120430990Y-105396952D01*
X120478609Y-105444571D01*
X120526228Y-105539809D01*
X120526228Y-105777904D01*
X120478609Y-105873142D01*
X120430990Y-105920761D01*
X120335752Y-105968380D01*
X120050038Y-105968380D01*
X119954800Y-105920761D01*
X119907180Y-105873142D01*
X121478609Y-105968380D02*
X120907180Y-105968380D01*
X121192895Y-105968380D02*
X121192895Y-104968380D01*
X121097657Y-105111238D01*
X121002419Y-105206476D01*
X120907180Y-105254095D01*
X123145276Y-105968380D02*
X122669085Y-105968380D01*
X122669085Y-104968380D01*
X123669085Y-104968380D02*
X123859561Y-104968380D01*
X123954800Y-105016000D01*
X124050038Y-105111238D01*
X124097657Y-105301714D01*
X124097657Y-105635047D01*
X124050038Y-105825523D01*
X123954800Y-105920761D01*
X123859561Y-105968380D01*
X123669085Y-105968380D01*
X123573847Y-105920761D01*
X123478609Y-105825523D01*
X123430990Y-105635047D01*
X123430990Y-105301714D01*
X123478609Y-105111238D01*
X123573847Y-105016000D01*
X123669085Y-104968380D01*
X125097657Y-105968380D02*
X124764323Y-105492190D01*
X124526228Y-105968380D02*
X124526228Y-104968380D01*
X124907180Y-104968380D01*
X125002419Y-105016000D01*
X125050038Y-105063619D01*
X125097657Y-105158857D01*
X125097657Y-105301714D01*
X125050038Y-105396952D01*
X125002419Y-105444571D01*
X124907180Y-105492190D01*
X124526228Y-105492190D01*
X125478609Y-105682666D02*
X125954800Y-105682666D01*
X125383371Y-105968380D02*
X125716704Y-104968380D01*
X126050038Y-105968380D01*
X114740514Y-107332666D02*
X115216704Y-107332666D01*
X114645276Y-107618380D02*
X114978609Y-106618380D01*
X115311942Y-107618380D01*
X115645276Y-107618380D02*
X115645276Y-106618380D01*
X115883371Y-106618380D01*
X116026228Y-106666000D01*
X116121466Y-106761238D01*
X116169085Y-106856476D01*
X116216704Y-107046952D01*
X116216704Y-107189809D01*
X116169085Y-107380285D01*
X116121466Y-107475523D01*
X116026228Y-107570761D01*
X115883371Y-107618380D01*
X115645276Y-107618380D01*
X116597657Y-107332666D02*
X117073847Y-107332666D01*
X116502419Y-107618380D02*
X116835752Y-106618380D01*
X117169085Y-107618380D01*
X117502419Y-107618380D02*
X117502419Y-106618380D01*
X117883371Y-106618380D01*
X117978609Y-106666000D01*
X118026228Y-106713619D01*
X118073847Y-106808857D01*
X118073847Y-106951714D01*
X118026228Y-107046952D01*
X117978609Y-107094571D01*
X117883371Y-107142190D01*
X117502419Y-107142190D01*
X118359561Y-106618380D02*
X118930990Y-106618380D01*
X118645276Y-107618380D02*
X118645276Y-106618380D01*
X119216704Y-107332666D02*
X119692895Y-107332666D01*
X119121466Y-107618380D02*
X119454800Y-106618380D01*
X119788133Y-107618380D01*
X120454800Y-107094571D02*
X120597657Y-107142190D01*
X120645276Y-107189809D01*
X120692895Y-107285047D01*
X120692895Y-107427904D01*
X120645276Y-107523142D01*
X120597657Y-107570761D01*
X120502419Y-107618380D01*
X120121466Y-107618380D01*
X120121466Y-106618380D01*
X120454800Y-106618380D01*
X120550038Y-106666000D01*
X120597657Y-106713619D01*
X120645276Y-106808857D01*
X120645276Y-106904095D01*
X120597657Y-106999333D01*
X120550038Y-107046952D01*
X120454800Y-107094571D01*
X120121466Y-107094571D01*
X121597657Y-107618380D02*
X121121466Y-107618380D01*
X121121466Y-106618380D01*
X121930990Y-107094571D02*
X122264323Y-107094571D01*
X122407180Y-107618380D02*
X121930990Y-107618380D01*
X121930990Y-106618380D01*
X122407180Y-106618380D01*
X123597657Y-107618380D02*
X123597657Y-106618380D01*
X124169085Y-107618380D01*
X124169085Y-106618380D01*
X124835752Y-106618380D02*
X125026228Y-106618380D01*
X125121466Y-106666000D01*
X125216704Y-106761238D01*
X125264323Y-106951714D01*
X125264323Y-107285047D01*
X125216704Y-107475523D01*
X125121466Y-107570761D01*
X125026228Y-107618380D01*
X124835752Y-107618380D01*
X124740514Y-107570761D01*
X124645276Y-107475523D01*
X124597657Y-107285047D01*
X124597657Y-106951714D01*
X124645276Y-106761238D01*
X124740514Y-106666000D01*
X124835752Y-106618380D01*
X125692895Y-107618380D02*
X125692895Y-106618380D01*
X125930990Y-106618380D01*
X126073847Y-106666000D01*
X126169085Y-106761238D01*
X126216704Y-106856476D01*
X126264323Y-107046952D01*
X126264323Y-107189809D01*
X126216704Y-107380285D01*
X126169085Y-107475523D01*
X126073847Y-107570761D01*
X125930990Y-107618380D01*
X125692895Y-107618380D01*
X126692895Y-107094571D02*
X127026228Y-107094571D01*
X127169085Y-107618380D02*
X126692895Y-107618380D01*
X126692895Y-106618380D01*
X127169085Y-106618380D01*
X119764323Y-108268380D02*
X120097657Y-109268380D01*
X120430990Y-108268380D01*
X121716704Y-108268380D02*
X121811942Y-108268380D01*
X121907180Y-108316000D01*
X121954800Y-108363619D01*
X122002419Y-108458857D01*
X122050038Y-108649333D01*
X122050038Y-108887428D01*
X122002419Y-109077904D01*
X121954800Y-109173142D01*
X121907180Y-109220761D01*
X121811942Y-109268380D01*
X121716704Y-109268380D01*
X121621466Y-109220761D01*
X121573847Y-109173142D01*
X121526228Y-109077904D01*
X121478609Y-108887428D01*
X121478609Y-108649333D01*
X121526228Y-108458857D01*
X121573847Y-108363619D01*
X121621466Y-108316000D01*
X121716704Y-108268380D01*
X176886466Y-123466000D02*
X177586466Y-123299333D01*
X177086466Y-123166000D01*
X177586466Y-123032666D01*
X176886466Y-122866000D01*
X176886466Y-119999333D02*
X177586466Y-119532666D01*
X176886466Y-119532666D02*
X177586466Y-119999333D01*
X177253133Y-116466000D02*
X177586466Y-116466000D01*
X176886466Y-116699333D02*
X177253133Y-116466000D01*
X176886466Y-116232666D01*
X176886466Y-98632666D02*
X176886466Y-98166000D01*
X177586466Y-98632666D01*
X177586466Y-98166000D01*
X176919800Y-95399333D02*
X176886466Y-95466000D01*
X176886466Y-95566000D01*
X176919800Y-95666000D01*
X176986466Y-95732666D01*
X177053133Y-95766000D01*
X177186466Y-95799333D01*
X177286466Y-95799333D01*
X177419800Y-95766000D01*
X177486466Y-95732666D01*
X177553133Y-95666000D01*
X177586466Y-95566000D01*
X177586466Y-95499333D01*
X177553133Y-95399333D01*
X177519800Y-95366000D01*
X177286466Y-95366000D01*
X177286466Y-95499333D01*
X177586466Y-95066000D02*
X176886466Y-95066000D01*
X177586466Y-94666000D01*
X176886466Y-94666000D01*
X177586466Y-94332666D02*
X176886466Y-94332666D01*
X176886466Y-94166000D01*
X176919800Y-94066000D01*
X176986466Y-93999333D01*
X177053133Y-93966000D01*
X177186466Y-93932666D01*
X177286466Y-93932666D01*
X177419800Y-93966000D01*
X177486466Y-93999333D01*
X177553133Y-94066000D01*
X177586466Y-94166000D01*
X177586466Y-94332666D01*
X176886466Y-92132666D02*
X177586466Y-91899333D01*
X176886466Y-91666000D01*
X177519800Y-91032666D02*
X177553133Y-91066000D01*
X177586466Y-91166000D01*
X177586466Y-91232666D01*
X177553133Y-91332666D01*
X177486466Y-91399333D01*
X177419800Y-91432666D01*
X177286466Y-91466000D01*
X177186466Y-91466000D01*
X177053133Y-91432666D01*
X176986466Y-91399333D01*
X176919800Y-91332666D01*
X176886466Y-91232666D01*
X176886466Y-91166000D01*
X176919800Y-91066000D01*
X176953133Y-91032666D01*
X177519800Y-90332666D02*
X177553133Y-90366000D01*
X177586466Y-90466000D01*
X177586466Y-90532666D01*
X177553133Y-90632666D01*
X177486466Y-90699333D01*
X177419800Y-90732666D01*
X177286466Y-90766000D01*
X177186466Y-90766000D01*
X177053133Y-90732666D01*
X176986466Y-90699333D01*
X176919800Y-90632666D01*
X176886466Y-90532666D01*
X176886466Y-90466000D01*
X176919800Y-90366000D01*
X176953133Y-90332666D01*
X176886466Y-74466000D02*
X177586466Y-74299333D01*
X177086466Y-74166000D01*
X177586466Y-74032666D01*
X176886466Y-73866000D01*
X176886466Y-70999333D02*
X177586466Y-70532666D01*
X176886466Y-70532666D02*
X177586466Y-70999333D01*
X177253133Y-67466000D02*
X177586466Y-67466000D01*
X176886466Y-67699333D02*
X177253133Y-67466000D01*
X176886466Y-67232666D01*
X176886466Y-49632666D02*
X176886466Y-49166000D01*
X177586466Y-49632666D01*
X177586466Y-49166000D01*
X176919800Y-46399333D02*
X176886466Y-46466000D01*
X176886466Y-46566000D01*
X176919800Y-46666000D01*
X176986466Y-46732666D01*
X177053133Y-46766000D01*
X177186466Y-46799333D01*
X177286466Y-46799333D01*
X177419800Y-46766000D01*
X177486466Y-46732666D01*
X177553133Y-46666000D01*
X177586466Y-46566000D01*
X177586466Y-46499333D01*
X177553133Y-46399333D01*
X177519800Y-46366000D01*
X177286466Y-46366000D01*
X177286466Y-46499333D01*
X177586466Y-46066000D02*
X176886466Y-46066000D01*
X177586466Y-45666000D01*
X176886466Y-45666000D01*
X177586466Y-45332666D02*
X176886466Y-45332666D01*
X176886466Y-45166000D01*
X176919800Y-45066000D01*
X176986466Y-44999333D01*
X177053133Y-44966000D01*
X177186466Y-44932666D01*
X177286466Y-44932666D01*
X177419800Y-44966000D01*
X177486466Y-44999333D01*
X177553133Y-45066000D01*
X177586466Y-45166000D01*
X177586466Y-45332666D01*
X176886466Y-43132666D02*
X177586466Y-42899333D01*
X176886466Y-42666000D01*
X177519800Y-42032666D02*
X177553133Y-42066000D01*
X177586466Y-42166000D01*
X177586466Y-42232666D01*
X177553133Y-42332666D01*
X177486466Y-42399333D01*
X177419800Y-42432666D01*
X177286466Y-42466000D01*
X177186466Y-42466000D01*
X177053133Y-42432666D01*
X176986466Y-42399333D01*
X176919800Y-42332666D01*
X176886466Y-42232666D01*
X176886466Y-42166000D01*
X176919800Y-42066000D01*
X176953133Y-42032666D01*
X177519800Y-41332666D02*
X177553133Y-41366000D01*
X177586466Y-41466000D01*
X177586466Y-41532666D01*
X177553133Y-41632666D01*
X177486466Y-41699333D01*
X177419800Y-41732666D01*
X177286466Y-41766000D01*
X177186466Y-41766000D01*
X177053133Y-41732666D01*
X176986466Y-41699333D01*
X176919800Y-41632666D01*
X176886466Y-41532666D01*
X176886466Y-41466000D01*
X176919800Y-41366000D01*
X176953133Y-41332666D01*
X115811942Y-56968380D02*
X115478609Y-56492190D01*
X115240514Y-56968380D02*
X115240514Y-55968380D01*
X115621466Y-55968380D01*
X115716704Y-56016000D01*
X115764323Y-56063619D01*
X115811942Y-56158857D01*
X115811942Y-56301714D01*
X115764323Y-56396952D01*
X115716704Y-56444571D01*
X115621466Y-56492190D01*
X115240514Y-56492190D01*
X116192895Y-56682666D02*
X116669085Y-56682666D01*
X116097657Y-56968380D02*
X116430990Y-55968380D01*
X116764323Y-56968380D01*
X117097657Y-56968380D02*
X117097657Y-55968380D01*
X117669085Y-56968380D02*
X117240514Y-56396952D01*
X117669085Y-55968380D02*
X117097657Y-56539809D01*
X118526228Y-56301714D02*
X118526228Y-56968380D01*
X118288133Y-55920761D02*
X118050038Y-56635047D01*
X118669085Y-56635047D01*
X119478609Y-55968380D02*
X119288133Y-55968380D01*
X119192895Y-56016000D01*
X119145276Y-56063619D01*
X119050038Y-56206476D01*
X119002419Y-56396952D01*
X119002419Y-56777904D01*
X119050038Y-56873142D01*
X119097657Y-56920761D01*
X119192895Y-56968380D01*
X119383371Y-56968380D01*
X119478609Y-56920761D01*
X119526228Y-56873142D01*
X119573847Y-56777904D01*
X119573847Y-56539809D01*
X119526228Y-56444571D01*
X119478609Y-56396952D01*
X119383371Y-56349333D01*
X119192895Y-56349333D01*
X119097657Y-56396952D01*
X119050038Y-56444571D01*
X119002419Y-56539809D01*
X119907180Y-55968380D02*
X120526228Y-55968380D01*
X120192895Y-56349333D01*
X120335752Y-56349333D01*
X120430990Y-56396952D01*
X120478609Y-56444571D01*
X120526228Y-56539809D01*
X120526228Y-56777904D01*
X120478609Y-56873142D01*
X120430990Y-56920761D01*
X120335752Y-56968380D01*
X120050038Y-56968380D01*
X119954800Y-56920761D01*
X119907180Y-56873142D01*
X121478609Y-56968380D02*
X120907180Y-56968380D01*
X121192895Y-56968380D02*
X121192895Y-55968380D01*
X121097657Y-56111238D01*
X121002419Y-56206476D01*
X120907180Y-56254095D01*
X123145276Y-56968380D02*
X122669085Y-56968380D01*
X122669085Y-55968380D01*
X123669085Y-55968380D02*
X123859561Y-55968380D01*
X123954800Y-56016000D01*
X124050038Y-56111238D01*
X124097657Y-56301714D01*
X124097657Y-56635047D01*
X124050038Y-56825523D01*
X123954800Y-56920761D01*
X123859561Y-56968380D01*
X123669085Y-56968380D01*
X123573847Y-56920761D01*
X123478609Y-56825523D01*
X123430990Y-56635047D01*
X123430990Y-56301714D01*
X123478609Y-56111238D01*
X123573847Y-56016000D01*
X123669085Y-55968380D01*
X125097657Y-56968380D02*
X124764323Y-56492190D01*
X124526228Y-56968380D02*
X124526228Y-55968380D01*
X124907180Y-55968380D01*
X125002419Y-56016000D01*
X125050038Y-56063619D01*
X125097657Y-56158857D01*
X125097657Y-56301714D01*
X125050038Y-56396952D01*
X125002419Y-56444571D01*
X124907180Y-56492190D01*
X124526228Y-56492190D01*
X125478609Y-56682666D02*
X125954800Y-56682666D01*
X125383371Y-56968380D02*
X125716704Y-55968380D01*
X126050038Y-56968380D01*
X114740514Y-58332666D02*
X115216704Y-58332666D01*
X114645276Y-58618380D02*
X114978609Y-57618380D01*
X115311942Y-58618380D01*
X115645276Y-58618380D02*
X115645276Y-57618380D01*
X115883371Y-57618380D01*
X116026228Y-57666000D01*
X116121466Y-57761238D01*
X116169085Y-57856476D01*
X116216704Y-58046952D01*
X116216704Y-58189809D01*
X116169085Y-58380285D01*
X116121466Y-58475523D01*
X116026228Y-58570761D01*
X115883371Y-58618380D01*
X115645276Y-58618380D01*
X116597657Y-58332666D02*
X117073847Y-58332666D01*
X116502419Y-58618380D02*
X116835752Y-57618380D01*
X117169085Y-58618380D01*
X117502419Y-58618380D02*
X117502419Y-57618380D01*
X117883371Y-57618380D01*
X117978609Y-57666000D01*
X118026228Y-57713619D01*
X118073847Y-57808857D01*
X118073847Y-57951714D01*
X118026228Y-58046952D01*
X117978609Y-58094571D01*
X117883371Y-58142190D01*
X117502419Y-58142190D01*
X118359561Y-57618380D02*
X118930990Y-57618380D01*
X118645276Y-58618380D02*
X118645276Y-57618380D01*
X119216704Y-58332666D02*
X119692895Y-58332666D01*
X119121466Y-58618380D02*
X119454800Y-57618380D01*
X119788133Y-58618380D01*
X120454800Y-58094571D02*
X120597657Y-58142190D01*
X120645276Y-58189809D01*
X120692895Y-58285047D01*
X120692895Y-58427904D01*
X120645276Y-58523142D01*
X120597657Y-58570761D01*
X120502419Y-58618380D01*
X120121466Y-58618380D01*
X120121466Y-57618380D01*
X120454800Y-57618380D01*
X120550038Y-57666000D01*
X120597657Y-57713619D01*
X120645276Y-57808857D01*
X120645276Y-57904095D01*
X120597657Y-57999333D01*
X120550038Y-58046952D01*
X120454800Y-58094571D01*
X120121466Y-58094571D01*
X121597657Y-58618380D02*
X121121466Y-58618380D01*
X121121466Y-57618380D01*
X121930990Y-58094571D02*
X122264323Y-58094571D01*
X122407180Y-58618380D02*
X121930990Y-58618380D01*
X121930990Y-57618380D01*
X122407180Y-57618380D01*
X123597657Y-58618380D02*
X123597657Y-57618380D01*
X124169085Y-58618380D01*
X124169085Y-57618380D01*
X124835752Y-57618380D02*
X125026228Y-57618380D01*
X125121466Y-57666000D01*
X125216704Y-57761238D01*
X125264323Y-57951714D01*
X125264323Y-58285047D01*
X125216704Y-58475523D01*
X125121466Y-58570761D01*
X125026228Y-58618380D01*
X124835752Y-58618380D01*
X124740514Y-58570761D01*
X124645276Y-58475523D01*
X124597657Y-58285047D01*
X124597657Y-57951714D01*
X124645276Y-57761238D01*
X124740514Y-57666000D01*
X124835752Y-57618380D01*
X125692895Y-58618380D02*
X125692895Y-57618380D01*
X125930990Y-57618380D01*
X126073847Y-57666000D01*
X126169085Y-57761238D01*
X126216704Y-57856476D01*
X126264323Y-58046952D01*
X126264323Y-58189809D01*
X126216704Y-58380285D01*
X126169085Y-58475523D01*
X126073847Y-58570761D01*
X125930990Y-58618380D01*
X125692895Y-58618380D01*
X126692895Y-58094571D02*
X127026228Y-58094571D01*
X127169085Y-58618380D02*
X126692895Y-58618380D01*
X126692895Y-57618380D01*
X127169085Y-57618380D01*
X119764323Y-59268380D02*
X120097657Y-60268380D01*
X120430990Y-59268380D01*
X121716704Y-59268380D02*
X121811942Y-59268380D01*
X121907180Y-59316000D01*
X121954800Y-59363619D01*
X122002419Y-59458857D01*
X122050038Y-59649333D01*
X122050038Y-59887428D01*
X122002419Y-60077904D01*
X121954800Y-60173142D01*
X121907180Y-60220761D01*
X121811942Y-60268380D01*
X121716704Y-60268380D01*
X121621466Y-60220761D01*
X121573847Y-60173142D01*
X121526228Y-60077904D01*
X121478609Y-59887428D01*
X121478609Y-59649333D01*
X121526228Y-59458857D01*
X121573847Y-59363619D01*
X121621466Y-59316000D01*
X121716704Y-59268380D01*
D11*
X166669800Y-103261000D02*
X164009800Y-103261000D01*
X166669800Y-108401000D02*
X166669800Y-103261000D01*
X164009800Y-108401000D02*
X164009800Y-103261000D01*
X166669800Y-108401000D02*
X164009800Y-108401000D01*
X166669800Y-109671000D02*
X166669800Y-111001000D01*
X166669800Y-111001000D02*
X165339800Y-111001000D01*
X166669800Y-113541000D02*
X166669800Y-110881000D01*
X141209800Y-113541000D02*
X166669800Y-113541000D01*
X141209800Y-110881000D02*
X166669800Y-110881000D01*
X141209800Y-113541000D02*
X141209800Y-110881000D01*
X139939800Y-113541000D02*
X138609800Y-113541000D01*
X138609800Y-113541000D02*
X138609800Y-112211000D01*
X131234800Y-117021000D02*
X147034800Y-117021000D01*
X147034800Y-128221000D02*
X131234800Y-128221000D01*
X147034800Y-128221000D02*
G75*
G02X149034800Y-130221000I0J-2000000D01*
G01*
X129234800Y-130221000D02*
G75*
G02X131234800Y-128221000I2000000J0D01*
G01*
X131234800Y-117021000D02*
G75*
G02X129234800Y-115021000I0J2000000D01*
G01*
X149034800Y-115021000D02*
G75*
G02X147034800Y-117021000I-2000000J0D01*
G01*
X129234800Y-115021000D02*
X111234800Y-115021000D01*
X129234800Y-130221000D02*
X111234800Y-130221000D01*
X167034800Y-130221000D02*
X149034800Y-130221000D01*
X111234800Y-130221000D02*
X111234800Y-115021000D01*
X167034800Y-115021000D02*
X149034800Y-115021000D01*
X167034800Y-130221000D02*
X167034800Y-115021000D01*
X167754800Y-131186000D02*
X110514800Y-131186000D01*
X167754800Y-114056000D02*
X167754800Y-131186000D01*
X110514800Y-114056000D02*
X167754800Y-114056000D01*
X110514800Y-131186000D02*
X110514800Y-114056000D01*
X117824800Y-123681000D02*
X117824800Y-121681000D01*
X114824800Y-126681000D02*
X114824800Y-118681000D01*
X115824800Y-119681000D02*
X115824800Y-125681000D01*
X116824800Y-124681000D02*
X116824800Y-120681000D01*
X138609800Y-100721000D02*
X138609800Y-103381000D01*
X164069800Y-100721000D02*
X138609800Y-100721000D01*
X164069800Y-103381000D02*
X138609800Y-103381000D01*
X164069800Y-100721000D02*
X164069800Y-103381000D01*
X165339800Y-100721000D02*
X166669800Y-100721000D01*
X166669800Y-100721000D02*
X166669800Y-102051000D01*
X141269800Y-103261000D02*
X138609800Y-103261000D01*
X141269800Y-108401000D02*
X141269800Y-103261000D01*
X138609800Y-108401000D02*
X138609800Y-103261000D01*
X141269800Y-108401000D02*
X138609800Y-108401000D01*
X141269800Y-109671000D02*
X141269800Y-111001000D01*
X141269800Y-111001000D02*
X139939800Y-111001000D01*
X174186185Y-122433413D02*
G75*
G02X174309800Y-123041000I-1431385J-607587D01*
G01*
X172147058Y-121608891D02*
G75*
G02X173362800Y-121609000I607742J-1432109D01*
G01*
X171322691Y-123648742D02*
G75*
G02X171322800Y-122433000I1432109J607742D01*
G01*
X173362542Y-124473109D02*
G75*
G02X172146800Y-124473000I-607742J1432109D01*
G01*
X174310292Y-123013989D02*
G75*
G02X174186800Y-123649000I-1555492J-27011D01*
G01*
X174309800Y-119541000D02*
G75*
G03X174309800Y-119541000I-1555000J0D01*
G01*
X174309800Y-116041000D02*
G75*
G03X174309800Y-116041000I-1555000J0D01*
G01*
X174854800Y-125201000D02*
X174854800Y-113881000D01*
X169294800Y-125201000D02*
X169294800Y-113881000D01*
X176414800Y-125201000D02*
X176414800Y-113881000D01*
X169294800Y-125201000D02*
X176414800Y-125201000D01*
X169294800Y-113881000D02*
X176414800Y-113881000D01*
X174914800Y-125441000D02*
X176654800Y-125441000D01*
X176654800Y-125441000D02*
X176654800Y-123941000D01*
X146964800Y-97391000D02*
X131164800Y-97391000D01*
X131164800Y-86191000D02*
X146964800Y-86191000D01*
X131164800Y-86191000D02*
G75*
G02X129164800Y-84191000I0J2000000D01*
G01*
X148964800Y-84191000D02*
G75*
G02X146964800Y-86191000I-2000000J0D01*
G01*
X146964800Y-97391000D02*
G75*
G02X148964800Y-99391000I0J-2000000D01*
G01*
X129164800Y-99391000D02*
G75*
G02X131164800Y-97391000I2000000J0D01*
G01*
X148964800Y-99391000D02*
X166964800Y-99391000D01*
X148964800Y-84191000D02*
X166964800Y-84191000D01*
X111164800Y-84191000D02*
X129164800Y-84191000D01*
X166964800Y-84191000D02*
X166964800Y-99391000D01*
X111164800Y-99391000D02*
X129164800Y-99391000D01*
X111164800Y-84191000D02*
X111164800Y-99391000D01*
X110444800Y-83226000D02*
X167684800Y-83226000D01*
X110444800Y-100356000D02*
X110444800Y-83226000D01*
X167684800Y-100356000D02*
X110444800Y-100356000D01*
X167684800Y-83226000D02*
X167684800Y-100356000D01*
X160374800Y-90731000D02*
X160374800Y-92731000D01*
X163374800Y-87731000D02*
X163374800Y-95731000D01*
X162374800Y-94731000D02*
X162374800Y-88731000D01*
X161374800Y-89731000D02*
X161374800Y-93731000D01*
X164129800Y-111001000D02*
X164129800Y-108341000D01*
X143749800Y-111001000D02*
X164129800Y-111001000D01*
X143749800Y-108341000D02*
X164129800Y-108341000D01*
X143749800Y-111001000D02*
X143749800Y-108341000D01*
X142479800Y-111001000D02*
X141149800Y-111001000D01*
X141149800Y-111001000D02*
X141149800Y-109671000D01*
X174186185Y-97498413D02*
G75*
G02X174309800Y-98106000I-1431385J-607587D01*
G01*
X172147058Y-96673891D02*
G75*
G02X173362800Y-96674000I607742J-1432109D01*
G01*
X171322691Y-98713742D02*
G75*
G02X171322800Y-97498000I1432109J607742D01*
G01*
X173362542Y-99538109D02*
G75*
G02X172146800Y-99538000I-607742J1432109D01*
G01*
X174310292Y-98078989D02*
G75*
G02X174186800Y-98714000I-1555492J-27011D01*
G01*
X174309800Y-94606000D02*
G75*
G03X174309800Y-94606000I-1555000J0D01*
G01*
X174309800Y-91106000D02*
G75*
G03X174309800Y-91106000I-1555000J0D01*
G01*
X174854800Y-100266000D02*
X174854800Y-88946000D01*
X169294800Y-100266000D02*
X169294800Y-88946000D01*
X176414800Y-100266000D02*
X176414800Y-88946000D01*
X169294800Y-100266000D02*
X176414800Y-100266000D01*
X169294800Y-88946000D02*
X176414800Y-88946000D01*
X174914800Y-100506000D02*
X176654800Y-100506000D01*
X176654800Y-100506000D02*
X176654800Y-99006000D01*
X164129800Y-108461000D02*
X164129800Y-105801000D01*
X143749800Y-108461000D02*
X164129800Y-108461000D01*
X143749800Y-105801000D02*
X164129800Y-105801000D01*
X143749800Y-108461000D02*
X143749800Y-105801000D01*
X142479800Y-108461000D02*
X141149800Y-108461000D01*
X141149800Y-108461000D02*
X141149800Y-107131000D01*
X164129800Y-105921000D02*
X164129800Y-103261000D01*
X143749800Y-105921000D02*
X164129800Y-105921000D01*
X143749800Y-103261000D02*
X164129800Y-103261000D01*
X143749800Y-105921000D02*
X143749800Y-103261000D01*
X142479800Y-105921000D02*
X141149800Y-105921000D01*
X141149800Y-105921000D02*
X141149800Y-104591000D01*
X141149800Y-56921000D02*
X141149800Y-55591000D01*
X142479800Y-56921000D02*
X141149800Y-56921000D01*
X143749800Y-56921000D02*
X143749800Y-54261000D01*
X143749800Y-54261000D02*
X164129800Y-54261000D01*
X143749800Y-56921000D02*
X164129800Y-56921000D01*
X164129800Y-56921000D02*
X164129800Y-54261000D01*
X141149800Y-59461000D02*
X141149800Y-58131000D01*
X142479800Y-59461000D02*
X141149800Y-59461000D01*
X143749800Y-59461000D02*
X143749800Y-56801000D01*
X143749800Y-56801000D02*
X164129800Y-56801000D01*
X143749800Y-59461000D02*
X164129800Y-59461000D01*
X164129800Y-59461000D02*
X164129800Y-56801000D01*
X141149800Y-62001000D02*
X141149800Y-60671000D01*
X142479800Y-62001000D02*
X141149800Y-62001000D01*
X143749800Y-62001000D02*
X143749800Y-59341000D01*
X143749800Y-59341000D02*
X164129800Y-59341000D01*
X143749800Y-62001000D02*
X164129800Y-62001000D01*
X164129800Y-62001000D02*
X164129800Y-59341000D01*
X176654800Y-51506000D02*
X176654800Y-50006000D01*
X174914800Y-51506000D02*
X176654800Y-51506000D01*
X169294800Y-39946000D02*
X176414800Y-39946000D01*
X169294800Y-51266000D02*
X176414800Y-51266000D01*
X176414800Y-51266000D02*
X176414800Y-39946000D01*
X169294800Y-51266000D02*
X169294800Y-39946000D01*
X174854800Y-51266000D02*
X174854800Y-39946000D01*
X174309800Y-42106000D02*
G75*
G03X174309800Y-42106000I-1555000J0D01*
G01*
X174309800Y-45606000D02*
G75*
G03X174309800Y-45606000I-1555000J0D01*
G01*
X174310292Y-49078989D02*
G75*
G02X174186800Y-49714000I-1555492J-27011D01*
G01*
X173362542Y-50538109D02*
G75*
G02X172146800Y-50538000I-607742J1432109D01*
G01*
X171322691Y-49713742D02*
G75*
G02X171322800Y-48498000I1432109J607742D01*
G01*
X172147058Y-47673891D02*
G75*
G02X173362800Y-47674000I607742J-1432109D01*
G01*
X174186185Y-48498413D02*
G75*
G02X174309800Y-49106000I-1431385J-607587D01*
G01*
X166669800Y-51721000D02*
X166669800Y-53051000D01*
X165339800Y-51721000D02*
X166669800Y-51721000D01*
X164069800Y-51721000D02*
X164069800Y-54381000D01*
X164069800Y-54381000D02*
X138609800Y-54381000D01*
X164069800Y-51721000D02*
X138609800Y-51721000D01*
X138609800Y-51721000D02*
X138609800Y-54381000D01*
X138609800Y-64541000D02*
X138609800Y-63211000D01*
X139939800Y-64541000D02*
X138609800Y-64541000D01*
X141209800Y-64541000D02*
X141209800Y-61881000D01*
X141209800Y-61881000D02*
X166669800Y-61881000D01*
X141209800Y-64541000D02*
X166669800Y-64541000D01*
X166669800Y-64541000D02*
X166669800Y-61881000D01*
X141269800Y-62001000D02*
X139939800Y-62001000D01*
X141269800Y-60671000D02*
X141269800Y-62001000D01*
X141269800Y-59401000D02*
X138609800Y-59401000D01*
X138609800Y-59401000D02*
X138609800Y-54261000D01*
X141269800Y-59401000D02*
X141269800Y-54261000D01*
X141269800Y-54261000D02*
X138609800Y-54261000D01*
X166669800Y-62001000D02*
X165339800Y-62001000D01*
X166669800Y-60671000D02*
X166669800Y-62001000D01*
X166669800Y-59401000D02*
X164009800Y-59401000D01*
X164009800Y-59401000D02*
X164009800Y-54261000D01*
X166669800Y-59401000D02*
X166669800Y-54261000D01*
X166669800Y-54261000D02*
X164009800Y-54261000D01*
X161374800Y-40731000D02*
X161374800Y-44731000D01*
X162374800Y-45731000D02*
X162374800Y-39731000D01*
X163374800Y-38731000D02*
X163374800Y-46731000D01*
X160374800Y-41731000D02*
X160374800Y-43731000D01*
X167684800Y-34226000D02*
X167684800Y-51356000D01*
X167684800Y-51356000D02*
X110444800Y-51356000D01*
X110444800Y-51356000D02*
X110444800Y-34226000D01*
X110444800Y-34226000D02*
X167684800Y-34226000D01*
X111164800Y-35191000D02*
X111164800Y-50391000D01*
X111164800Y-50391000D02*
X129164800Y-50391000D01*
X166964800Y-35191000D02*
X166964800Y-50391000D01*
X111164800Y-35191000D02*
X129164800Y-35191000D01*
X148964800Y-35191000D02*
X166964800Y-35191000D01*
X148964800Y-50391000D02*
X166964800Y-50391000D01*
X129164800Y-50391000D02*
G75*
G02X131164800Y-48391000I2000000J0D01*
G01*
X146964800Y-48391000D02*
G75*
G02X148964800Y-50391000I0J-2000000D01*
G01*
X148964800Y-35191000D02*
G75*
G02X146964800Y-37191000I-2000000J0D01*
G01*
X131164800Y-37191000D02*
G75*
G02X129164800Y-35191000I0J2000000D01*
G01*
X131164800Y-37191000D02*
X146964800Y-37191000D01*
X146964800Y-48391000D02*
X131164800Y-48391000D01*
X176654800Y-76441000D02*
X176654800Y-74941000D01*
X174914800Y-76441000D02*
X176654800Y-76441000D01*
X169294800Y-64881000D02*
X176414800Y-64881000D01*
X169294800Y-76201000D02*
X176414800Y-76201000D01*
X176414800Y-76201000D02*
X176414800Y-64881000D01*
X169294800Y-76201000D02*
X169294800Y-64881000D01*
X174854800Y-76201000D02*
X174854800Y-64881000D01*
X174309800Y-67041000D02*
G75*
G03X174309800Y-67041000I-1555000J0D01*
G01*
X174309800Y-70541000D02*
G75*
G03X174309800Y-70541000I-1555000J0D01*
G01*
X174310292Y-74013989D02*
G75*
G02X174186800Y-74649000I-1555492J-27011D01*
G01*
X173362542Y-75473109D02*
G75*
G02X172146800Y-75473000I-607742J1432109D01*
G01*
X171322691Y-74648742D02*
G75*
G02X171322800Y-73433000I1432109J607742D01*
G01*
X172147058Y-72608891D02*
G75*
G02X173362800Y-72609000I607742J-1432109D01*
G01*
X174186185Y-73433413D02*
G75*
G02X174309800Y-74041000I-1431385J-607587D01*
G01*
X116824800Y-75681000D02*
X116824800Y-71681000D01*
X115824800Y-70681000D02*
X115824800Y-76681000D01*
X114824800Y-77681000D02*
X114824800Y-69681000D01*
X117824800Y-74681000D02*
X117824800Y-72681000D01*
X110514800Y-82186000D02*
X110514800Y-65056000D01*
X110514800Y-65056000D02*
X167754800Y-65056000D01*
X167754800Y-65056000D02*
X167754800Y-82186000D01*
X167754800Y-82186000D02*
X110514800Y-82186000D01*
X167034800Y-81221000D02*
X167034800Y-66021000D01*
X167034800Y-66021000D02*
X149034800Y-66021000D01*
X111234800Y-81221000D02*
X111234800Y-66021000D01*
X167034800Y-81221000D02*
X149034800Y-81221000D01*
X129234800Y-81221000D02*
X111234800Y-81221000D01*
X129234800Y-66021000D02*
X111234800Y-66021000D01*
X149034800Y-66021000D02*
G75*
G02X147034800Y-68021000I-2000000J0D01*
G01*
X131234800Y-68021000D02*
G75*
G02X129234800Y-66021000I0J2000000D01*
G01*
X129234800Y-81221000D02*
G75*
G02X131234800Y-79221000I2000000J0D01*
G01*
X147034800Y-79221000D02*
G75*
G02X149034800Y-81221000I0J-2000000D01*
G01*
X147034800Y-79221000D02*
X131234800Y-79221000D01*
X131234800Y-68021000D02*
X147034800Y-68021000D01*
D10*
X167611466Y-106618380D02*
X167611466Y-107332666D01*
X167563847Y-107475523D01*
X167468609Y-107570761D01*
X167325752Y-107618380D01*
X167230514Y-107618380D01*
X167992419Y-106618380D02*
X168611466Y-106618380D01*
X168278133Y-106999333D01*
X168420990Y-106999333D01*
X168516228Y-107046952D01*
X168563847Y-107094571D01*
X168611466Y-107189809D01*
X168611466Y-107427904D01*
X168563847Y-107523142D01*
X168516228Y-107570761D01*
X168420990Y-107618380D01*
X168135276Y-107618380D01*
X168040038Y-107570761D01*
X167992419Y-107523142D01*
X137062180Y-112544333D02*
X137776466Y-112544333D01*
X137919323Y-112591952D01*
X138014561Y-112687190D01*
X138062180Y-112830047D01*
X138062180Y-112925285D01*
X137062180Y-111591952D02*
X137062180Y-112068142D01*
X137538371Y-112115761D01*
X137490752Y-112068142D01*
X137443133Y-111972904D01*
X137443133Y-111734809D01*
X137490752Y-111639571D01*
X137538371Y-111591952D01*
X137633609Y-111544333D01*
X137871704Y-111544333D01*
X137966942Y-111591952D01*
X138014561Y-111639571D01*
X138062180Y-111734809D01*
X138062180Y-111972904D01*
X138014561Y-112068142D01*
X137966942Y-112115761D01*
X107199085Y-124454571D02*
X107341942Y-124502190D01*
X107389561Y-124549809D01*
X107437180Y-124645047D01*
X107437180Y-124787904D01*
X107389561Y-124883142D01*
X107341942Y-124930761D01*
X107246704Y-124978380D01*
X106865752Y-124978380D01*
X106865752Y-123978380D01*
X107199085Y-123978380D01*
X107294323Y-124026000D01*
X107341942Y-124073619D01*
X107389561Y-124168857D01*
X107389561Y-124264095D01*
X107341942Y-124359333D01*
X107294323Y-124406952D01*
X107199085Y-124454571D01*
X106865752Y-124454571D01*
X107722895Y-123978380D02*
X108294323Y-123978380D01*
X108008609Y-124978380D02*
X108008609Y-123978380D01*
X108580038Y-124073619D02*
X108627657Y-124026000D01*
X108722895Y-123978380D01*
X108960990Y-123978380D01*
X109056228Y-124026000D01*
X109103847Y-124073619D01*
X109151466Y-124168857D01*
X109151466Y-124264095D01*
X109103847Y-124406952D01*
X108532419Y-124978380D01*
X109151466Y-124978380D01*
X109383847Y-122752428D02*
X110145752Y-122752428D01*
X168153847Y-122752428D02*
X168915752Y-122752428D01*
X168534800Y-123133380D02*
X168534800Y-122371476D01*
X169937180Y-102419333D02*
X170651466Y-102419333D01*
X170794323Y-102466952D01*
X170889561Y-102562190D01*
X170937180Y-102705047D01*
X170937180Y-102800285D01*
X170365752Y-101800285D02*
X170318133Y-101895523D01*
X170270514Y-101943142D01*
X170175276Y-101990761D01*
X170127657Y-101990761D01*
X170032419Y-101943142D01*
X169984800Y-101895523D01*
X169937180Y-101800285D01*
X169937180Y-101609809D01*
X169984800Y-101514571D01*
X170032419Y-101466952D01*
X170127657Y-101419333D01*
X170175276Y-101419333D01*
X170270514Y-101466952D01*
X170318133Y-101514571D01*
X170365752Y-101609809D01*
X170365752Y-101800285D01*
X170413371Y-101895523D01*
X170460990Y-101943142D01*
X170556228Y-101990761D01*
X170746704Y-101990761D01*
X170841942Y-101943142D01*
X170889561Y-101895523D01*
X170937180Y-101800285D01*
X170937180Y-101609809D01*
X170889561Y-101514571D01*
X170841942Y-101466952D01*
X170746704Y-101419333D01*
X170556228Y-101419333D01*
X170460990Y-101466952D01*
X170413371Y-101514571D01*
X170365752Y-101609809D01*
X136496466Y-106618380D02*
X136496466Y-107332666D01*
X136448847Y-107475523D01*
X136353609Y-107570761D01*
X136210752Y-107618380D01*
X136115514Y-107618380D01*
X137401228Y-106951714D02*
X137401228Y-107618380D01*
X137163133Y-106570761D02*
X136925038Y-107285047D01*
X137544085Y-107285047D01*
X171572180Y-112579333D02*
X172286466Y-112579333D01*
X172429323Y-112626952D01*
X172524561Y-112722190D01*
X172572180Y-112865047D01*
X172572180Y-112960285D01*
X171667419Y-112150761D02*
X171619800Y-112103142D01*
X171572180Y-112007904D01*
X171572180Y-111769809D01*
X171619800Y-111674571D01*
X171667419Y-111626952D01*
X171762657Y-111579333D01*
X171857895Y-111579333D01*
X172000752Y-111626952D01*
X172572180Y-112198380D01*
X172572180Y-111579333D01*
X107199085Y-89814571D02*
X107341942Y-89862190D01*
X107389561Y-89909809D01*
X107437180Y-90005047D01*
X107437180Y-90147904D01*
X107389561Y-90243142D01*
X107341942Y-90290761D01*
X107246704Y-90338380D01*
X106865752Y-90338380D01*
X106865752Y-89338380D01*
X107199085Y-89338380D01*
X107294323Y-89386000D01*
X107341942Y-89433619D01*
X107389561Y-89528857D01*
X107389561Y-89624095D01*
X107341942Y-89719333D01*
X107294323Y-89766952D01*
X107199085Y-89814571D01*
X106865752Y-89814571D01*
X107722895Y-89338380D02*
X108294323Y-89338380D01*
X108008609Y-90338380D02*
X108008609Y-89338380D01*
X109151466Y-90338380D02*
X108580038Y-90338380D01*
X108865752Y-90338380D02*
X108865752Y-89338380D01*
X108770514Y-89481238D01*
X108675276Y-89576476D01*
X108580038Y-89624095D01*
X168053847Y-91802428D02*
X168815752Y-91802428D01*
X109283847Y-91802428D02*
X110045752Y-91802428D01*
X109664800Y-92183380D02*
X109664800Y-91421476D01*
X171572180Y-87644333D02*
X172286466Y-87644333D01*
X172429323Y-87691952D01*
X172524561Y-87787190D01*
X172572180Y-87930047D01*
X172572180Y-88025285D01*
X172572180Y-86644333D02*
X172572180Y-87215761D01*
X172572180Y-86930047D02*
X171572180Y-86930047D01*
X171715038Y-87025285D01*
X171810276Y-87120523D01*
X171857895Y-87215761D01*
X171572180Y-38644333D02*
X172286466Y-38644333D01*
X172429323Y-38691952D01*
X172524561Y-38787190D01*
X172572180Y-38930047D01*
X172572180Y-39025285D01*
X172572180Y-37644333D02*
X172572180Y-38215761D01*
X172572180Y-37930047D02*
X171572180Y-37930047D01*
X171715038Y-38025285D01*
X171810276Y-38120523D01*
X171857895Y-38215761D01*
X169937180Y-53419333D02*
X170651466Y-53419333D01*
X170794323Y-53466952D01*
X170889561Y-53562190D01*
X170937180Y-53705047D01*
X170937180Y-53800285D01*
X170365752Y-52800285D02*
X170318133Y-52895523D01*
X170270514Y-52943142D01*
X170175276Y-52990761D01*
X170127657Y-52990761D01*
X170032419Y-52943142D01*
X169984800Y-52895523D01*
X169937180Y-52800285D01*
X169937180Y-52609809D01*
X169984800Y-52514571D01*
X170032419Y-52466952D01*
X170127657Y-52419333D01*
X170175276Y-52419333D01*
X170270514Y-52466952D01*
X170318133Y-52514571D01*
X170365752Y-52609809D01*
X170365752Y-52800285D01*
X170413371Y-52895523D01*
X170460990Y-52943142D01*
X170556228Y-52990761D01*
X170746704Y-52990761D01*
X170841942Y-52943142D01*
X170889561Y-52895523D01*
X170937180Y-52800285D01*
X170937180Y-52609809D01*
X170889561Y-52514571D01*
X170841942Y-52466952D01*
X170746704Y-52419333D01*
X170556228Y-52419333D01*
X170460990Y-52466952D01*
X170413371Y-52514571D01*
X170365752Y-52609809D01*
X137062180Y-63544333D02*
X137776466Y-63544333D01*
X137919323Y-63591952D01*
X138014561Y-63687190D01*
X138062180Y-63830047D01*
X138062180Y-63925285D01*
X137062180Y-62591952D02*
X137062180Y-63068142D01*
X137538371Y-63115761D01*
X137490752Y-63068142D01*
X137443133Y-62972904D01*
X137443133Y-62734809D01*
X137490752Y-62639571D01*
X137538371Y-62591952D01*
X137633609Y-62544333D01*
X137871704Y-62544333D01*
X137966942Y-62591952D01*
X138014561Y-62639571D01*
X138062180Y-62734809D01*
X138062180Y-62972904D01*
X138014561Y-63068142D01*
X137966942Y-63115761D01*
X136496466Y-57618380D02*
X136496466Y-58332666D01*
X136448847Y-58475523D01*
X136353609Y-58570761D01*
X136210752Y-58618380D01*
X136115514Y-58618380D01*
X137401228Y-57951714D02*
X137401228Y-58618380D01*
X137163133Y-57570761D02*
X136925038Y-58285047D01*
X137544085Y-58285047D01*
X167611466Y-57618380D02*
X167611466Y-58332666D01*
X167563847Y-58475523D01*
X167468609Y-58570761D01*
X167325752Y-58618380D01*
X167230514Y-58618380D01*
X167992419Y-57618380D02*
X168611466Y-57618380D01*
X168278133Y-57999333D01*
X168420990Y-57999333D01*
X168516228Y-58046952D01*
X168563847Y-58094571D01*
X168611466Y-58189809D01*
X168611466Y-58427904D01*
X168563847Y-58523142D01*
X168516228Y-58570761D01*
X168420990Y-58618380D01*
X168135276Y-58618380D01*
X168040038Y-58570761D01*
X167992419Y-58523142D01*
X107199085Y-40814571D02*
X107341942Y-40862190D01*
X107389561Y-40909809D01*
X107437180Y-41005047D01*
X107437180Y-41147904D01*
X107389561Y-41243142D01*
X107341942Y-41290761D01*
X107246704Y-41338380D01*
X106865752Y-41338380D01*
X106865752Y-40338380D01*
X107199085Y-40338380D01*
X107294323Y-40386000D01*
X107341942Y-40433619D01*
X107389561Y-40528857D01*
X107389561Y-40624095D01*
X107341942Y-40719333D01*
X107294323Y-40766952D01*
X107199085Y-40814571D01*
X106865752Y-40814571D01*
X107722895Y-40338380D02*
X108294323Y-40338380D01*
X108008609Y-41338380D02*
X108008609Y-40338380D01*
X109151466Y-41338380D02*
X108580038Y-41338380D01*
X108865752Y-41338380D02*
X108865752Y-40338380D01*
X108770514Y-40481238D01*
X108675276Y-40576476D01*
X108580038Y-40624095D01*
X109283847Y-42802428D02*
X110045752Y-42802428D01*
X109664800Y-43183380D02*
X109664800Y-42421476D01*
X168053847Y-42802428D02*
X168815752Y-42802428D01*
X171572180Y-63579333D02*
X172286466Y-63579333D01*
X172429323Y-63626952D01*
X172524561Y-63722190D01*
X172572180Y-63865047D01*
X172572180Y-63960285D01*
X171667419Y-63150761D02*
X171619800Y-63103142D01*
X171572180Y-63007904D01*
X171572180Y-62769809D01*
X171619800Y-62674571D01*
X171667419Y-62626952D01*
X171762657Y-62579333D01*
X171857895Y-62579333D01*
X172000752Y-62626952D01*
X172572180Y-63198380D01*
X172572180Y-62579333D01*
X107199085Y-75454571D02*
X107341942Y-75502190D01*
X107389561Y-75549809D01*
X107437180Y-75645047D01*
X107437180Y-75787904D01*
X107389561Y-75883142D01*
X107341942Y-75930761D01*
X107246704Y-75978380D01*
X106865752Y-75978380D01*
X106865752Y-74978380D01*
X107199085Y-74978380D01*
X107294323Y-75026000D01*
X107341942Y-75073619D01*
X107389561Y-75168857D01*
X107389561Y-75264095D01*
X107341942Y-75359333D01*
X107294323Y-75406952D01*
X107199085Y-75454571D01*
X106865752Y-75454571D01*
X107722895Y-74978380D02*
X108294323Y-74978380D01*
X108008609Y-75978380D02*
X108008609Y-74978380D01*
X108580038Y-75073619D02*
X108627657Y-75026000D01*
X108722895Y-74978380D01*
X108960990Y-74978380D01*
X109056228Y-75026000D01*
X109103847Y-75073619D01*
X109151466Y-75168857D01*
X109151466Y-75264095D01*
X109103847Y-75406952D01*
X108532419Y-75978380D01*
X109151466Y-75978380D01*
X168153847Y-73752428D02*
X168915752Y-73752428D01*
X168534800Y-74133380D02*
X168534800Y-73371476D01*
X109383847Y-73752428D02*
X110145752Y-73752428D01*
%LPC*%
D12*
X165339800Y-109671000D03*
D13*
X165339800Y-107131000D03*
X165339800Y-104591000D03*
D12*
X139939800Y-112211000D03*
D13*
X142479800Y-112211000D03*
X145019800Y-112211000D03*
X147559800Y-112211000D03*
X150099800Y-112211000D03*
X152639800Y-112211000D03*
X155179800Y-112211000D03*
X157719800Y-112211000D03*
X160259800Y-112211000D03*
X162799800Y-112211000D03*
X165339800Y-112211000D03*
D14*
X162384800Y-128616000D03*
X115904800Y-116626000D03*
D15*
X113144800Y-122621000D03*
X165134800Y-122621000D03*
D12*
X165339800Y-102051000D03*
D13*
X162799800Y-102051000D03*
X160259800Y-102051000D03*
X157719800Y-102051000D03*
X155179800Y-102051000D03*
X152639800Y-102051000D03*
X150099800Y-102051000D03*
X147559800Y-102051000D03*
X145019800Y-102051000D03*
X142479800Y-102051000D03*
X139939800Y-102051000D03*
D12*
X139939800Y-109671000D03*
D13*
X139939800Y-107131000D03*
X139939800Y-104591000D03*
D16*
X165344800Y-87206000D03*
X172344800Y-107206000D03*
X115344800Y-127206000D03*
D17*
X172754800Y-123041000D03*
D18*
X172754800Y-119541000D03*
X172754800Y-116041000D03*
D14*
X115814800Y-85796000D03*
X162294800Y-97786000D03*
D15*
X165054800Y-91791000D03*
X113064800Y-91791000D03*
D16*
X108344800Y-107206000D03*
D12*
X142479800Y-109671000D03*
D13*
X145019800Y-109671000D03*
X147559800Y-109671000D03*
X150099800Y-109671000D03*
X152639800Y-109671000D03*
X155179800Y-109671000D03*
X157719800Y-109671000D03*
X160259800Y-109671000D03*
X162799800Y-109671000D03*
D17*
X172754800Y-98106000D03*
D18*
X172754800Y-94606000D03*
X172754800Y-91106000D03*
D12*
X142479800Y-107131000D03*
D13*
X145019800Y-107131000D03*
X147559800Y-107131000D03*
X150099800Y-107131000D03*
X152639800Y-107131000D03*
X155179800Y-107131000D03*
X157719800Y-107131000D03*
X160259800Y-107131000D03*
X162799800Y-107131000D03*
D12*
X142479800Y-104591000D03*
D13*
X145019800Y-104591000D03*
X147559800Y-104591000D03*
X150099800Y-104591000D03*
X152639800Y-104591000D03*
X155179800Y-104591000D03*
X157719800Y-104591000D03*
X160259800Y-104591000D03*
X162799800Y-104591000D03*
X162799800Y-55591000D03*
X160259800Y-55591000D03*
X157719800Y-55591000D03*
X155179800Y-55591000D03*
X152639800Y-55591000D03*
X150099800Y-55591000D03*
X147559800Y-55591000D03*
X145019800Y-55591000D03*
D12*
X142479800Y-55591000D03*
D13*
X162799800Y-58131000D03*
X160259800Y-58131000D03*
X157719800Y-58131000D03*
X155179800Y-58131000D03*
X152639800Y-58131000D03*
X150099800Y-58131000D03*
X147559800Y-58131000D03*
X145019800Y-58131000D03*
D12*
X142479800Y-58131000D03*
D13*
X162799800Y-60671000D03*
X160259800Y-60671000D03*
X157719800Y-60671000D03*
X155179800Y-60671000D03*
X152639800Y-60671000D03*
X150099800Y-60671000D03*
X147559800Y-60671000D03*
X145019800Y-60671000D03*
D12*
X142479800Y-60671000D03*
D18*
X172754800Y-42106000D03*
X172754800Y-45606000D03*
D17*
X172754800Y-49106000D03*
D13*
X139939800Y-53051000D03*
X142479800Y-53051000D03*
X145019800Y-53051000D03*
X147559800Y-53051000D03*
X150099800Y-53051000D03*
X152639800Y-53051000D03*
X155179800Y-53051000D03*
X157719800Y-53051000D03*
X160259800Y-53051000D03*
X162799800Y-53051000D03*
D12*
X165339800Y-53051000D03*
D13*
X165339800Y-63211000D03*
X162799800Y-63211000D03*
X160259800Y-63211000D03*
X157719800Y-63211000D03*
X155179800Y-63211000D03*
X152639800Y-63211000D03*
X150099800Y-63211000D03*
X147559800Y-63211000D03*
X145019800Y-63211000D03*
X142479800Y-63211000D03*
D12*
X139939800Y-63211000D03*
D13*
X139939800Y-55591000D03*
X139939800Y-58131000D03*
D12*
X139939800Y-60671000D03*
D13*
X165339800Y-55591000D03*
X165339800Y-58131000D03*
D12*
X165339800Y-60671000D03*
D15*
X113064800Y-42791000D03*
X165054800Y-42791000D03*
D14*
X162294800Y-48786000D03*
X115814800Y-36796000D03*
D18*
X172754800Y-67041000D03*
X172754800Y-70541000D03*
D17*
X172754800Y-74041000D03*
D15*
X165134800Y-73621000D03*
X113144800Y-73621000D03*
D14*
X115904800Y-67626000D03*
X162384800Y-79616000D03*
D16*
X108344800Y-58206000D03*
X115344800Y-78206000D03*
X165344800Y-38206000D03*
X172344800Y-58206000D03*
M02*
